<?xml version="1.0" encoding="UTF-8" standalone="no"?>
<svg
   id="Layer_1"
   data-name="Layer 1"
   version="1.1"
   viewBox="0 0 1700.79 850.39"
   sodipodi:docname="table-saw-push-stick.svg"
   inkscape:version="1.4 (e7c3feb100, 2024-10-09)"
   xmlns:inkscape="http://www.inkscape.org/namespaces/inkscape"
   xmlns:sodipodi="http://sodipodi.sourceforge.net/DTD/sodipodi-0.dtd"
   xmlns="http://www.w3.org/2000/svg"
   xmlns:svg="http://www.w3.org/2000/svg">
  <sodipodi:namedview
     id="namedview7"
     pagecolor="#ffffff"
     bordercolor="#000000"
     borderopacity="0.25"
     inkscape:showpageshadow="2"
     inkscape:pageopacity="0.0"
     inkscape:pagecheckerboard="0"
     inkscape:deskcolor="#d1d1d1"
     inkscape:zoom="0.5"
     inkscape:cx="1026"
     inkscape:cy="638"
     inkscape:window-width="2560"
     inkscape:window-height="1368"
     inkscape:window-x="0"
     inkscape:window-y="0"
     inkscape:window-maximized="1"
     inkscape:current-layer="Layer_1" />
  <defs
     id="defs1">
    <style
       id="style1">
      .cls-1 {
        fill: none;
        stroke: red;
        stroke-miterlimit: 10;
        stroke-width: 0px;
      }
    </style>
  </defs>
  <path
     class="cls-1"
     d="M13.83,142.57l.05-126c31.86-.6,74.68,2.36,122.53,17.03,75.09,23.02,120.24,62.82,182.95,119.07,0,0,111.93,100.39,198.9,273.08,11.81,23.46,28.61,59.89,12.97,85-8.97,14.4-28.9,25.54-47.01,22.98-39.63-5.61-40.04-72.52-90.94-157.03-11.52-19.13-86.77-144.06-170.95-136.07-27.04,2.57-45.93,17.67-51.01,21.98-38.86,32.98-34.06,84.84-37.09,230.99,0,0-3.22,155.68-44.08,213.98-18.96,27.06-43.01,32.98-43.01,32.98-2.14.53-3.91.83-5,1"
     id="path1"
     style="stroke-width:0.1;stroke-dasharray:none" />
  <line
     class="cls-1"
     x1="43.83"
     y1="140.58"
     x2="43.6"
     y2="741.78"
     id="line1"
     style="stroke-width:0.1;stroke-dasharray:none" />
  <line
     class="cls-1"
     x1="13.83"
     y1="141.57"
     x2="42.63"
     y2="141.58"
     id="line2"
     style="stroke-width:0.1;stroke-dasharray:none" />
  <circle
     class="cls-1"
     cx="468.66"
     cy="431.44"
     r="11.25"
     id="circle2"
     style="stroke-width:0.1;stroke-dasharray:none" />
  <circle
     class="cls-1"
     cx="136.24"
     cy="126.62"
     r="11.25"
     id="circle3"
     style="stroke-width:0.1;stroke-dasharray:none" />
  <circle
     class="cls-1"
     cx="86.95"
     cy="534.23"
     r="11.25"
     id="circle4"
     style="stroke-width:0.1;stroke-dasharray:none" />
  <path
     class="cls-1"
     d="M678.3,705.43l-.05,126c-31.86.6-74.68-2.36-122.53-17.03-75.09-23.02-120.24-62.82-182.95-119.07,0,0-111.93-100.39-198.9-273.08-11.81-23.46-28.61-59.89-12.97-85,8.97-14.4,28.9-25.54,47.01-22.98,39.63,5.61,40.04,72.52,90.94,157.03,11.52,19.13,86.77,144.06,170.95,136.07,27.04-2.57,45.93-17.67,51.01-21.98,38.86-32.98,34.06-84.84,37.09-230.99,0,0,3.22-155.68,44.08-213.98,18.96-27.06,43.01-32.98,43.01-32.98,2.14-.53,3.91-.83,5-1"
     id="path4"
     style="stroke-width:0.1;stroke-dasharray:none" />
  <line
     class="cls-1"
     x1="648.3"
     y1="707.42"
     x2="648.53"
     y2="106.22"
     id="line4"
     style="stroke-width:0.1;stroke-dasharray:none" />
  <line
     class="cls-1"
     x1="678.3"
     y1="706.43"
     x2="649.5"
     y2="706.42"
     id="line5"
     style="stroke-width:0.1;stroke-dasharray:none" />
  <circle
     class="cls-1"
     cx="223.48"
     cy="416.56"
     r="11.25"
     id="circle5"
     style="stroke-width:0.1;stroke-dasharray:none" />
  <circle
     class="cls-1"
     cx="555.89"
     cy="721.39"
     r="11.25"
     id="circle6"
     style="stroke-width:0.1;stroke-dasharray:none" />
  <circle
     class="cls-1"
     cx="605.18"
     cy="313.78"
     r="11.25"
     id="circle7"
     style="stroke-width:0.1;stroke-dasharray:none" />
</svg>
