<?xml version="1.0" encoding="UTF-8"?>
<svg id="Layer_1" data-name="Layer 1" xmlns="http://www.w3.org/2000/svg" version="1.1" viewBox="0 0 1700.79 850.39">
  <defs>
    <style>
      .cls-1 {
        fill: none;
        stroke: red;
        stroke-miterlimit: 10;
        stroke-width: 0px;
      }
    </style>
  </defs>
  <path class="cls-1" d="M13.83,142.57l.05-126c31.86-.6,74.68,2.36,122.53,17.03,75.09,23.02,120.24,62.82,182.95,119.07,0,0,111.93,100.39,198.9,273.08,11.81,23.46,28.61,59.89,12.97,85-8.97,14.4-28.9,25.54-47.01,22.98-39.63-5.61-40.04-72.52-90.94-157.03-11.52-19.13-86.77-144.06-170.95-136.07-27.04,2.57-45.93,17.67-51.01,21.98-38.86,32.98-34.06,84.84-37.09,230.99,0,0-3.22,155.68-44.08,213.98-18.96,27.06-43.01,32.98-43.01,32.98-2.14.53-3.91.83-5,1"/>
  <line class="cls-1" x1="43.83" y1="140.58" x2="43.6" y2="741.78"/>
  <line class="cls-1" x1="13.83" y1="141.57" x2="42.63" y2="141.58"/>
  <circle class="cls-1" cx="468.66" cy="431.44" r="11.25"/>
  <circle class="cls-1" cx="136.24" cy="126.62" r="11.25"/>
  <circle class="cls-1" cx="86.95" cy="534.23" r="11.25"/>
  <path class="cls-1" d="M678.3,705.43l-.05,126c-31.86.6-74.68-2.36-122.53-17.03-75.09-23.02-120.24-62.82-182.95-119.07,0,0-111.93-100.39-198.9-273.08-11.81-23.46-28.61-59.89-12.97-85,8.97-14.4,28.9-25.54,47.01-22.98,39.63,5.61,40.04,72.52,90.94,157.03,11.52,19.13,86.77,144.06,170.95,136.07,27.04-2.57,45.93-17.67,51.01-21.98,38.86-32.98,34.06-84.84,37.09-230.99,0,0,3.22-155.68,44.08-213.98,18.96-27.06,43.01-32.98,43.01-32.98,2.14-.53,3.91-.83,5-1"/>
  <line class="cls-1" x1="648.3" y1="707.42" x2="648.53" y2="106.22"/>
  <line class="cls-1" x1="678.3" y1="706.43" x2="649.5" y2="706.42"/>
  <circle class="cls-1" cx="223.48" cy="416.56" r="11.25"/>
  <circle class="cls-1" cx="555.89" cy="721.39" r="11.25"/>
  <circle class="cls-1" cx="605.18" cy="313.78" r="11.25"/>
</svg>