<?xml version="1.0" encoding="UTF-8" standalone="no"?>
<!-- Created with Inkscape (http://www.inkscape.org/) -->

<svg
   width="200mm"
   height="200mm"
   viewBox="0 0 200 200"
   version="1.1"
   id="svg1"
   xml:space="preserve"
   inkscape:version="1.3 (0e150ed, 2023-07-21)"
   sodipodi:docname="nolop-hexagon-logo.svg"
   xmlns:inkscape="http://www.inkscape.org/namespaces/inkscape"
   xmlns:sodipodi="http://sodipodi.sourceforge.net/DTD/sodipodi-0.dtd"
   xmlns="http://www.w3.org/2000/svg"
   xmlns:svg="http://www.w3.org/2000/svg"><sodipodi:namedview
     id="namedview1"
     pagecolor="#ffffff"
     bordercolor="#000000"
     borderopacity="0.25"
     inkscape:showpageshadow="2"
     inkscape:pageopacity="0.0"
     inkscape:pagecheckerboard="0"
     inkscape:deskcolor="#d1d1d1"
     inkscape:document-units="mm"
     showguides="true"
     inkscape:zoom="0.49926302"
     inkscape:cx="654.96539"
     inkscape:cy="580.85616"
     inkscape:window-width="1704"
     inkscape:window-height="953"
     inkscape:window-x="6"
     inkscape:window-y="41"
     inkscape:window-maximized="0"
     inkscape:current-layer="svg1"
     showgrid="false"
     inkscape:lockguides="false"><inkscape:page
       x="0"
       y="0"
       width="200"
       height="200"
       id="page1"
       margin="0"
       bleed="0" /><sodipodi:guide
       position="75.000001,198.96568"
       orientation="-1,0"
       id="guide3"
       inkscape:locked="false"
       inkscape:label=""
       inkscape:color="rgb(0,134,229)" /><sodipodi:guide
       position="125,198.96568"
       orientation="-1,0"
       id="guide11"
       inkscape:locked="false"
       inkscape:label=""
       inkscape:color="rgb(0,134,229)" /><sodipodi:guide
       position="75.000003,211.43362"
       orientation="0.5,-0.8660254"
       id="guide14"
       inkscape:locked="false"
       inkscape:label=""
       inkscape:color="rgb(0,134,229)" /><sodipodi:guide
       position="75.000003,182.56638"
       orientation="0.5,0.8660254"
       id="guide16"
       inkscape:locked="false"
       inkscape:label=""
       inkscape:color="rgb(0,134,229)" /><sodipodi:guide
       position="100,219.63071"
       orientation="-1,0"
       id="guide1"
       inkscape:locked="false"
       inkscape:label=""
       inkscape:color="rgb(0,134,229)" /><sodipodi:guide
       position="59.138743,197"
       orientation="0,1"
       id="guide2"
       inkscape:locked="false"
       inkscape:label=""
       inkscape:color="rgb(0,134,229)" /></sodipodi:namedview><defs
     id="defs1"><rect
       x="375.10303"
       y="1256.1591"
       width="357.67517"
       height="34.272942"
       id="rect2" /><clipPath
       clipPathUnits="userSpaceOnUse"
       id="clipPath2"><path
         d="M 526.713,744.086 H 85.288 V 47.912 h 441.425 z"
         transform="translate(-306.28001,-744.08602)"
         id="path2" /></clipPath><clipPath
       clipPathUnits="userSpaceOnUse"
       id="clipPath10"><path
         d="M 526.713,744.086 H 85.288 V 47.912 h 441.425 z"
         transform="translate(-474.16201,-158.654)"
         id="path10" /></clipPath><clipPath
       clipPathUnits="userSpaceOnUse"
       id="clipPath12"><path
         d="M 526.713,744.086 H 85.288 V 47.912 h 441.425 z"
         transform="translate(-503.72901,-87.528)"
         id="path12" /></clipPath><clipPath
       clipPathUnits="userSpaceOnUse"
       id="clipPath2-8"><path
         d="M 526.713,744.086 H 85.288 V 47.912 h 441.425 z"
         transform="translate(-306.28001,-744.08602)"
         id="path2-3" /></clipPath><clipPath
       clipPathUnits="userSpaceOnUse"
       id="clipPath2-7"><path
         d="M 526.713,744.086 H 85.288 V 47.912 h 441.425 z"
         transform="translate(-306.28001,-744.08602)"
         id="path2-4" /></clipPath><clipPath
       clipPathUnits="userSpaceOnUse"
       id="clipPath2-5"><path
         d="M 526.713,744.086 H 85.288 V 47.912 h 441.425 z"
         transform="translate(-306.28001,-744.08602)"
         id="path2-38" /></clipPath></defs><g
     inkscape:label="logo"
     inkscape:groupmode="layer"
     id="layer1"><g
       id="g16"
       transform="matrix(0.60132576,0,0,0.60132579,506.81821,-145.46837)"><path
         id="path1"
         d="m 0,0 220.433,-127.267 v -254.53 L 0,-509.065 -220.43,-381.797 v 254.53 L 0,0"
         style="fill:#ff7f2a;fill-opacity:1;fill-rule:evenodd;stroke:none"
         transform="matrix(0.18860644,0,0,-0.18860644,-676.53576,360.20558)"
         clip-path="url(#clipPath2)" /><path
         id="path3"
         d="m -695.42979,370.09987 32.48067,18.75332 v 5.26326 l 9.04368,5.22119 4.57428,-2.64068 -9.04387,-5.22138 v -5.16046 l 4.46959,-2.5807 9.04387,5.22119 v -5.28155 l -9.04387,-5.22138 -4.55786,2.63144 -27.11749,-15.65607 -8.97041,5.17908"
         style="fill:#ffffff;fill-opacity:1;fill-rule:evenodd;stroke:none;stroke-width:0.188606"
         sodipodi:nodetypes="cccccccccccccc" /><path
         id="path4"
         d="m -707.61999,374.21507 52.68683,30.41845 3.281,-1.89418 6.79078,3.92038 v 7.84075 l -6.79078,3.92075 -6.79021,-3.92075 v -3.78835 l -52.78642,-30.47619 7.01863,-4.0522"
         style="fill:#ffffff;fill-opacity:1;fill-rule:evenodd;stroke:none;stroke-width:0.188606"
         sodipodi:nodetypes="cccccccccc" /><path
         id="path5"
         d="m -651.65216,406.37021 3.64576,2.10503 v 4.21008 l -3.64576,2.10466 -3.64576,-2.10466 v -4.21008 l 3.64576,-2.10503"
         style="fill:#ff7f2a;fill-opacity:1;fill-rule:evenodd;stroke:none;stroke-width:0.188606" /><path
         id="path6"
         d="m -645.45115,442.20864 -52.68684,-30.41844 -3.281,1.89436 -6.79059,-3.92056 v -7.84075 l 6.79059,-3.92075 6.79003,3.92075 v 3.78853 l 52.78684,30.47619 -7.01859,4.05219"
         style="fill:#ffffff;fill-opacity:1;fill-rule:evenodd;stroke:none;stroke-width:0.188606"
         sodipodi:nodetypes="cccccccccc" /><path
         id="path7"
         d="m -701.41899,410.05388 -3.64557,-2.10522 v -4.20989 l 3.64557,-2.10484 3.64576,2.10484 v 4.20989 l -3.64576,2.10522"
         style="fill:#ff7f2a;fill-opacity:1;fill-rule:evenodd;stroke:none;stroke-width:0.188606" /><path
         id="path8"
         d="m -657.64154,446.32385 -32.48049,-18.75314 v -5.26325 l -9.04349,-5.22119 -4.57446,2.64048 9.04387,5.22158 v 5.16046 l -4.46941,2.5807 -9.04406,-5.22119 v 5.28155 l 9.04406,5.22118 4.55768,-2.63143 27.11781,15.6562 8.97034,-5.17903"
         style="fill:#ffffff;fill-opacity:1;fill-rule:evenodd;stroke:none;stroke-width:0.188606"
         sodipodi:nodetypes="cccccccccccccc" /></g></g></svg>
