<?xml version="1.0" encoding="UTF-8" standalone="no"?>
<!-- Created with Inkscape (http://www.inkscape.org/) -->

<svg
   width="210mm"
   height="297mm"
   viewBox="0 0 210 297"
   version="1.1"
   id="svg5"
   inkscape:version="1.2 (dc2aedaf03, 2022-05-15)"
   sodipodi:docname="tools-of-last-resort-stencil.svg"
   xmlns:inkscape="http://www.inkscape.org/namespaces/inkscape"
   xmlns:sodipodi="http://sodipodi.sourceforge.net/DTD/sodipodi-0.dtd"
   xmlns="http://www.w3.org/2000/svg"
   xmlns:svg="http://www.w3.org/2000/svg">
  <sodipodi:namedview
     id="namedview7"
     pagecolor="#ffffff"
     bordercolor="#000000"
     borderopacity="0.25"
     inkscape:showpageshadow="2"
     inkscape:pageopacity="0.0"
     inkscape:pagecheckerboard="0"
     inkscape:deskcolor="#d1d1d1"
     inkscape:document-units="mm"
     showgrid="true"
     inkscape:zoom="1.2938725"
     inkscape:cx="352.04396"
     inkscape:cy="289.44119"
     inkscape:window-width="1649"
     inkscape:window-height="1259"
     inkscape:window-x="494"
     inkscape:window-y="494"
     inkscape:window-maximized="0"
     inkscape:current-layer="layer1">
    <inkscape:grid
       type="xygrid"
       id="grid331"
       units="in"
       spacingx="25.4"
       spacingy="25.4" />
  </sodipodi:namedview>
  <defs
     id="defs2" />
  <g
     inkscape:label="Layer 1"
     inkscape:groupmode="layer"
     id="layer1">
    <path
       d="m 41.825098,46.68344 v 14.816655 h 5.587995 V 46.68344 Z M 53.3962,41.744555 v 3.951108 H 35.841991 v -3.951108 z"
       style="font-size:28.2222px;font-family:asgard;-inkscape-font-specification:asgard;text-align:center;text-anchor:middle;fill:#ff0000;stroke-width:0.264583"
       id="path2424" />
    <path
       d="m 67.027547,41.772777 q 1.185333,0.366889 2.144888,0.931333 0.987777,0.564444 1.665109,1.326443 0.705555,0.733778 1.100666,1.608666 0.395111,0.874888 0.395111,1.834443 v 8.325549 q 0,0.959555 -0.395111,1.834443 -0.395111,0.874888 -1.100666,1.608665 -0.677332,0.733778 -1.665109,1.326444 -0.959555,0.564444 -2.144888,0.90311 -1.354665,0.423333 -2.963331,0.508 v -3.58422 q 1.15711,-0.141111 1.91911,-0.761999 0.790221,-0.620888 0.790221,-1.467555 v -9.059326 q 0,-0.846666 -0.790221,-1.467554 -0.762,-0.620889 -1.91911,-0.762 V 41.293 q 1.552221,0.02822 2.963331,0.479777 z m -3.951108,20.207096 q -1.580443,-0.08467 -2.963331,-0.508 -1.15711,-0.338666 -2.144887,-0.90311 -0.959555,-0.592666 -1.66511,-1.326444 -0.705555,-0.733777 -1.100666,-1.608665 -0.39511,-0.874888 -0.39511,-1.834443 v -8.325549 q 0,-0.959555 0.39511,-1.834443 0.395111,-0.874888 1.100666,-1.608666 0.705555,-0.761999 1.66511,-1.326443 0.987777,-0.564444 2.144887,-0.931333 1.439332,-0.451555 2.963331,-0.479777 v 3.584219 q -1.15711,0.141111 -1.947332,0.762 -0.761999,0.620888 -0.761999,1.467554 v 9.059326 q 0,0.846667 0.761999,1.467555 0.790222,0.620888 1.947332,0.761999 z"
       style="font-size:28.2222px;font-family:asgard;-inkscape-font-specification:asgard;text-align:center;text-anchor:middle;fill:#ff0000;stroke-width:0.264583"
       id="path2426" />
    <path
       d="m 85.964631,41.772777 q 1.185333,0.366889 2.144888,0.931333 0.987777,0.564444 1.66511,1.326443 0.705555,0.733778 1.100665,1.608666 0.395111,0.874888 0.395111,1.834443 v 8.325549 q 0,0.959555 -0.395111,1.834443 -0.39511,0.874888 -1.100665,1.608665 -0.677333,0.733778 -1.66511,1.326444 -0.959555,0.564444 -2.144888,0.90311 -1.354665,0.423333 -2.963331,0.508 v -3.58422 q 1.157111,-0.141111 1.91911,-0.761999 0.790222,-0.620888 0.790222,-1.467555 v -9.059326 q 0,-0.846666 -0.790222,-1.467554 -0.761999,-0.620889 -1.91911,-0.762 V 41.293 q 1.552221,0.02822 2.963331,0.479777 z m -3.951108,20.207096 q -1.580443,-0.08467 -2.963331,-0.508 -1.15711,-0.338666 -2.144887,-0.90311 -0.959555,-0.592666 -1.66511,-1.326444 -0.705555,-0.733777 -1.100665,-1.608665 -0.395111,-0.874888 -0.395111,-1.834443 v -8.325549 q 0,-0.959555 0.395111,-1.834443 0.39511,-0.874888 1.100665,-1.608666 0.705555,-0.761999 1.66511,-1.326443 0.987777,-0.564444 2.144887,-0.931333 1.439333,-0.451555 2.963331,-0.479777 v 3.584219 q -1.15711,0.141111 -1.947331,0.762 -0.762,0.620888 -0.762,1.467554 v 9.059326 q 0,0.846667 0.762,1.467555 0.790221,0.620888 1.947331,0.761999 z"
       style="font-size:28.2222px;font-family:asgard;-inkscape-font-specification:asgard;text-align:center;text-anchor:middle;fill:#ff0000;stroke-width:0.264583"
       id="path2428" />
    <path
       d="m 99.257272,57.548987 v 3.951108 h 7.337768 V 57.548987 Z M 98.269495,41.744555 v 19.75554 h -5.587996 v -19.75554 z"
       style="font-size:28.2222px;font-family:asgard;-inkscape-font-specification:asgard;text-align:center;text-anchor:middle;fill:#ff0000;stroke-width:0.264583"
       id="path2430" />
    <path
       d="m 116.27523,53.513213 q -1.32644,-0.536222 -2.79399,-1.100666 -1.43934,-0.564444 -2.68111,-1.269999 -1.21356,-0.733777 -2.00378,-1.608666 -0.79022,-0.90311 -0.79022,-2.06022 0,-1.241777 0.62089,-2.342443 0.64911,-1.100666 1.778,-1.919109 1.12888,-0.846666 2.62466,-1.354666 1.49578,-0.508 3.24555,-0.564444 v 3.584219 q -1.18533,0.141111 -1.94733,0.762 -0.762,0.620888 -0.762,1.467554 0,0.677333 0.762,1.241777 0.762,0.536222 1.94733,1.044221 z m 0.98778,-3.697109 q 1.29822,0.536222 2.76578,1.100666 1.46755,0.564444 2.68111,1.298221 1.21355,0.705555 2.00377,1.608666 0.81845,0.874888 0.81845,2.031998 -0.0282,1.241777 -0.67734,2.342443 -0.64911,1.072444 -1.778,1.890887 -1.10066,0.818444 -2.59644,1.326444 -1.49577,0.507999 -3.21733,0.564444 v -3.58422 q 0.56445,-0.08467 1.04422,-0.282222 0.508,-0.225777 0.87489,-0.536221 0.36689,-0.310445 0.56445,-0.677333 0.22577,-0.366889 0.22577,-0.733778 0,-0.64911 -0.762,-1.185332 -0.762,-0.564444 -1.94733,-1.072444 z m 0,-8.523104 q 1.72156,0.05644 3.21733,0.564444 1.524,0.508 2.62467,1.354666 1.12889,0.818443 1.778,1.919109 0.64911,1.100666 0.64911,2.342443 h -5.55978 v -0.366889 q 0,-0.846666 -0.79022,-1.467554 -0.762,-0.620889 -1.91911,-0.762 z m -0.98778,20.686873 q -1.72155,-0.05644 -3.21733,-0.564444 -1.49577,-0.508 -2.62466,-1.326444 -1.10067,-0.818443 -1.74978,-1.890887 -0.64911,-1.100666 -0.67733,-2.342443 h 5.55977 v 0.310444 q 0,0.846667 0.762,1.467555 0.762,0.620888 1.94733,0.761999 z"
       style="font-size:28.2222px;font-family:asgard;-inkscape-font-specification:asgard;text-align:center;text-anchor:middle;fill:#ff0000;stroke-width:0.264583"
       id="path2432" />
    <path
       d="m 147.63007,41.772777 q 1.18533,0.366889 2.14488,0.931333 0.98778,0.564444 1.66511,1.326443 0.70556,0.733778 1.10067,1.608666 0.39511,0.874888 0.39511,1.834443 v 8.325549 q 0,0.959555 -0.39511,1.834443 -0.39511,0.874888 -1.10067,1.608665 -0.67733,0.733778 -1.66511,1.326444 -0.95955,0.564444 -2.14488,0.90311 -1.35467,0.423333 -2.96333,0.508 v -3.58422 q 1.15711,-0.141111 1.91911,-0.761999 0.79022,-0.620888 0.79022,-1.467555 v -9.059326 q 0,-0.846666 -0.79022,-1.467554 -0.762,-0.620889 -1.91911,-0.762 V 41.293 q 1.55222,0.02822 2.96333,0.479777 z m -3.95111,20.207096 q -1.58044,-0.08467 -2.96333,-0.508 -1.15711,-0.338666 -2.14489,-0.90311 -0.95955,-0.592666 -1.66511,-1.326444 -0.70555,-0.733777 -1.10066,-1.608665 -0.39512,-0.874888 -0.39512,-1.834443 v -8.325549 q 0,-0.959555 0.39512,-1.834443 0.39511,-0.874888 1.10066,-1.608666 0.70556,-0.761999 1.66511,-1.326443 0.98778,-0.564444 2.14489,-0.931333 1.43933,-0.451555 2.96333,-0.479777 v 3.584219 q -1.15711,0.141111 -1.94733,0.762 -0.762,0.620888 -0.762,1.467554 v 9.059326 q 0,0.846667 0.762,1.467555 0.79022,0.620888 1.94733,0.761999 z"
       style="font-size:28.2222px;font-family:asgard;-inkscape-font-specification:asgard;text-align:center;text-anchor:middle;fill:#ff0000;stroke-width:0.264583"
       id="path2434" />
    <path
       d="m 160.89449,53.626101 v -3.951108 h 4.57199 v 3.951108 z m 0,-11.881546 h 7.36599 v 3.951108 h -7.36599 z m -0.98778,0 v 19.75554 h -5.55978 v -19.75554 z"
       style="font-size:28.2222px;font-family:asgard;-inkscape-font-specification:asgard;text-align:center;text-anchor:middle;fill:#ff0000;stroke-width:0.264583"
       id="path2436" />
    <path
       d="M 73.264587,93.810992 V 97.7621 h 7.337772 V 93.810992 Z M 72.27681,78.00656 V 97.7621 H 66.688814 V 78.00656 Z"
       style="font-size:28.2222px;font-family:asgard;-inkscape-font-specification:asgard;text-align:center;text-anchor:middle;fill:#ff0000;stroke-width:0.264583"
       id="path2438" />
    <path
       d="M 100.92232,97.7621 H 94.967438 L 88.278777,78.00656 h 6.349995 z M 91.608997,90.847661 H 90.282553 L 90.931664,88.900329 87.799,79.587003 82.013448,97.7621 h 5.926663 l 1.326443,-3.951108 h 3.33022 z"
       style="font-size:28.2222px;font-family:asgard;-inkscape-font-specification:asgard;text-align:center;text-anchor:middle;fill:#ff0000;stroke-width:0.264583"
       id="path2440" />
    <path
       d="m 109.19143,89.775218 q -1.32644,-0.536222 -2.794,-1.100666 -1.43933,-0.564444 -2.68111,-1.269999 -1.21355,-0.733777 -2.00377,-1.608666 -0.79022,-0.90311 -0.79022,-2.06022 0,-1.241777 0.62089,-2.342443 0.64911,-1.100666 1.77799,-1.91911 1.12889,-0.846666 2.62467,-1.354665 1.49578,-0.508 3.24555,-0.564444 v 3.584219 q -1.18533,0.141111 -1.94733,0.762 -0.762,0.620888 -0.762,1.467554 0,0.677333 0.762,1.241777 0.762,0.536222 1.94733,1.044221 z m 0.98778,-3.697109 q 1.29822,0.536222 2.76577,1.100666 1.46756,0.564444 2.68111,1.298221 1.21356,0.705555 2.00378,1.608666 0.81844,0.874888 0.81844,2.031998 -0.0282,1.241777 -0.67733,2.342443 -0.64911,1.072443 -1.778,1.890887 -1.10066,0.818444 -2.59644,1.326444 -1.49578,0.507999 -3.21733,0.564444 v -3.58422 q 0.56444,-0.08467 1.04422,-0.282222 0.508,-0.225777 0.87489,-0.536222 0.36689,-0.310444 0.56444,-0.677332 0.22578,-0.366889 0.22578,-0.733778 0,-0.64911 -0.762,-1.185332 -0.762,-0.564444 -1.94733,-1.072444 z m 0,-8.523104 q 1.72155,0.05644 3.21733,0.564444 1.524,0.507999 2.62466,1.354665 1.12889,0.818444 1.778,1.91911 0.64911,1.100666 0.64911,2.342443 h -5.55977 v -0.366889 q 0,-0.846666 -0.79022,-1.467554 -0.762,-0.620889 -1.91911,-0.762 z m -0.98778,20.686873 q -1.72155,-0.05644 -3.21733,-0.564444 -1.49578,-0.508 -2.62466,-1.326444 -1.10067,-0.818444 -1.74978,-1.890887 -0.64911,-1.100666 -0.67733,-2.342443 h 5.55977 v 0.310444 q 0,0.846666 0.762,1.467555 0.762,0.620888 1.94733,0.761999 z"
       style="font-size:28.2222px;font-family:asgard;-inkscape-font-specification:asgard;text-align:center;text-anchor:middle;fill:#ff0000;stroke-width:0.264583"
       id="path2442" />
    <path
       d="M 125.84251,82.945445 V 97.7621 h 5.588 V 82.945445 Z m 11.57111,-4.938885 v 3.951108 H 119.85941 V 78.00656 Z"
       style="font-size:28.2222px;font-family:asgard;-inkscape-font-specification:asgard;text-align:center;text-anchor:middle;fill:#ff0000;stroke-width:0.264583"
       id="path2444" />
    <path
       d="m 65.263595,122.50945 q -0.02822,1.12889 -0.592666,2.11666 -0.536222,0.95956 -1.523999,1.74978 0.987777,0.79022 1.552221,1.80622 0.564444,0.98778 0.564444,2.11666 v 3.72534 H 59.703821 V 130.327 q 0,-0.81845 -0.818443,-1.38289 -0.818444,-0.59267 -1.975554,-0.59267 h -1.806221 v -3.95111 h 1.806221 q 1.185332,0 1.975554,-0.56444 0.818443,-0.59267 0.818443,-1.41111 v -2.22955 q 0,-0.81845 -0.818443,-1.38289 -0.818444,-0.59267 -1.975554,-0.59267 h -1.806221 v -3.95111 h 1.834443 q 1.693332,0 3.189108,0.45156 1.495777,0.45156 2.596443,1.24178 1.128888,0.762 1.806221,1.80622 0.677333,1.04422 0.733777,2.22955 z m -11.147769,-8.24089 v 19.75555 h -5.559774 v -19.75555 z"
       style="font-size:28.2222px;font-family:asgard;-inkscape-font-specification:asgard;text-align:center;text-anchor:middle;fill:#ff0000;stroke-width:0.264583"
       id="path2446" />
    <path
       d="m 77.794257,122.199 v 3.95111 H 73.222261 V 122.199 Z m -4.571996,11.82511 V 130.073 h 7.365994 v 3.95111 z m 0,-19.75555 h 7.365994 v 3.95111 h -7.365994 z m -0.987777,0 v 19.75555 H 66.67471 v -19.75555 z"
       style="font-size:28.2222px;font-family:asgard;-inkscape-font-specification:asgard;text-align:center;text-anchor:middle;fill:#ff0000;stroke-width:0.264583"
       id="path2448" />
    <path
       d="m 90.268448,126.03722 q -1.326444,-0.53622 -2.793998,-1.10066 -1.439332,-0.56445 -2.681109,-1.27 -1.213555,-0.73378 -2.003776,-1.60867 -0.790222,-0.90311 -0.790222,-2.06022 0,-1.24178 0.620888,-2.34244 0.649111,-1.10067 1.777999,-1.91911 1.128888,-0.84667 2.624665,-1.35467 1.495776,-0.508 3.245553,-0.56444 v 3.58422 q -1.185333,0.14111 -1.947332,0.762 -0.762,0.62089 -0.762,1.46755 0,0.67734 0.762,1.24178 0.761999,0.53622 1.947332,1.04422 z m 0.987777,-3.69711 q 1.298221,0.53623 2.765775,1.10067 1.467555,0.56444 2.681109,1.29822 1.213555,0.70556 2.003777,1.60867 0.818443,0.87488 0.818443,2.032 -0.02822,1.24177 -0.677332,2.34244 -0.649111,1.07244 -1.777999,1.89089 -1.100666,0.81844 -2.596442,1.32644 -1.495777,0.508 -3.217331,0.56444 v -3.58422 q 0.564444,-0.0847 1.044221,-0.28222 0.508,-0.22578 0.874888,-0.53622 0.366889,-0.31044 0.564444,-0.67733 0.225778,-0.36689 0.225778,-0.73378 0,-0.64911 -0.761999,-1.18533 -0.762,-0.56445 -1.947332,-1.07245 z m 0,-8.5231 q 1.721554,0.0564 3.217331,0.56444 1.523998,0.508 2.624664,1.35467 1.128888,0.81844 1.777999,1.91911 0.64911,1.10066 0.64911,2.34244 h -5.559773 v -0.36689 q 0,-0.84666 -0.790222,-1.46755 -0.761999,-0.62089 -1.919109,-0.762 z m -0.987777,20.68687 q -1.721555,-0.0564 -3.217331,-0.56444 -1.495777,-0.508 -2.624665,-1.32644 -1.100666,-0.81845 -1.749776,-1.89089 -0.649111,-1.10067 -0.677333,-2.34244 h 5.559773 v 0.31044 q 0,0.84667 0.762,1.46755 0.761999,0.62089 1.947332,0.762 z"
       style="font-size:28.2222px;font-family:asgard;-inkscape-font-specification:asgard;text-align:center;text-anchor:middle;fill:#ff0000;stroke-width:0.264583"
       id="path2450" />
    <path
       d="m 113.15664,114.29679 q 1.18533,0.36689 2.14489,0.93133 0.98777,0.56444 1.66511,1.32644 0.70555,0.73378 1.10066,1.60867 0.39511,0.87489 0.39511,1.83444 v 8.32555 q 0,0.95956 -0.39511,1.83444 -0.39511,0.87489 -1.10066,1.60867 -0.67734,0.73378 -1.66511,1.32644 -0.95956,0.56445 -2.14489,0.90311 -1.35467,0.42334 -2.96333,0.508 v -3.58422 q 1.15711,-0.14111 1.91911,-0.762 0.79022,-0.62088 0.79022,-1.46755 v -9.05933 q 0,-0.84666 -0.79022,-1.46755 -0.762,-0.62089 -1.91911,-0.762 v -3.58422 q 1.55222,0.0282 2.96333,0.47978 z m -3.95111,20.20709 q -1.58044,-0.0847 -2.96333,-0.508 -1.15711,-0.33866 -2.14489,-0.90311 -0.95955,-0.59266 -1.66511,-1.32644 -0.70555,-0.73378 -1.10066,-1.60867 -0.39511,-0.87488 -0.39511,-1.83444 v -8.32555 q 0,-0.95955 0.39511,-1.83444 0.39511,-0.87489 1.10066,-1.60867 0.70556,-0.762 1.66511,-1.32644 0.98778,-0.56444 2.14489,-0.93133 1.43933,-0.45156 2.96333,-0.47978 v 3.58422 q -1.15711,0.14111 -1.94733,0.762 -0.762,0.62089 -0.762,1.46755 v 9.05933 q 0,0.84667 0.762,1.46755 0.79022,0.62089 1.94733,0.762 z"
       style="font-size:28.2222px;font-family:asgard;-inkscape-font-specification:asgard;text-align:center;text-anchor:middle;fill:#ff0000;stroke-width:0.264583"
       id="path2452" />
    <path
       d="m 136.58105,122.50945 q -0.0282,1.12889 -0.59266,2.11666 -0.53622,0.95956 -1.524,1.74978 0.98778,0.79022 1.55222,1.80622 0.56444,0.98778 0.56444,2.11666 v 3.72534 h -5.55977 V 130.327 q 0,-0.81845 -0.81844,-1.38289 -0.81845,-0.59267 -1.97556,-0.59267 h -1.80622 v -3.95111 h 1.80622 q 1.18534,0 1.97556,-0.56444 0.81844,-0.59267 0.81844,-1.41111 v -2.22955 q 0,-0.81845 -0.81844,-1.38289 -0.81845,-0.59267 -1.97556,-0.59267 h -1.80622 v -3.95111 h 1.83444 q 1.69334,0 3.18911,0.45156 1.49578,0.45156 2.59645,1.24178 1.12888,0.762 1.80622,1.80622 0.67733,1.04422 0.73377,2.22955 z m -11.14777,-8.24089 v 19.75555 h -5.55977 v -19.75555 z"
       style="font-size:28.2222px;font-family:asgard;-inkscape-font-specification:asgard;text-align:center;text-anchor:middle;fill:#ff0000;stroke-width:0.264583"
       id="path2454" />
    <path
       d="m 143.97527,119.20745 v 14.81666 h 5.588 v -14.81666 z m 11.5711,-4.93889 v 3.95111 h -17.55421 v -3.95111 z"
       style="font-size:28.2222px;font-family:asgard;-inkscape-font-specification:asgard;text-align:center;text-anchor:middle;fill:#ff0000;stroke-width:0.264583"
       id="path2456" />
    <rect
       style="fill:none;stroke:#000000;stroke-width:0.264583"
       id="rect329"
       width="152.39999"
       height="127"
       x="25.4"
       y="25.4"
       ry="0" />
  </g>
</svg>
