<?xml version="1.0" encoding="UTF-8" standalone="yes"?>
<svg xmlns="http://www.w3.org/2000/svg" xmlns:xlink="http://www.w3.org/1999/xlink" width="41.951cm" height="10.254cm" version="1.1" viewBox="-962.641 496.600 2180.122 532.886">
  <!--
	Exported with Concepts: Smarter Sketching
	Version: 2672 on iOS 17.3
	https://concepts.app/
	-->
  <title>CC0A10F4-21E9-4D5B-A992-CFB2E9D3F458</title>
  <desc>Drawing exported from Concepts: Smarter Sketching</desc>
  <defs></defs>
  <g id="New_Layer_8" opacity="1.000">
    <path id="STROKE_56d74330-b3d3-44bd-8a3f-522847c7fb3c" opacity="1.000" fill="#fac141" stroke="#fac141" stroke-width="0.500" stroke-opacity="1.000" stroke-linecap="round" stroke-linejoin="round" d="M 326.027 524.733 L 326.362 525.810 L 326.515 526.403 Q 327.087 529.419 327.075 529.663 Q 327.064 529.906 327.213 531.266 Q 327.362 532.625 327.367 535.197 Q 327.372 537.768 327.235 539.607 Q 327.098 541.445 326.938 543.138 Q 326.777 544.830 326.720 546.180 Q 326.664 547.530 326.801 548.218 L 327.231 548.906 Q 327.238 549.061 327.918 549.195 Q 328.599 549.330 329.579 549.395 Q 330.560 549.461 331.437 549.448 Q 332.314 549.435 333.550 549.341 Q 334.786 549.248 336.705 549.011 Q 338.624 548.773 341.510 548.332 L 349.393 548.575 L 351.116 549.257 Q 352.953 550.330 354.805 554.858 Q 354.910 557.888 355.302 559.941 Q 355.694 561.993 355.815 563.824 Q 355.936 565.656 355.634 567.917 Q 355.332 570.177 354.684 572.212 Q 354.976 574.274 355.028 574.500 Q 355.080 574.726 355.184 575.312 Q 355.287 575.898 355.858 577.150 Q 356.429 578.402 357.504 578.861 Q 358.580 579.319 358.758 579.349 Q 358.935 579.379 359.736 579.369 Q 360.537 579.359 362.405 579.147 Q 364.273 578.935 366.119 578.773 Q 367.965 578.611 369.486 578.575 Q 372.592 578.655 374.088 578.715 Q 375.585 578.775 378.283 578.819 Q 380.982 578.862 383.063 578.833 Q 385.145 578.805 387.261 578.767 Q 389.376 578.730 391.271 578.783 Q 393.166 578.837 395.223 578.929 Q 397.280 579.021 399.903 579.005 Q 402.525 578.990 403.552 578.877 Q 404.579 578.765 406.052 578.648 Q 407.524 578.531 409.588 578.392 Q 411.653 578.252 413.491 578.189 Q 415.329 578.125 417.674 578.175 Q 422.531 578.486 425.250 578.612 Q 427.968 578.737 429.145 578.565 Q 430.322 578.394 430.470 578.352 Q 430.619 578.311 431.919 577.770 Q 433.219 577.229 434.170 576.216 Q 435.121 575.204 435.334 574.808 Q 435.548 574.413 435.633 574.167 Q 435.718 573.921 436.823 569.788 L 436.977 567.514 L 437.353 560.710 L 437.486 556.521 L 438.117 548.995 L 439.011 548.081 Q 439.557 547.691 440.320 547.394 Q 441.083 547.097 441.277 546.935 Q 441.470 546.773 442.555 546.600 Q 443.640 546.428 444.591 546.361 Q 445.543 546.295 446.443 546.271 Q 447.343 546.248 448.756 546.303 Q 450.170 546.358 451.993 546.470 Q 453.816 546.581 455.569 546.582 Q 457.321 546.583 458.716 546.521 Q 460.112 546.459 461.001 546.360 Q 461.890 546.262 463.043 546.017 Q 464.195 545.771 465.275 545.248 Q 465.890 544.378 466.238 543.645 Q 466.586 542.912 467.128 539.862 Q 467.669 536.812 467.384 533.193 Q 467.099 529.574 466.891 528.288 Q 466.682 527.002 466.022 523.854 Q 460.951 523.285 455.945 523.204 Q 453.442 523.154 450.983 523.190 Q 448.523 523.226 446.107 523.326 Q 443.695 523.376 441.322 523.350 Q 438.948 523.325 436.614 523.227 Q 434.283 523.087 431.971 522.910 Q 429.658 522.733 427.361 522.600 Q 425.062 522.535 422.767 522.565 Q 420.471 522.596 418.182 522.711 Q 415.898 522.842 413.624 522.968 Q 411.350 523.094 409.090 523.145 Q 406.841 523.131 404.602 523.016 Q 402.362 522.901 400.121 522.709 Q 397.881 522.517 395.618 522.327 Q 393.355 522.137 391.059 521.991 Q 388.763 521.844 386.421 521.768 Q 384.079 521.691 381.689 521.705 Q 379.298 521.719 376.868 521.830 Q 374.438 521.941 371.992 522.138 Q 369.546 522.335 367.099 522.676 Q 364.652 523.016 362.210 523.416 Q 359.782 523.761 357.390 523.970 Q 354.999 524.180 352.652 524.170 Q 350.305 524.160 348.051 523.995 Q 345.798 523.831 343.677 523.543 Q 341.557 523.255 339.649 522.964 Q 337.742 522.673 336.116 522.427 Q 334.490 522.180 333.099 522.154 Q 331.708 522.127 330.537 522.375 Q 329.366 522.624 328.279 523.210 Q 327.192 523.797 326.027 524.733 Z"></path>
    <path id="STROKE_0adc514e-754a-4cb6-bcb1-4c4edd2aac3f" opacity="1.000" fill="#55575d" stroke="#55575d" stroke-width="0.500" stroke-opacity="1.000" stroke-linecap="round" stroke-linejoin="round" d="M 375.378 578.994 L 375.409 579.353 Q 375.428 579.404 375.481 582.043 Q 375.534 584.683 375.671 590.235 Q 375.807 595.788 375.983 600.244 Q 376.160 604.700 376.241 608.198 Q 376.322 611.695 376.332 613.803 Q 376.341 615.910 376.300 617.138 Q 376.258 618.365 376.170 620.786 Q 376.082 623.208 375.829 627.058 Q 375.575 630.908 375.450 633.174 Q 375.324 635.439 374.978 640.996 Q 374.633 646.554 374.450 649.371 Q 374.268 652.188 374.216 653.621 Q 374.165 655.054 374.019 657.587 Q 373.874 660.120 373.812 661.369 Q 373.750 662.619 373.720 663.869 Q 373.691 665.120 373.667 666.077 Q 373.643 667.034 373.533 671.928 Q 373.423 676.822 373.447 680.408 Q 373.471 683.994 373.548 686.638 Q 373.625 689.282 373.737 692.352 Q 373.850 695.422 373.859 696.976 Q 373.868 698.529 373.870 701.729 Q 373.872 704.928 373.894 707.697 Q 373.915 710.466 373.928 714.496 Q 373.941 718.527 373.903 719.719 Q 373.864 720.911 373.775 725.503 Q 373.686 730.095 373.651 732.607 Q 373.616 735.118 373.609 736.278 Q 373.603 737.437 373.588 740.756 Q 373.573 744.076 373.569 748.371 Q 373.565 752.667 373.568 755.584 Q 373.571 758.501 373.789 764.141 Q 374.006 769.781 374.154 772.876 Q 374.302 775.971 374.449 777.993 Q 374.596 780.015 374.641 781.268 Q 374.686 782.521 374.717 784.068 Q 374.748 785.615 374.761 786.950 Q 374.775 788.286 374.690 793.872 Q 374.605 799.458 374.494 802.959 Q 374.382 806.459 374.298 808.106 Q 374.214 809.753 374.211 810.081 Q 374.209 810.408 374.132 812.261 Q 374.054 814.113 373.959 815.518 Q 373.863 816.923 373.759 818.718 Q 373.655 820.512 373.650 821.311 Q 373.645 822.110 373.675 823.014 Q 373.705 823.917 373.814 824.824 Q 373.923 825.731 374.076 826.312 Q 374.229 826.893 374.524 827.510 Q 374.820 828.128 375.208 828.604 L 376.054 829.134 Q 376.156 829.171 377.211 829.574 Q 378.266 829.977 379.028 830.172 Q 379.790 830.368 380.751 830.538 Q 381.711 830.707 382.106 830.773 Q 382.501 830.840 385.433 831.175 Q 388.364 831.510 389.061 831.579 Q 389.759 831.648 391.233 831.842 Q 392.707 832.037 393.191 832.102 Q 393.675 832.167 395.103 832.305 Q 396.532 832.442 398.508 832.502 Q 400.485 832.562 401.293 832.540 Q 402.102 832.518 403.199 832.371 Q 404.295 832.223 405.092 832.016 Q 405.888 831.808 406.058 831.761 Q 406.229 831.714 406.859 831.436 Q 407.490 831.158 407.944 830.880 Q 408.398 830.601 408.560 830.464 Q 408.721 830.327 409.250 829.712 L 409.675 828.827 Q 409.968 827.861 410.214 824.412 Q 410.460 820.964 410.368 818.301 Q 410.276 815.638 410.259 813.123 Q 410.242 810.607 410.184 808.593 Q 410.126 806.580 410.146 805.620 Q 410.166 804.659 410.169 803.381 Q 410.171 802.102 410.159 800.902 Q 410.147 799.701 410.124 798.641 Q 410.100 797.582 410.090 797.402 Q 410.080 797.222 410.033 794.942 Q 409.987 792.663 409.935 790.358 Q 409.883 788.054 409.852 786.391 Q 409.821 784.728 409.879 782.548 Q 409.938 780.368 410.055 779.002 Q 410.173 777.635 410.333 776.369 Q 410.493 775.103 410.832 772.531 Q 411.171 769.960 411.370 767.586 Q 411.569 765.212 411.612 763.456 Q 411.655 761.700 411.614 758.930 Q 411.573 756.159 411.453 754.530 Q 411.333 752.900 411.010 748.911 Q 410.686 744.922 410.555 742.602 Q 410.424 740.282 410.353 738.557 Q 410.283 736.832 410.242 731.608 Q 410.202 726.384 410.211 725.100 Q 410.220 723.816 410.401 720.576 Q 410.582 717.336 410.981 713.762 Q 411.381 710.187 411.627 706.675 Q 411.873 703.164 411.966 700.930 Q 412.058 698.696 412.151 697.213 Q 412.243 695.730 412.855 689.349 Q 413.467 682.968 413.566 678.827 Q 413.665 674.687 413.599 672.510 Q 413.533 670.333 413.422 668.791 Q 413.310 667.249 413.219 666.125 Q 413.128 665.002 413.056 663.839 Q 412.983 662.675 412.937 661.572 Q 412.891 660.469 412.851 658.200 Q 412.811 655.930 412.926 652.420 Q 413.040 648.911 413.239 646.599 Q 413.437 644.286 413.604 642.803 Q 413.772 641.321 414.033 638.528 Q 414.295 635.736 414.428 633.261 Q 414.562 630.786 414.609 629.207 Q 414.657 627.629 414.626 624.231 Q 414.595 620.833 414.528 619.256 Q 414.461 617.679 414.291 615.780 Q 414.121 613.880 413.958 612.249 Q 413.796 610.618 413.508 608.167 Q 413.220 605.715 413.091 604.013 Q 412.961 602.311 412.871 600.978 Q 412.781 599.646 412.674 596.999 Q 412.567 594.352 412.579 592.930 Q 412.591 591.509 412.607 590.401 Q 412.622 589.292 412.674 588.082 Q 412.725 586.871 412.784 586.235 Q 412.843 585.599 412.912 585.194 Q 412.982 584.790 413.108 583.791 Q 413.234 582.793 413.670 579.334 L 413.876 577.937 Q 409.109 578.359 404.327 578.679 Q 399.544 578.999 394.729 579.112 Q 389.913 579.224 385.069 579.150 Q 380.224 579.075 375.378 578.994 Z"></path>
  </g>
  <g id="New_Layer_7" opacity="1.000">
    <path id="STROKE_3c3c6d16-e727-46ae-a2c7-34a1b2cedc72" opacity="1.000" fill="none" stroke="#000000" stroke-width="5.209" stroke-opacity="1.000" stroke-linecap="round" stroke-linejoin="round" d="M 375.422 577.900 L 373.563 829.223 "></path>
    <path id="STROKE_693c1238-0099-4e9c-a81a-f5d487742913" opacity="1.000" fill="none" stroke="#000000" stroke-width="5.209" stroke-opacity="1.000" stroke-linecap="round" stroke-linejoin="round" d="M 414.373 577.280 L 409.899 827.697 "></path>
    <path id="STROKE_a02b1dc4-db6b-4721-95de-85fd1ac09439" opacity="1.000" fill="none" stroke="#000000" stroke-width="5.209" stroke-opacity="1.000" stroke-linecap="round" stroke-linejoin="round" d="M 354.415 578.158 L 437.398 576.622 "></path>
    <path id="STROKE_e475d339-f288-460d-851f-6212d7cad7fc" opacity="1.000" fill="none" stroke="#000000" stroke-width="5.209" stroke-opacity="1.000" stroke-linecap="round" stroke-linejoin="round" d="M 437.250 576.539 L 437.463 548.042 "></path>
    <path id="STROKE_742df384-350e-4085-b734-f163a6ee1885" opacity="1.000" fill="none" stroke="#000000" stroke-width="5.209" stroke-opacity="1.000" stroke-linecap="round" stroke-linejoin="round" d="M 466.604 547.695 L 466.759 522.107 "></path>
    <path id="STROKE_a320936d-39f5-4d5b-892e-204dee6c39f6" opacity="1.000" fill="none" stroke="#000000" stroke-width="5.209" stroke-opacity="1.000" stroke-linecap="round" stroke-linejoin="round" d="M 354.386 578.302 L 354.118 548.721 "></path>
    <path id="STROKE_f684c4e2-d512-4857-a0a6-5b64b916e500" opacity="1.000" fill="none" stroke="#000000" stroke-width="5.209" stroke-opacity="1.000" stroke-linecap="round" stroke-linejoin="round" d="M 466.294 547.962 L 325.577 548.448 "></path>
    <path id="STROKE_1b038d9e-4f6e-41c8-a0a2-0a690d6cc2d0" opacity="1.000" fill="none" stroke="#000000" stroke-width="5.209" stroke-opacity="1.000" stroke-linecap="round" stroke-linejoin="round" d="M 324.941 548.096 L 325.152 521.934 "></path>
    <path id="STROKE_9dad88c8-398e-4890-9c10-62febf440e6f" opacity="1.000" fill="none" stroke="#000000" stroke-width="5.209" stroke-opacity="1.000" stroke-linecap="round" stroke-linejoin="round" d="M 325.526 522.105 L 466.880 521.790 "></path>
  </g>
  <g id="New_Layer_5" opacity="1.000">
    <path id="STROKE_8a8bbcc0-7860-4881-9dc5-f33e315f9ab3" opacity="1.000" fill="#d4a36e" stroke="#d4a36e" stroke-width="0.500" stroke-opacity="1.000" stroke-linecap="round" stroke-linejoin="round" d="M -870.250 820.665 L -870.378 822.118 L -870.057 823.284 L -869.874 823.764 Q -869.547 827.752 -868.373 835.968 Q -867.199 844.184 -865.656 852.645 Q -864.115 861.106 -859.855 872.604 Q -855.596 884.103 -851.267 891.615 Q -846.939 899.127 -842.151 904.356 Q -837.364 909.585 -834.026 912.075 Q -830.688 914.564 -828.035 916.099 Q -825.381 917.634 -809.020 922.358 Q -792.659 927.082 -775.235 930.543 Q -757.811 934.005 -747.298 936.052 Q -736.785 938.100 -730.922 939.269 Q -725.060 940.438 -708.559 944.207 Q -692.058 947.976 -665.788 954.521 Q -639.518 961.065 -625.601 964.361 Q -611.684 967.656 -587.508 971.491 Q -563.331 975.326 -537.512 978.305 Q -511.693 981.284 -479.912 985.156 Q -448.131 989.029 -429.958 991.641 Q -411.785 994.253 -396.931 996.890 Q -382.076 999.526 -357.727 1001.984 Q -333.377 1004.441 -320.594 1005.042 Q -307.810 1005.643 -301.611 1005.811 Q -295.412 1005.979 -279.818 1006.214 Q -264.223 1006.449 -245.520 1006.731 Q -226.817 1007.014 -216.946 1006.850 Q -207.076 1006.685 -202.177 1006.419 Q -197.277 1006.154 -174.395 1003.388 Q -151.513 1000.622 -125.329 997.046 Q -99.144 993.471 -82.352 990.994 Q -65.561 988.517 -45.994 986.364 Q -26.428 984.211 -16.148 983.634 Q -5.869 983.056 0.498 982.861 Q 6.865 982.666 39.955 979.942 Q 73.044 977.219 107.917 974.447 Q 142.789 971.675 159.154 970.724 Q 175.520 969.774 193.900 968.652 Q 212.279 967.531 221.462 966.823 Q 230.644 966.115 244.481 964.782 Q 258.317 963.448 267.526 962.405 Q 276.735 961.362 295.190 959.010 Q 313.645 956.658 324.666 955.261 Q 335.686 953.865 367.030 950.693 Q 398.374 947.520 427.480 945.222 Q 456.586 942.924 470.640 942.047 Q 484.695 941.169 509.926 939.252 Q 535.157 937.336 563.518 935.702 Q 591.878 934.069 605.752 933.507 Q 619.626 932.945 627.413 932.847 Q 635.199 932.749 644.598 932.477 Q 653.997 932.206 669.272 931.466 Q 684.547 930.726 698.132 930.311 Q 711.717 929.897 733.739 929.513 Q 755.761 929.129 789.038 928.428 Q 822.316 927.728 845.988 926.755 Q 869.660 925.783 880.746 925.164 Q 891.832 924.545 899.813 924.067 Q 907.795 923.589 935.674 921.078 Q 963.553 918.567 979.075 917.030 Q 994.596 915.492 1005.903 914.077 Q 1017.210 912.662 1024.372 911.409 Q 1031.534 910.156 1041.164 908.051 Q 1050.795 905.947 1059.695 904.197 Q 1068.596 902.447 1074.797 901.154 Q 1080.998 899.861 1084.986 898.656 Q 1088.975 897.451 1094.335 895.681 Q 1099.694 893.912 1106.036 891.086 Q 1112.377 888.260 1116.900 885.956 Q 1121.422 883.653 1127.698 880.234 Q 1133.973 876.815 1136.255 875.369 Q 1138.538 873.922 1142.761 871.335 Q 1146.984 868.747 1150.428 866.444 Q 1153.871 864.141 1155.090 863.198 Q 1156.310 862.254 1160.516 859.004 Q 1164.722 855.753 1166.973 853.725 Q 1169.223 851.697 1170.126 850.730 Q 1171.029 849.763 1172.797 847.536 Q 1174.565 845.308 1176.246 842.875 Q 1177.926 840.443 1179.854 837.583 Q 1181.783 834.723 1183.528 831.872 Q 1185.273 829.021 1186.676 827.438 Q 1188.477 825.794 1192.478 820.665 "></path>
  </g>
  <g id="New_Layer_4" opacity="1.000">
    <path id="STROKE_76fad89a-1465-41b0-b6b1-17666e727135" opacity="1.000" fill="none" stroke="#000000" stroke-width="5.209" stroke-opacity="1.000" stroke-linecap="round" stroke-linejoin="round" d="M -937.638 820.665 L -928.033 820.665 L -926.030 820.665 L -923.616 820.665 L -920.843 820.665 L -918.069 820.665 L -914.936 820.665 L -911.700 820.665 L -908.413 820.665 L -904.869 820.665 L -900.914 820.665 L -897.524 820.665 L -894.083 820.665 L -890.641 820.665 L -887.200 820.665 L -883.297 820.665 L -880.215 820.665 L -876.927 820.665 L -873.692 820.665 L -870.250 820.665 L -866.809 820.665 L -862.597 820.665 L -858.848 820.665 L -855.098 820.665 L -850.989 820.665 L -846.778 820.665 L -842.206 820.665 L -836.659 820.665 L -831.882 820.665 L -826.541 820.665 L -820.993 820.665 L -814.779 820.665 L -808.255 820.665 L -800.397 820.665 L -793.874 820.665 L -787.197 820.665 L -780.520 820.665 L -774.151 820.665 L -767.628 820.665 L -760.283 820.665 L -754.068 820.665 L -747.853 820.665 L -741.997 820.665 L -736.450 820.665 L -730.749 820.665 L -724.688 820.665 L -719.809 820.665 L -714.775 820.665 L -709.382 820.665 L -703.681 820.665 L -697.620 820.665 L -690.583 820.665 L -685.036 820.665 L -679.181 820.665 L -673.480 820.665 L -667.624 820.665 L -661.563 820.665 L -654.527 820.665 L -648.517 820.665 L -642.456 820.665 L -636.088 820.665 L -630.078 820.665 L -623.863 820.665 L -617.032 820.665 L -611.485 820.665 L -605.938 820.665 L -599.723 820.665 L -593.354 820.665 L -586.831 820.665 L -579.332 820.665 L -573.117 820.665 L -566.902 820.665 L -560.225 820.665 L -553.239 820.665 L -545.689 820.665 L -537.368 820.665 L -530.691 820.665 L -524.014 820.665 L -517.645 820.665 L -511.430 820.665 L -504.445 820.665 L -499.052 820.665 L -493.350 820.665 L -487.444 820.665 L -481.434 820.665 L -475.527 820.665 L -468.696 820.665 L -463.149 820.665 L -457.448 820.665 L -451.747 820.665 L -445.686 820.665 L -439.471 820.665 L -432.485 820.665 L -426.579 820.665 L -420.569 820.665 L -414.354 820.665 L -408.345 820.665 L -402.130 820.665 L -394.939 820.665 L -388.724 820.665 L -382.047 820.665 L -375.216 820.665 L -368.179 820.665 L -360.989 820.665 L -353.182 820.665 L -346.812 820.665 L -339.981 820.665 L -332.944 820.665 L -325.754 820.665 L -318.563 820.665 L -310.448 820.665 L -303.925 820.665 L -297.042 820.665 L -290.057 820.665 L -282.506 820.665 L -274.699 820.665 L -266.224 820.665 L -259.342 820.665 L -252.356 820.665 L -245.474 820.665 L -238.488 820.665 L -231.297 820.665 L -222.977 820.665 L -216.094 820.665 L -209.263 820.665 L -202.432 820.665 L -195.549 820.665 L -188.564 820.665 L -180.397 820.665 L -173.206 820.665 L -165.040 820.665 L -156.719 820.665 L -148.398 820.665 L -140.077 820.665 L -130.473 820.665 L -121.792 820.665 L -112.495 820.665 L -103.353 820.665 L -94.416 820.665 L -85.427 820.665 L -75.155 820.665 L -66.166 820.665 L -56.562 820.665 L -46.443 820.665 L -36.479 820.665 L -26.668 820.665 L -15.574 820.665 L -6.432 820.665 L 2.865 820.665 L 12.316 820.665 L 21.613 820.665 L 32.245 820.665 L 41.182 820.665 L 50.684 820.665 L 60.289 820.665 L 69.586 820.665 L 79.036 820.665 L 89.823 820.665 L 98.811 820.665 L 107.594 820.665 L 116.428 820.665 L 125.057 820.665 L 133.686 820.665 L 143.651 820.665 L 151.509 820.665 L 159.316 820.665 L 166.815 820.665 L 174.006 820.665 L 180.889 820.665 L 188.542 820.665 L 194.911 820.665 L 201.280 820.665 L 207.443 820.665 L 213.658 820.665 L 219.719 820.665 L 226.088 820.665 L 231.121 820.665 L 236.155 820.665 L 241.394 820.665 L 246.633 820.665 L 252.026 820.665 L 257.881 820.665 L 262.453 820.665 L 267.178 820.665 L 272.057 820.665 L 276.783 820.665 L 281.560 820.665 L 287.261 820.665 L 291.986 820.665 L 297.020 820.665 L 302.413 820.665 L 308.114 820.665 L 313.661 820.665 L 319.722 820.665 L 324.756 820.665 L 329.532 820.665 L 334.412 820.665 L 339.292 820.665 L 344.376 820.665 L 350.232 820.665 L 355.471 820.665 L 361.326 820.665 L 367.387 820.665 L 373.396 820.665 L 379.252 820.665 L 385.620 820.665 L 390.705 820.665 L 396.253 820.665 L 401.954 820.665 L 407.809 820.665 L 413.716 820.665 L 420.547 820.665 L 426.248 820.665 L 432.309 820.665 L 438.524 820.665 L 444.893 820.665 L 451.570 820.665 L 459.223 820.665 L 465.746 820.665 L 472.269 820.665 L 478.793 820.665 L 485.316 820.665 L 492.814 820.665 L 498.875 820.665 L 505.398 820.665 L 512.281 820.665 L 519.266 820.665 L 526.303 820.663 L 534.110 820.655 L 540.480 820.628 L 547.009 820.524 L 553.564 820.273 L 560.177 820.067 L 566.804 820.225 L 574.054 819.865 L 579.378 819.728 L 584.562 819.488 L 589.522 819.242 L 594.654 819.451 L 600.895 820.082 L 607.473 820.942 L 611.716 820.840 L 615.582 820.732 L 619.259 820.699 L 623.049 820.737 L 626.891 820.694 L 631.439 820.486 L 635.100 820.287 L 638.542 820.193 L 641.853 820.158 L 645.092 820.198 L 648.219 820.278 L 651.599 820.380 L 654.367 820.458 L 657.135 820.522 L 659.751 820.568 L 662.368 820.601 L 665.140 820.625 L 668.220 820.642 L 670.685 820.651 L 673.304 820.656 L 675.769 820.660 L 678.183 820.662 L 680.648 820.663 L 683.268 820.664 L 685.373 820.665 L 687.685 820.665 L 689.945 820.665 L 692.205 820.665 L 694.670 820.665 L 697.290 820.665 L 699.550 820.665 L 701.707 820.665 L 703.967 820.665 L 706.432 820.665 L 708.692 820.665 L 711.466 820.665 L 713.777 820.665 L 716.037 820.665 L 718.348 820.665 L 720.763 820.665 L 723.228 820.665 L 726.001 820.665 L 728.313 820.665 L 730.573 820.665 L 733.038 820.665 L 735.298 820.665 L 737.609 820.665 L 740.177 820.665 L 742.335 820.665 L 744.441 820.665 L 746.752 820.665 L 749.012 820.665 L 751.632 820.665 L 753.737 820.665 L 755.843 820.665 L 758.001 820.665 L 760.106 820.665 L 762.058 820.665 L 764.370 820.665 L 766.167 820.665 L 767.760 820.665 L 769.403 820.665 L 771.047 820.665 L 772.485 820.665 L 774.283 820.665 L 775.618 820.665 L 776.902 820.665 L 778.238 820.665 L 779.368 820.665 L 780.651 820.665 L 782.141 820.665 L 783.271 820.665 L 784.606 820.665 L 785.736 820.665 L 787.021 820.665 L 788.356 820.665 L 789.794 820.665 L 791.129 820.665 L 792.259 820.665 L 793.544 820.665 L 794.879 820.665 L 796.163 820.665 L 797.653 820.665 L 798.937 820.665 L 800.221 820.665 L 801.556 820.665 L 802.840 820.665 L 804.176 820.665 L 805.973 820.665 L 807.258 820.665 L 808.747 820.665 L 810.185 820.665 L 811.675 820.665 L 813.318 820.665 L 814.910 820.665 L 816.246 820.665 L 817.530 820.665 L 818.865 820.665 L 819.996 820.665 L 821.279 820.665 L 822.615 820.665 L 823.745 820.665 L 824.875 820.665 L 826.005 820.665 L 827.186 820.665 L 828.470 820.665 L 829.960 820.665 L 831.244 820.665 L 832.733 820.665 L 834.017 820.665 L 835.507 820.665 L 836.791 820.665 L 838.589 820.665 L 840.078 820.665 L 841.516 820.665 L 843.006 820.665 L 844.650 820.665 L 846.601 820.665 L 848.399 820.665 L 850.351 820.665 L 852.149 820.665 L 854.100 820.665 L 856.052 820.665 L 858.312 820.665 L 860.110 820.665 L 861.907 820.665 L 863.705 820.665 L 865.348 820.665 L 867.146 820.665 L 869.098 820.665 L 870.588 820.665 L 872.026 820.665 L 873.515 820.665 L 874.953 820.665 L 876.443 820.665 L 878.241 820.665 L 879.730 820.665 L 881.168 820.665 L 882.504 820.665 L 883.942 820.665 L 885.431 820.665 L 887.075 820.665 L 888.359 820.665 L 889.643 820.665 L 890.825 820.665 L 891.801 820.665 L 892.777 820.665 L 893.906 820.665 L 894.728 820.665 L 895.396 820.665 L 896.012 820.665 L 896.526 820.665 L 897.142 820.665 L 898.169 820.665 L 898.786 820.665 L 899.454 820.665 L 900.275 820.665 L 901.097 820.665 L 902.073 820.665 L 903.203 820.665 L 904.333 820.665 L 905.309 820.665 L 906.490 820.665 L 907.620 820.665 L 908.750 820.665 L 910.240 820.665 L 911.370 820.665 L 912.500 820.665 L 913.629 820.665 L 914.811 820.665 L 915.787 820.665 L 917.225 820.665 L 918.201 820.665 L 919.177 820.665 L 920.358 820.665 L 921.334 820.665 L 922.464 820.665 L 923.748 820.665 L 924.724 820.665 L 925.905 820.665 L 927.035 820.665 L 928.320 820.665 L 929.449 820.665 L 931.093 820.665 L 932.429 820.665 L 933.712 820.665 L 935.202 820.665 L 936.640 820.665 L 938.284 820.665 L 939.773 820.665 L 941.058 820.665 L 942.342 820.665 L 943.523 820.665 L 944.807 820.665 L 946.296 820.665 L 947.427 820.665 L 948.556 820.665 L 949.686 820.665 L 950.868 820.665 L 951.843 820.665 L 953.282 820.665 L 954.258 820.665 L 955.233 820.665 L 956.209 820.665 L 957.237 820.665 L 958.213 820.665 L 959.343 820.665 L 960.165 820.665 L 960.986 820.665 L 961.603 820.665 L 962.271 820.665 L 962.784 820.665 L 963.554 820.665 L 964.068 820.665 L 964.736 820.665 L 965.198 820.665 L 965.712 820.665 L 966.174 820.665 L 966.996 820.665 L 967.509 820.665 L 967.971 820.665 L 968.485 820.665 L 969.102 820.665 L 969.615 820.665 L 970.283 820.665 L 970.745 820.665 L 971.104 820.665 L 971.567 820.665 L 972.081 820.665 L 972.388 820.665 L 972.851 820.665 L 973.210 820.665 L 973.673 820.665 L 974.032 820.665 L 974.340 820.665 L 974.854 820.665 L 975.316 820.665 L 975.830 820.665 L 976.292 820.665 L 976.806 820.665 L 977.422 820.665 L 977.936 820.665 L 978.604 820.665 L 979.220 820.665 L 979.734 820.665 L 980.401 820.665 L 981.017 820.665 L 981.686 820.665 L 982.507 820.665 L 983.175 820.665 L 983.792 820.665 L 984.613 820.665 L 985.281 820.665 L 986.103 820.665 L 986.770 820.665 L 987.541 820.665 L 988.208 820.665 L 988.876 820.665 L 989.339 820.665 L 990.006 820.665 L 990.520 820.665 L 990.982 820.665 L 991.290 820.665 L 991.650 820.665 L 991.958 820.665 L 992.317 820.665 L 992.471 820.665 L 992.780 820.665 L 992.934 820.665 L 993.088 820.665 L 993.293 820.665 L 993.447 820.665 L 993.601 820.665 L 993.755 820.665 L 993.910 820.665 L 994.064 820.665 L 994.270 820.665 L 994.577 820.665 L 994.732 820.665 L 994.886 820.665 L 995.091 820.665 L 995.245 820.665 L 995.399 820.665 L 995.553 820.665 L 995.708 820.665 L 995.862 820.665 L 996.067 820.665 L 996.221 820.665 L 996.375 820.665 L 996.529 820.665 L 996.683 820.665 L 997.043 820.665 L 997.197 820.665 L 997.505 820.665 L 997.865 820.665 L 998.019 820.665 L 998.327 820.665 L 998.635 820.665 L 998.995 820.665 L 999.302 820.665 L 999.611 820.665 L 999.971 820.665 L 1000.433 820.665 L 1000.947 820.665 L 1001.408 820.665 L 1001.922 820.665 L 1002.590 820.665 L 1003.206 820.665 L 1003.874 820.665 L 1004.696 820.665 L 1005.518 820.665 L 1006.340 820.665 L 1007.315 820.665 L 1008.137 820.665 L 1009.113 820.665 L 1009.935 820.665 L 1010.911 820.665 L 1011.887 820.665 L 1012.863 820.665 L 1013.684 820.665 L 1014.506 820.665 L 1015.277 820.665 L 1015.944 820.665 L 1016.766 820.665 L 1017.434 820.665 L 1018.050 820.665 L 1018.564 820.665 L 1019.078 820.665 L 1019.540 820.665 L 1020.208 820.665 L 1020.670 820.665 L 1021.030 820.665 L 1021.491 820.665 L 1022.005 820.665 L 1022.467 820.665 L 1022.981 820.665 L 1023.443 820.665 L 1023.957 820.665 L 1024.625 820.665 L 1025.087 820.665 L 1025.601 820.665 L 1026.217 820.665 L 1026.885 820.665 L 1027.398 820.665 L 1028.015 820.665 L 1028.528 820.665 L 1028.991 820.665 L 1029.658 820.665 L 1030.172 820.665 L 1030.634 820.665 L 1031.147 820.665 L 1031.610 820.665 L 1032.124 820.665 L 1032.586 820.665 L 1033.100 820.665 L 1033.562 820.665 L 1034.229 820.665 L 1034.692 820.665 L 1035.205 820.665 L 1036.027 820.665 L 1036.490 820.665 L 1037.157 820.665 L 1037.825 820.665 L 1038.646 820.665 L 1039.263 820.665 L 1040.239 820.665 L 1040.907 820.665 L 1041.728 820.665 L 1042.550 820.665 L 1043.372 820.665 L 1044.194 820.665 L 1045.170 820.665 L 1045.992 820.665 L 1046.968 820.665 L 1047.789 820.665 L 1048.560 820.665 L 1049.587 820.665 L 1050.717 820.665 L 1051.539 820.665 L 1052.515 820.665 L 1053.336 820.665 L 1054.158 820.665 L 1055.134 820.665 L 1056.110 820.665 L 1056.932 820.665 L 1057.702 820.665 L 1058.524 820.665 L 1059.346 820.665 L 1060.322 820.665 L 1060.989 820.665 L 1061.811 820.665 L 1062.633 820.665 L 1063.455 820.665 L 1064.071 820.665 L 1065.047 820.665 L 1065.869 820.665 L 1066.690 820.665 L 1067.512 820.665 L 1068.488 820.665 L 1069.310 820.665 L 1070.286 820.665 L 1071.262 820.665 L 1072.084 820.665 L 1073.060 820.665 L 1073.882 820.665 L 1074.858 820.665 L 1075.988 820.665 L 1076.809 820.665 L 1077.785 820.665 L 1078.761 820.665 L 1079.891 820.665 L 1080.867 820.665 L 1082.202 820.665 L 1083.332 820.665 L 1084.308 820.665 L 1085.438 820.665 L 1086.414 820.665 L 1087.596 820.665 L 1088.725 820.665 L 1089.701 820.665 L 1090.677 820.665 L 1091.653 820.665 L 1092.475 820.665 L 1093.451 820.665 L 1094.581 820.665 L 1095.403 820.665 L 1096.225 820.665 L 1097.046 820.665 L 1097.868 820.665 L 1098.690 820.665 L 1099.666 820.665 L 1100.488 820.665 L 1101.309 820.665 L 1101.926 820.665 L 1102.593 820.665 L 1103.107 820.665 L 1103.723 820.665 L 1104.237 820.665 L 1104.699 820.665 L 1105.058 820.665 L 1105.367 820.665 L 1105.521 820.665 L 1106.034 820.665 L 1106.343 820.665 L 1106.497 820.665 L 1106.857 820.665 L 1107.164 820.665 L 1107.473 820.665 L 1107.986 820.665 L 1108.449 820.665 L 1108.808 820.665 L 1109.116 820.665 L 1109.630 820.665 L 1110.092 820.665 L 1110.606 820.665 L 1110.914 820.665 L 1111.428 820.665 L 1111.890 820.665 L 1112.404 820.665 L 1113.020 820.665 L 1113.534 820.665 L 1114.201 820.665 L 1114.817 820.665 L 1115.486 820.665 L 1116.153 820.665 L 1116.975 820.665 L 1117.592 820.665 L 1118.259 820.665 L 1118.927 820.665 L 1119.748 820.665 L 1120.365 820.665 L 1121.341 820.665 L 1122.163 820.665 L 1122.984 820.665 L 1123.960 820.665 L 1124.936 820.665 L 1125.912 820.665 L 1127.093 820.665 L 1128.223 820.665 L 1129.199 820.665 L 1130.175 820.665 L 1131.305 820.665 L 1132.281 820.665 L 1133.411 820.665 L 1134.387 820.665 L 1135.414 820.665 L 1136.390 820.665 L 1137.366 820.665 L 1138.342 820.665 L 1139.472 820.665 L 1140.294 820.665 L 1141.269 820.665 L 1142.091 820.665 L 1142.913 820.665 L 1143.735 820.665 L 1144.865 820.665 L 1145.687 820.665 L 1146.662 820.665 L 1147.484 820.665 L 1148.460 820.665 L 1149.436 820.665 L 1150.566 820.665 L 1151.542 820.665 L 1152.364 820.665 L 1153.340 820.665 L 1154.162 820.665 L 1154.984 820.665 L 1155.959 820.665 L 1156.781 820.665 L 1157.397 820.665 L 1158.065 820.665 L 1158.579 820.665 L 1159.041 820.665 L 1159.709 820.665 L 1160.171 820.665 L 1160.685 820.665 L 1160.992 820.665 L 1161.507 820.665 L 1161.969 820.665 L 1162.482 820.665 L 1162.791 820.665 L 1163.304 820.665 L 1163.613 820.665 L 1164.126 820.665 L 1164.588 820.665 L 1164.948 820.665 L 1165.410 820.665 L 1165.718 820.665 L 1166.078 820.665 L 1166.386 820.665 L 1166.900 820.665 L 1167.208 820.665 L 1167.516 820.665 L 1167.875 820.665 L 1168.183 820.665 L 1168.492 820.665 L 1169.005 820.665 L 1169.468 820.665 L 1169.981 820.665 L 1170.495 820.665 L 1170.957 820.665 L 1171.470 820.665 L 1172.241 820.665 L 1172.909 820.665 L 1173.576 820.665 L 1174.244 820.665 L 1174.861 820.665 L 1175.529 820.665 L 1176.351 820.665 L 1177.172 820.665 L 1177.788 820.665 L 1178.302 820.665 L 1178.970 820.665 L 1179.586 820.665 L 1180.254 820.665 L 1180.767 820.665 L 1181.229 820.665 L 1181.743 820.665 L 1182.205 820.665 L 1182.719 820.665 L 1183.336 820.665 L 1183.849 820.665 L 1184.363 820.665 L 1184.825 820.665 L 1185.339 820.665 L 1185.801 820.665 L 1186.315 820.665 L 1186.777 820.665 L 1187.290 820.665 L 1187.753 820.665 L 1188.112 820.665 L 1188.574 820.665 L 1189.088 820.665 L 1189.396 820.665 L 1189.551 820.665 L 1189.910 820.665 L 1190.064 820.665 L 1190.218 820.665 L 1190.526 820.665 L 1190.680 820.665 L 1190.886 820.665 L 1191.040 820.665 L 1191.194 820.665 L 1191.348 820.665 L 1191.502 820.665 L 1191.656 820.665 L 1191.862 820.665 L 1192.478 820.665 "></path>
  </g>
  <g id="Pen" opacity="1.000">
    <path id="STROKE_8dd52fad-746f-430c-8b75-3bb12e8520cd" opacity="1.000" fill="none" stroke="#000000" stroke-width="5.209" stroke-opacity="1.000" stroke-linecap="round" stroke-linejoin="round" d="M 318.370 813.074 L 316.014 813.141 L 315.638 813.151 L 315.289 813.159 L 314.907 813.169 L 314.344 813.182 L 313.773 813.195 L 313.102 813.208 L 312.296 813.223 L 311.410 813.238 L 310.376 813.252 L 309.222 813.265 L 308.045 813.276 L 306.848 813.284 L 305.530 813.292 L 304.197 813.297 L 302.711 813.301 L 301.143 813.304 L 299.783 813.306 L 298.419 813.307 L 297.053 813.308 L 295.649 813.309 L 294.425 813.309 L 292.912 813.309 L 291.650 813.309 L 290.388 813.309 L 289.127 813.309 L 287.865 813.309 L 286.639 813.309 L 285.125 813.310 L 283.863 813.310 L 282.601 813.310 L 281.231 813.310 L 279.861 813.310 L 278.275 813.310 L 276.437 813.310 L 274.814 813.310 L 273.120 813.310 L 271.281 813.310 L 269.226 813.310 L 267.135 813.310 L 264.648 813.310 L 262.448 813.310 L 260.177 813.310 L 257.762 813.310 L 255.238 813.310 L 252.606 813.310 L 249.398 813.310 L 246.658 813.310 L 243.665 813.310 L 240.457 813.310 L 237.032 813.310 L 233.499 813.310 L 229.245 813.310 L 225.676 813.310 L 222.034 813.310 L 218.249 813.310 L 214.463 813.310 L 210.570 813.310 L 205.991 813.310 L 202.206 813.310 L 198.312 813.310 L 194.418 813.310 L 190.633 813.310 L 186.739 813.310 L 182.521 813.310 L 179.096 813.310 L 175.527 813.310 L 171.850 813.310 L 167.956 813.310 L 163.955 813.310 L 159.268 813.310 L 155.266 813.310 L 151.264 813.310 L 147.371 813.310 L 143.333 813.310 L 138.754 813.310 L 135.113 813.310 L 131.328 813.310 L 127.434 813.310 L 123.432 813.310 L 119.539 813.310 L 115.068 813.310 L 111.499 813.310 L 108.074 813.310 L 104.541 813.310 L 101.080 813.310 L 97.547 813.310 L 93.401 813.310 L 90.084 813.310 L 86.551 813.310 L 82.982 813.310 L 79.341 813.310 L 75.772 813.310 L 71.770 813.310 L 68.453 813.310 L 65.136 813.310 L 61.567 813.310 L 58.034 813.310 L 54.249 813.310 L 49.886 813.310 L 46.245 813.310 L 42.460 813.310 L 38.782 813.310 L 34.997 813.310 L 31.103 813.310 L 26.633 813.310 L 23.100 813.310 L 19.314 813.310 L 15.529 813.310 L 11.635 813.310 L 7.634 813.310 L 3.163 813.310 L -0.370 813.310 L -4.047 813.310 L -7.941 813.310 L -11.943 813.310 L -16.089 813.310 L -21.100 813.310 L -25.462 813.310 L -29.824 813.310 L -34.295 813.310 L -38.513 813.310 L -42.875 813.310 L -47.814 813.310 L -51.816 813.310 L -55.926 813.310 L -60.396 813.310 L -64.867 813.310 L -69.337 813.310 L -74.240 813.310 L -78.134 813.310 L -82.028 813.310 L -86.174 813.310 L -90.392 813.310 L -94.646 813.310 L -99.549 813.310 L -103.695 813.310 L -107.697 813.310 L -111.698 813.310 L -115.484 813.310 L -119.377 813.310 L -123.740 813.310 L -127.273 813.310 L -130.950 813.310 L -134.844 813.310 L -138.629 813.310 L -142.847 813.310 L -146.308 813.310 L -149.625 813.310 L -152.942 813.310 L -156.150 813.310 L -159.251 813.310 L -162.784 813.310 L -165.776 813.310 L -168.841 813.310 L -171.833 813.310 L -174.825 813.310 L -177.781 813.310 L -180.990 813.310 L -183.514 813.310 L -186.037 813.310 L -188.309 813.310 L -190.616 813.310 L -192.923 813.310 L -195.663 813.310 L -197.610 813.310 L -199.665 813.310 L -201.720 813.310 L -203.775 813.310 L -205.722 813.310 L -208.137 813.310 L -209.976 813.310 L -211.923 813.310 L -213.869 813.310 L -215.816 813.310 L -217.871 813.310 L -220.287 813.310 L -222.233 813.310 L -224.180 813.310 L -226.235 813.310 L -228.290 813.310 L -230.345 813.310 L -232.869 813.310 L -234.924 813.310 L -237.123 813.310 L -239.394 813.310 L -241.701 813.310 L -243.973 813.310 L -246.857 813.310 L -249.128 813.310 L -251.436 813.310 L -253.851 813.310 L -256.230 813.310 L -258.754 813.310 L -261.494 813.310 L -263.693 813.310 L -266.073 813.310 L -268.488 813.310 L -271.012 813.310 L -273.643 813.310 L -276.636 813.310 L -279.268 813.310 L -281.899 813.310 L -284.639 813.310 L -287.379 813.310 L -290.155 813.310 L -293.364 813.310 L -295.743 813.310 L -298.159 813.310 L -300.322 813.310 L -302.629 813.310 L -305.153 813.310 L -307.100 813.310 L -309.047 813.310 L -310.885 813.310 L -312.688 813.310 L -314.418 813.310 L -316.581 813.310 L -318.312 813.310 L -319.934 813.310 L -321.629 813.310 L -323.359 813.310 L -325.054 813.310 L -327.000 813.310 L -328.515 813.310 L -329.993 813.310 L -331.615 813.310 L -333.093 813.310 L -334.571 813.310 L -336.410 813.310 L -337.888 813.310 L -339.510 813.310 L -340.988 813.310 L -342.719 813.310 L -344.305 813.310 L -346.252 813.310 L -347.874 813.310 L -349.461 813.310 L -351.191 813.310 L -353.138 813.310 L -355.085 813.310 L -357.464 813.310 L -359.411 813.310 L -361.358 813.310 L -363.341 813.310 L -365.396 813.310 L -367.234 813.310 L -369.397 813.310 L -371.128 813.310 L -372.822 813.310 L -374.445 813.310 L -376.139 813.310 L -377.653 813.310 L -379.456 813.310 L -380.862 813.310 L -382.088 813.310 L -383.241 813.310 L -384.395 813.310 L -385.549 813.310 L -386.919 813.310 L -387.964 813.310 L -388.865 813.310 L -390.019 813.310 L -391.029 813.310 L -392.182 813.310 L -393.552 813.310 L -394.706 813.310 L -395.859 813.310 L -396.869 813.310 L -398.023 813.310 L -399.068 813.310 L -400.186 813.310 L -401.015 813.310 L -401.700 813.310 L -402.385 813.310 L -402.962 813.310 L -403.394 813.310 L -403.863 813.310 L -404.224 813.310 L -404.440 813.310 L -404.656 813.310 L -404.764 813.310 L -405.125 813.310 L -405.341 813.310 L -405.485 813.310 L -405.702 813.310 L -405.918 813.310 L -406.279 813.310 L -406.603 813.310 L -406.964 813.310 L -407.288 813.310 L -407.757 813.310 L -408.117 813.310 L -408.550 813.310 L -409.018 813.310 L -409.487 813.310 L -409.812 813.310 L -410.064 813.310 L -410.388 813.310 L -410.605 813.310 L -410.857 813.310 L -410.965 813.310 L -411.073 813.310 L -411.182 813.310 L -411.326 813.310 L -411.434 813.310 L -411.542 813.310 L -411.650 813.310 L -411.758 813.310 L -411.867 813.310 L -412.011 813.310 L -412.119 813.310 L -412.227 813.310 L -412.443 813.310 L -412.696 813.310 L -413.020 813.310 L -413.489 813.310 L -413.958 813.310 L -414.534 813.310 L -415.219 813.310 L -415.904 813.310 L -416.589 813.310 L -417.383 813.310 L -418.176 813.310 L -419.113 813.310 L -419.906 813.310 L -420.807 813.310 L -421.492 813.310 L -422.322 813.310 L -423.007 813.310 L -423.800 813.310 L -424.377 813.310 L -424.953 813.310 L -425.386 813.310 L -425.855 813.310 L -426.323 813.310 L -426.900 813.310 L -427.225 813.310 L -427.585 813.310 L -427.910 813.310 L -428.270 813.310 L -428.595 813.310 L -428.955 813.310 L -429.280 813.310 L -429.532 813.310 L -429.856 813.310 L -430.109 813.310 L -430.433 813.310 L -430.794 813.310 L -431.118 813.310 L -431.479 813.310 L -431.803 813.310 L -432.056 813.310 L -432.380 813.310 L -432.849 813.310 L -433.065 813.310 L -433.426 813.310 L -433.642 813.310 L -434.002 813.310 L -434.219 813.310 L -434.687 813.310 L -434.904 813.310 L -435.120 813.310 L -435.372 813.310 L -435.697 813.310 L -435.949 813.310 L -436.274 813.310 L -436.490 813.310 L -436.742 813.310 L -436.959 813.310 L -437.211 813.310 L -437.427 813.310 L -437.752 813.310 L -438.004 813.310 L -438.329 813.310 L -438.581 813.310 L -438.797 813.310 L -439.158 813.310 L -439.374 813.310 L -439.699 813.310 L -439.951 813.310 L -440.275 813.310 L -440.636 813.310 L -440.960 813.310 L -441.213 813.310 L -441.537 813.310 L -441.790 813.310 L -442.006 813.310 L -442.330 813.310 L -442.583 813.310 L -442.799 813.310 L -443.051 813.310 L -443.268 813.310 L -443.484 813.310 L -443.736 813.310 L -443.953 813.310 L -444.061 813.310 L -444.169 813.310 L -444.277 813.310 L -444.421 813.310 L -444.530 813.310 L -444.638 813.310 L -444.746 813.310 L -444.854 813.310 L -445.215 813.310 "></path>
    <path id="STROKE_9c729602-eb4f-4fd4-ba15-83eaaef6cf95" opacity="1.000" fill="none" stroke="#000000" stroke-width="5.209" stroke-opacity="1.000" stroke-linecap="round" stroke-linejoin="round" d="M -445.215 813.310 L -445.215 812.958 L -445.215 812.850 L -445.215 812.742 L -445.215 812.607 L -445.215 812.499 L -445.215 812.391 L -445.215 812.283 L -445.215 812.147 L -445.215 812.039 L -445.215 811.931 L -445.215 811.823 L -445.215 811.580 L -445.215 811.364 L -445.215 811.012 L -445.215 810.769 L -445.215 810.310 L -445.215 809.850 L -445.215 809.391 L -445.215 808.823 L -445.215 808.148 L -445.215 807.337 L -445.215 806.418 L -445.215 805.283 L -445.215 804.013 L -445.215 802.634 L -445.215 801.148 L -445.215 799.418 L -445.215 797.581 L -445.215 795.527 L -445.215 792.986 L -445.215 790.473 L -445.215 787.824 L -445.215 785.068 L -445.215 782.203 L -445.215 779.230 L -445.215 775.771 L -445.215 772.906 L -445.215 769.933 L -445.215 767.041 L -445.215 764.177 L -445.215 761.555 L -445.215 758.663 L -445.215 756.501 L -445.215 754.312 L -445.215 752.258 L -445.215 750.177 L -445.215 748.232 L -445.215 745.826 L -445.215 743.988 L -445.215 742.151 L -445.215 740.313 L -445.215 738.259 L -445.215 735.827 L -445.215 733.881 L -445.215 731.827 L -445.215 729.746 L -445.215 727.692 L -445.215 725.746 L -445.215 723.449 L -445.215 721.719 L -445.215 720.125 L -445.215 718.503 L -445.215 716.909 L -445.215 715.422 L -445.215 713.801 L -445.215 712.774 L -445.215 711.747 L -445.215 710.828 L -445.215 709.909 L -445.215 708.990 L -445.215 707.720 L -445.215 706.693 L -445.215 705.531 L -445.215 704.288 L -445.215 703.017 L -445.215 701.639 L -445.215 700.045 L -445.215 698.531 L -445.215 696.937 L -445.215 695.099 L -445.215 693.153 L -445.215 691.072 L -445.215 688.667 L -445.215 686.613 L -445.215 684.424 L -445.215 682.370 L -445.215 680.289 L -445.215 678.235 L -445.215 675.938 L -445.215 674.208 L -445.215 672.478 L -445.215 670.884 L -445.215 669.262 L -445.215 667.776 L -445.215 666.073 L -445.215 664.695 L -445.215 663.317 L -445.215 661.938 L -445.215 660.560 L -445.215 659.290 L -445.215 657.695 L -445.215 656.533 L -445.215 655.155 L -445.215 653.777 L -445.215 652.398 L -445.215 650.912 L -445.215 649.182 L -445.215 647.939 L -445.215 646.426 L -445.215 645.047 L -445.215 643.669 L -445.215 642.318 L -445.215 640.696 L -445.215 639.318 L -445.215 638.183 L -445.215 636.912 L -445.215 635.750 L -445.215 634.615 L -445.215 633.237 L -445.215 632.318 L -445.215 631.507 L -445.215 631.048 "></path>
    <path id="STROKE_c27075b2-d8f8-4b10-a0f9-2e9522208f52" opacity="1.000" fill="none" stroke="#000000" stroke-width="5.209" stroke-opacity="1.000" stroke-linecap="round" stroke-linejoin="round" d="M -444.786 628.503 L -438.260 628.503 L -435.953 628.503 L -433.573 628.503 L -430.797 628.503 L -428.058 628.503 L -425.065 628.503 L -422.109 628.503 L -418.684 628.503 L -415.692 628.503 L -412.699 628.503 L -409.743 628.503 L -406.751 628.503 L -403.650 628.503 L -400.117 628.503 L -397.017 628.503 L -393.700 628.503 L -390.023 628.503 L -386.129 628.503 L -381.442 628.503 L -377.332 628.503 L -372.970 628.503 L -368.283 628.503 L -363.344 628.503 L -358.297 628.503 L -352.348 628.503 L -347.445 628.503 L -342.506 628.503 L -337.351 628.503 L -332.412 628.503 L -327.509 628.503 L -321.668 628.503 L -316.729 628.503 L -311.574 628.503 L -306.202 628.503 L -300.722 628.503 L -295.206 628.503 L -288.897 628.503 L -283.417 628.503 L -277.685 628.503 L -271.736 628.503 L -265.788 628.503 L -260.056 628.503 L -253.747 628.503 L -248.591 628.503 L -243.328 628.503 L -237.812 628.503 L -232.548 628.503 L -227.284 628.503 L -221.696 628.503 L -217.334 628.503 L -212.972 628.503 L -208.393 628.503 L -203.598 628.503 L -198.875 628.503 L -193.612 628.503 L -189.394 628.503 L -185.032 628.503 L -180.669 628.503 L -176.199 628.503 L -171.512 628.503 L -166.032 628.503 L -161.454 628.503 L -156.875 628.503 L -152.152 628.503 L -147.466 628.503 L -142.671 628.503 L -137.046 628.503 L -132.252 628.503 L -127.096 628.503 L -121.797 628.503 L -116.533 628.503 L -111.161 628.503 L -105.213 628.503 L -99.949 628.503 L -94.000 628.503 L -87.439 628.503 L -80.805 628.503 L -74.172 628.503 L -66.493 628.503 L -59.859 628.503 L -52.865 628.503 L -45.763 628.503 L -38.661 628.503 L -31.811 628.503 L -24.024 628.503 L -17.462 628.503 L -10.829 628.503 L -4.195 628.503 L 2.222 628.503 L 9.432 628.503 L 15.489 628.503 L 21.906 628.503 L 28.215 628.503 L 34.525 628.503 L 40.581 628.503 L 47.107 628.503 L 52.623 628.503 L 58.355 628.503 L 64.195 628.503 L 70.036 628.503 L 75.624 628.503 L 81.825 628.503 L 87.088 628.503 L 92.712 628.503 L 98.300 628.503 L 103.816 628.503 L 109.188 628.503 L 114.812 628.503 L 119.283 628.503 L 123.861 628.503 L 128.440 628.503 L 133.018 628.503 L 137.128 628.503 L 141.491 628.503 L 144.916 628.503 L 148.124 628.503 L 151.117 628.503 L 154.073 628.503 L 157.065 628.503 L 160.382 628.503 L 163.122 628.503 L 165.898 628.503 L 168.746 628.503 L 171.738 628.503 L 174.478 628.503 L 177.578 628.503 L 179.958 628.503 L 182.265 628.503 L 184.428 628.503 L 186.375 628.503 L 188.214 628.503 L 190.161 628.503 L 191.422 628.503 L 192.576 628.503 L 193.477 628.503 L 194.415 628.503 L 195.208 628.503 L 196.001 628.503 L 196.578 628.503 L 197.263 628.503 L 197.948 628.503 L 198.741 628.503 L 199.534 628.503 L 200.796 628.503 L 201.841 628.503 L 202.995 628.503 L 204.257 628.503 L 205.519 628.503 L 206.636 628.503 L 208.042 628.503 L 209.160 628.503 L 210.422 628.503 L 211.576 628.503 L 212.837 628.503 L 214.315 628.503 L 215.685 628.503 L 216.947 628.503 L 218.317 628.503 L 219.723 628.503 L 221.093 628.503 L 222.679 628.503 L 224.049 628.503 L 225.564 628.503 L 227.042 628.503 L 228.628 628.503 L 230.250 628.503 L 232.197 628.503 L 233.783 628.503 L 235.622 628.503 L 237.353 628.503 L 239.191 628.503 L 241.138 628.503 L 243.301 628.503 L 245.032 628.503 L 246.834 628.503 L 248.673 628.503 L 250.512 628.503 L 252.458 628.503 L 254.766 628.503 L 256.604 628.503 L 258.407 628.503 L 260.354 628.503 L 262.301 628.503 L 264.247 628.503 L 266.555 628.503 L 268.393 628.503 L 270.340 628.503 L 272.179 628.503 L 273.981 628.503 L 275.820 628.503 L 277.767 628.503 L 279.281 628.503 L 280.651 628.503 L 281.913 628.503 L 283.175 628.503 L 284.184 628.503 L 285.554 628.503 L 286.491 628.503 L 287.285 628.503 L 288.186 628.503 L 289.015 628.503 L 289.808 628.503 L 290.962 628.503 L 291.755 628.503 L 292.548 628.503 L 293.341 628.503 L 294.026 628.503 L 294.711 628.503 L 295.396 628.503 L 295.865 628.503 L 296.334 628.503 L 296.658 628.503 L 296.910 628.503 L 297.235 628.503 L 297.595 628.503 L 297.703 628.503 L 297.812 628.503 L 298.028 628.503 L 298.172 628.503 L 298.280 628.503 L 298.497 628.503 L 298.749 628.503 L 299.074 628.503 L 299.434 628.503 L 299.758 628.503 L 300.335 628.503 L 300.804 628.503 L 301.381 628.503 L 301.958 628.503 L 302.498 628.503 L 303.183 628.503 L 304.013 628.503 L 304.589 628.503 L 305.274 628.503 L 305.851 628.503 L 306.392 628.503 L 306.969 628.503 L 307.438 628.503 L 307.906 628.503 L 308.122 628.503 L 308.339 628.503 L 308.483 628.503 L 308.591 628.503 L 308.699 628.503 L 308.807 628.503 L 308.916 628.503 L 309.024 628.503 L 309.276 628.503 L 309.492 628.503 L 309.853 628.503 L 310.069 628.503 L 310.430 628.503 L 310.754 628.503 L 310.971 628.503 L 311.331 628.503 L 311.692 628.503 L 311.908 628.503 L 312.232 628.503 L 312.593 628.503 L 312.917 628.503 L 313.170 628.503 L 313.494 628.503 L 313.639 628.503 L 313.747 628.503 L 313.855 628.503 L 313.963 628.503 L 314.071 628.503 L 314.179 628.503 L 314.323 628.503 L 314.432 628.503 L 314.540 628.503 L 314.648 628.503 L 314.756 628.503 L 314.864 628.503 L 315.008 628.503 L 315.117 628.503 L 315.225 628.503 L 315.333 628.503 L 315.441 628.503 L 315.585 628.503 L 315.693 628.503 L 315.802 628.503 L 315.910 628.503 L 316.018 628.503 L 316.126 628.503 L 316.270 628.503 L 316.378 628.503 L 316.487 628.503 L 316.595 628.503 L 316.703 628.503 L 316.811 628.503 L 316.955 628.503 L 317.063 628.503 L 317.172 628.503 L 317.280 628.503 L 317.388 628.503 L 317.857 628.503 "></path>
    <path id="STROKE_d236c3de-573e-497e-b8af-f21088b743ef" opacity="1.000" fill="none" stroke="#000000" stroke-width="5.209" stroke-opacity="1.000" stroke-linecap="round" stroke-linejoin="round" d="M 317.857 628.503 L 317.857 634.584 L 317.857 635.503 L 317.857 636.557 L 317.857 637.692 L 317.857 638.962 L 317.857 640.232 L 317.857 641.584 L 317.857 643.205 L 317.857 644.800 L 317.857 646.421 L 317.857 648.151 L 317.857 649.962 L 317.857 651.935 L 317.857 653.989 L 317.857 655.826 L 317.857 657.664 L 317.857 659.502 L 317.857 661.340 L 317.857 663.069 L 317.857 665.123 L 317.857 666.718 L 317.857 668.339 L 317.857 669.934 L 317.857 671.555 L 317.857 673.042 L 317.857 674.988 L 317.857 676.366 L 317.857 677.852 L 317.857 679.231 L 317.857 680.609 L 317.857 682.339 L 317.857 683.609 L 317.857 684.852 L 317.857 686.122 L 317.857 687.284 L 317.857 688.527 L 317.857 690.014 L 317.857 691.176 L 317.857 692.203 L 317.857 693.365 L 317.857 694.500 L 317.857 695.770 L 317.857 697.149 L 317.857 698.284 L 317.857 699.446 L 317.857 700.473 L 317.857 701.608 L 317.857 702.662 L 317.857 703.905 L 317.857 704.959 L 317.857 705.986 L 317.857 706.905 L 317.857 707.824 L 317.857 708.743 L 317.857 709.878 L 317.857 710.797 L 317.857 711.716 L 317.857 712.526 L 317.857 713.445 L 317.857 714.364 L 317.857 715.499 L 317.857 716.418 L 317.857 717.337 L 317.857 718.364 L 317.857 719.418 L 317.857 720.445 L 317.857 721.715 L 317.857 722.850 L 317.857 723.877 L 317.857 725.039 L 317.857 726.282 L 317.857 727.444 L 317.857 728.931 L 317.857 730.066 L 317.857 731.336 L 317.857 732.498 L 317.857 733.633 L 317.857 734.660 L 317.857 736.039 L 317.857 737.093 L 317.857 738.012 L 317.857 739.039 L 317.857 739.957 L 317.857 740.876 L 317.857 742.011 L 317.857 742.822 L 317.857 743.741 L 317.857 744.552 L 317.857 745.471 L 317.857 746.254 L 317.857 747.281 L 317.857 748.200 L 317.857 749.119 L 317.857 750.038 L 317.857 750.957 L 317.857 751.876 L 317.857 753.038 L 317.857 753.957 L 317.857 754.876 L 317.857 755.794 L 317.857 756.713 L 317.857 757.740 L 317.857 758.551 L 317.857 759.470 L 317.857 760.254 L 317.857 761.065 L 317.857 761.983 L 317.857 763.010 L 317.857 763.821 L 317.857 764.632 L 317.857 765.551 L 317.857 766.335 L 317.857 767.145 L 317.857 768.172 L 317.857 768.983 L 317.857 769.794 L 317.857 770.469 L 317.857 771.280 L 317.857 771.956 L 317.857 772.767 L 317.857 773.334 L 317.857 773.794 L 317.857 774.388 L 317.857 774.848 L 317.857 775.172 L 317.857 775.766 L 317.857 775.983 L 317.857 776.442 L 317.857 776.793 L 317.857 777.253 L 317.857 777.712 L 317.857 778.280 L 317.857 778.739 L 317.857 779.199 L 317.857 779.766 L 317.857 780.334 L 317.857 781.036 L 317.857 781.847 L 317.857 782.415 L 317.857 783.090 L 317.857 783.793 L 317.857 784.361 L 317.857 785.063 L 317.857 785.739 L 317.857 786.307 L 317.857 786.766 L 317.857 787.225 L 317.857 787.685 L 317.857 788.144 L 317.857 788.604 L 317.857 788.955 L 317.857 789.306 L 317.857 789.631 L 317.857 789.982 L 317.857 790.333 L 317.857 790.793 L 317.857 791.009 L 317.857 791.360 L 317.857 791.712 L 317.857 792.063 L 317.857 792.279 L 317.857 792.739 L 317.857 792.982 L 317.857 793.306 L 317.857 793.549 L 317.857 793.901 L 317.857 794.117 L 317.857 794.468 L 317.857 794.685 L 317.857 794.928 L 317.857 795.252 L 317.857 795.603 L 317.857 796.063 L 317.857 796.414 L 317.857 796.766 L 317.857 797.225 L 317.857 797.549 L 317.857 797.901 L 317.857 798.360 L 317.857 798.711 L 317.857 799.063 L 317.857 799.387 L 317.857 799.738 L 317.857 799.982 L 317.857 800.441 L 317.857 800.657 L 317.857 800.900 L 317.857 801.225 L 317.857 801.468 L 317.857 801.684 L 317.857 802.036 L 317.857 802.387 L 317.857 802.738 L 317.857 803.062 L 317.857 803.414 L 317.857 803.765 L 317.857 804.225 L 317.857 804.549 L 317.857 804.792 L 317.857 805.143 L 317.857 805.468 L 317.857 805.711 L 317.857 806.062 L 317.857 806.279 L 317.857 806.522 L 317.857 806.846 L 317.857 806.981 L 317.857 807.197 L 317.857 807.549 L 317.857 807.657 L 317.857 807.765 L 317.857 808.008 L 317.857 808.116 L 317.857 808.224 L 317.857 808.359 L 317.857 808.468 L 317.857 808.576 L 317.857 808.684 L 317.857 808.819 L 317.857 808.927 L 317.857 809.035 L 317.857 809.143 L 317.857 809.278 L 317.857 809.386 L 317.857 809.495 L 317.857 809.603 L 317.857 809.738 L 317.857 809.846 L 317.857 809.954 L 317.857 810.062 L 317.857 810.197 L 317.857 810.305 L 317.857 810.413 L 317.857 810.522 L 317.857 810.657 L 317.857 810.765 "></path>
  </g>
  <g id="New_Layer_2" opacity="1.000">
    <path id="STROKE_01bdfcd1-fe90-4d13-9301-3a6edd232b62" opacity="1.000" fill="#d3dbdc" stroke="#d3dbdc" stroke-width="0.500" stroke-opacity="1.000" stroke-linecap="round" stroke-linejoin="round" d="M 251.817 619.073 L 251.922 618.859 Q 252.005 618.657 252.582 615.817 Q 253.160 612.976 253.369 611.430 Q 253.579 609.884 253.631 609.421 Q 253.684 608.959 253.838 607.678 Q 253.991 606.397 254.070 605.694 Q 254.150 604.990 254.296 603.776 Q 254.443 602.561 254.519 601.894 Q 254.594 601.227 254.710 600.287 Q 254.825 599.347 254.874 599.022 Q 254.923 598.696 255.031 597.878 Q 255.139 597.060 255.231 596.366 Q 255.323 595.672 255.502 594.684 Q 255.682 593.695 255.791 593.220 Q 255.901 592.744 255.994 592.419 Q 256.086 592.095 256.263 591.644 Q 256.440 591.194 257.114 589.961 Q 257.789 588.728 258.155 588.245 Q 258.521 587.761 259.040 587.208 Q 259.558 586.656 260.495 585.807 Q 261.431 584.958 262.126 584.401 Q 262.820 583.843 263.195 583.568 Q 263.569 583.293 263.680 583.209 Q 263.791 583.126 264.380 582.710 Q 264.968 582.295 265.339 582.044 Q 265.709 581.794 266.521 581.281 Q 267.334 580.767 267.802 580.470 Q 268.270 580.173 268.675 579.917 Q 269.080 579.661 269.550 579.373 Q 270.021 579.085 270.404 578.854 Q 270.788 578.623 271.494 578.235 Q 272.201 577.847 272.898 577.480 Q 273.596 577.112 274.296 576.788 Q 274.997 576.463 275.356 576.305 Q 275.716 576.147 276.404 575.891 Q 277.091 575.635 277.497 575.516 Q 277.903 575.396 278.814 575.198 Q 279.726 574.999 280.050 574.947 Q 280.373 574.894 280.844 574.836 Q 281.314 574.777 282.340 574.699 Q 283.365 574.622 284.892 574.530 Q 286.420 574.438 287.881 574.424 Q 289.342 574.409 290.030 574.434 Q 290.718 574.459 292.457 574.514 Q 294.196 574.569 296.926 574.767 Q 299.657 574.965 302.153 575.297 Q 304.649 575.628 306.815 576.030 Q 308.982 576.432 310.032 576.637 Q 311.082 576.842 311.963 577.019 Q 312.843 577.196 314.192 577.461 Q 315.540 577.726 316.716 577.932 Q 317.891 578.138 319.049 578.298 Q 320.206 578.459 322.023 578.649 Q 323.840 578.839 327.341 579.170 Q 330.841 579.501 332.571 579.698 Q 334.301 579.894 335.404 580.064 Q 336.507 580.234 338.789 580.606 Q 341.070 580.978 342.626 581.172 Q 344.182 581.367 346.166 581.590 Q 348.151 581.814 349.320 581.933 Q 350.489 582.053 352.755 582.194 Q 355.021 582.334 356.159 582.359 Q 357.297 582.384 358.740 582.453 Q 360.182 582.522 362.047 582.694 Q 363.912 582.865 366.071 583.226 Q 368.231 583.587 369.163 583.760 Q 370.095 583.933 371.147 584.107 Q 372.199 584.282 373.289 584.463 Q 374.379 584.645 375.794 584.837 Q 377.209 585.029 379.338 585.226 Q 381.467 585.423 382.720 585.491 Q 383.972 585.559 385.606 585.587 Q 387.240 585.615 389.915 585.813 Q 392.590 586.012 394.128 586.211 Q 395.665 586.411 396.793 586.560 Q 397.921 586.709 398.536 586.776 Q 399.152 586.844 399.703 586.906 Q 400.253 586.969 402.260 587.144 Q 404.267 587.319 407.743 587.528 Q 411.219 587.737 412.974 587.858 Q 414.730 587.979 415.901 588.065 Q 417.072 588.151 417.894 588.200 Q 418.716 588.249 419.559 588.282 Q 420.403 588.314 422.246 588.416 Q 424.088 588.517 425.906 588.688 Q 427.725 588.860 429.089 589.035 Q 430.453 589.210 432.398 589.499 Q 434.343 589.787 438.199 590.156 Q 442.056 590.526 444.140 590.655 Q 446.224 590.784 447.461 590.795 Q 448.699 590.806 450.471 590.797 Q 452.243 590.787 454.932 590.852 Q 457.620 590.917 459.049 590.983 Q 460.479 591.049 461.254 591.090 Q 462.028 591.131 463.261 591.248 Q 464.493 591.365 465.707 591.515 Q 466.921 591.666 468.258 591.888 Q 469.595 592.110 470.486 592.307 Q 471.377 592.505 473.994 593.020 Q 476.610 593.536 479.174 593.859 Q 481.738 594.182 482.957 594.289 Q 484.177 594.397 484.708 594.435 Q 485.239 594.473 491.798 594.874 Q 498.356 595.274 499.356 595.312 Q 500.356 595.350 501.200 595.371 Q 502.044 595.393 502.803 595.420 Q 503.561 595.447 505.557 595.526 Q 507.553 595.606 510.701 595.822 Q 513.849 596.037 515.432 596.156 Q 517.015 596.275 518.011 596.330 Q 519.007 596.385 520.279 596.463 Q 521.551 596.542 523.790 596.692 Q 526.029 596.842 527.248 596.900 Q 528.466 596.959 529.981 597.040 Q 531.496 597.121 533.095 597.250 Q 534.695 597.379 536.070 597.505 Q 537.446 597.631 538.509 597.730 Q 539.573 597.829 542.044 598.075 Q 544.515 598.320 546.799 598.476 Q 549.083 598.632 550.342 598.691 Q 551.600 598.750 555.025 598.966 Q 558.449 599.182 560.288 599.303 Q 562.128 599.424 563.121 599.506 Q 564.114 599.588 565.353 599.667 Q 566.592 599.746 567.310 599.801 Q 568.028 599.856 569.586 600.013 Q 571.143 600.170 571.555 600.221 Q 571.968 600.271 572.184 600.309 Q 572.400 600.347 575.462 600.689 Q 578.524 601.030 580.138 601.205 Q 581.752 601.380 583.127 601.621 Q 584.503 601.861 584.525 601.865 Q 584.547 601.868 585.210 602.097 Q 585.873 602.326 586.221 602.495 Q 586.569 602.664 587.076 603.011 Q 587.860 603.854 588.012 604.104 Q 588.165 604.353 588.250 604.555 Q 588.336 604.756 588.511 607.251 Q 588.686 609.746 588.602 610.568 Q 588.518 611.390 588.493 611.509 Q 588.468 611.628 588.306 612.267 Q 588.145 612.905 588.089 613.073 Q 588.033 613.241 587.814 613.637 Q 587.595 614.032 587.425 614.182 Q 587.256 614.332 587.006 614.477 Q 586.756 614.622 586.612 614.683 Q 586.468 614.745 585.897 614.924 Q 585.325 615.104 585.022 615.159 Q 584.719 615.214 584.312 615.242 Q 583.905 615.270 583.611 615.262 Q 583.318 615.253 583.266 615.251 Q 583.215 615.249 582.263 615.197 Q 581.310 615.145 579.524 615.232 Q 577.738 615.319 577.447 615.414 Q 577.157 615.510 576.907 615.646 Q 576.658 615.783 576.314 616.113 L 575.756 617.001 Q 574.604 620.725 574.276 621.726 Q 574.213 621.841 574.039 622.167 Q 573.865 622.492 573.688 622.729 Q 573.511 622.966 573.345 623.132 Q 573.179 623.297 572.985 623.423 Q 572.790 623.549 572.593 623.644 Q 572.397 623.740 571.742 623.925 Q 571.087 624.109 569.968 624.285 Q 568.849 624.461 568.670 624.483 Q 568.492 624.504 567.329 624.534 Q 566.167 624.564 564.650 624.564 Q 563.134 624.563 562.806 624.579 Q 562.478 624.595 561.484 624.719 Q 560.490 624.843 560.449 624.847 Q 560.409 624.852 559.487 625.174 Q 558.565 625.497 557.764 626.050 Q 557.705 626.089 557.500 626.407 Q 557.296 626.726 557.039 627.386 Q 556.783 628.046 556.704 628.318 Q 556.625 628.591 556.554 628.974 Q 556.484 629.356 556.334 630.046 Q 556.184 630.736 556.072 631.144 Q 555.959 631.551 555.821 631.943 Q 555.683 632.334 555.449 632.773 Q 555.214 633.212 554.887 633.612 L 554.520 633.891 L 553.253 634.369 Q 553.140 634.391 552.561 634.511 Q 551.982 634.631 551.260 634.718 Q 550.539 634.805 550.390 634.821 Q 550.240 634.838 548.707 634.907 Q 547.173 634.976 546.151 635.024 Q 545.130 635.072 544.299 635.147 Q 543.468 635.221 542.873 635.351 Q 542.278 635.481 542.165 635.519 Q 542.051 635.558 541.581 635.811 Q 541.110 636.063 540.740 636.351 Q 540.128 637.031 540.089 637.092 Q 540.049 637.153 539.755 637.680 Q 539.460 638.208 539.159 638.940 Q 538.857 639.672 538.844 639.692 Q 538.831 639.713 538.630 640.440 Q 538.430 641.167 538.268 641.931 Q 538.106 642.695 537.967 643.445 Q 537.827 644.196 537.639 645.054 Q 537.450 645.912 537.342 646.416 Q 537.234 646.921 537.175 647.251 Q 537.116 647.581 537.100 647.733 "></path>
  </g>
  <g id="New_Layer_9" opacity="1.000">
    <path id="STROKE_e0dbf271-17e9-475e-bf8d-a558396c6b01" opacity="1.000" fill="#a2afb8" stroke="#a2afb8" stroke-width="0.500" stroke-opacity="1.000" stroke-linecap="round" stroke-linejoin="round" d="M 534.064 817.934 Q 534.082 817.516 534.125 817.133 Q 534.167 816.750 534.298 815.732 Q 534.428 814.714 534.451 814.514 Q 534.474 814.313 534.595 813.404 Q 534.715 812.495 534.791 811.447 Q 534.866 810.399 534.865 809.539 Q 534.864 808.680 534.868 807.984 Q 534.871 807.289 534.903 805.544 Q 534.934 803.799 534.934 803.141 Q 534.935 802.482 534.818 801.373 Q 534.700 800.264 534.617 799.308 Q 534.533 798.352 534.459 796.389 Q 534.385 794.427 534.361 792.919 Q 534.337 791.410 534.297 789.864 Q 534.257 788.318 534.316 785.760 Q 534.375 783.201 534.487 781.807 Q 534.599 780.413 534.527 778.131 Q 534.456 775.850 534.372 774.800 Q 534.287 773.750 534.235 771.878 Q 534.182 770.006 534.276 768.277 Q 534.369 766.547 534.524 764.754 Q 534.680 762.961 534.786 760.526 Q 534.892 758.091 534.860 756.166 Q 534.828 754.240 534.832 752.119 Q 534.836 749.997 534.731 748.269 Q 534.627 746.541 534.534 745.656 Q 534.441 744.770 534.333 744.036 Q 534.225 743.302 534.219 743.245 Q 534.213 743.189 534.141 742.769 Q 534.069 742.350 533.918 741.138 Q 533.768 739.925 533.723 738.821 Q 533.679 737.717 533.723 736.479 Q 533.766 735.241 533.844 734.170 Q 533.921 733.099 533.993 730.470 Q 534.066 727.840 533.994 726.032 Q 533.922 724.223 533.686 722.544 Q 533.450 720.865 533.242 718.970 Q 533.033 717.076 532.990 716.129 Q 532.947 715.182 532.942 711.857 Q 532.937 708.531 532.984 706.004 Q 533.032 703.478 533.082 702.274 Q 533.133 701.070 533.495 698.108 Q 533.856 695.145 534.041 693.527 Q 534.225 691.908 534.300 690.993 Q 534.374 690.077 534.250 687.630 Q 534.127 685.182 534.000 683.681 Q 533.872 682.181 533.892 680.627 Q 533.912 679.074 533.981 677.745 Q 534.049 676.416 534.073 675.730 Q 534.096 675.044 534.155 673.933 Q 534.214 672.822 534.243 671.740 Q 534.271 670.658 534.263 669.120 Q 534.254 667.583 534.212 666.491 Q 534.170 665.398 534.136 664.859 Q 534.102 664.319 533.964 662.840 Q 533.826 661.362 533.815 660.285 Q 533.805 659.208 533.886 658.601 Q 533.967 657.995 534.109 657.526 Q 534.251 657.056 534.397 656.727 Q 534.543 656.399 534.662 656.227 Q 534.781 656.056 534.998 655.803 Q 535.214 655.550 535.542 655.233 Q 535.871 654.916 536.069 654.771 Q 536.267 654.627 537.729 653.982 Q 539.191 653.338 540.468 653.080 Q 541.744 652.823 542.350 652.736 Q 542.956 652.649 543.751 652.491 Q 544.546 652.334 545.353 652.065 Q 546.160 651.796 546.556 651.565 Q 546.951 651.333 547.312 650.937 Q 547.674 650.541 547.891 649.929 L 547.901 649.775 L 547.949 649.489 L 548.020 648.913 Q 548.017 648.294 548.016 648.014 Q 548.014 647.734 547.971 647.218 Q 547.928 646.702 547.949 646.133 Q 547.970 645.564 548.050 645.061 Q 548.131 644.558 548.283 644.082 Q 548.435 643.606 548.473 643.505 Q 548.510 643.403 548.878 642.879 Q 549.246 642.354 549.538 642.102 Q 549.829 641.849 550.052 641.730 Q 550.274 641.611 550.494 641.542 Q 550.714 641.474 550.773 641.430 Q 550.831 641.387 552.756 641.129 Q 554.681 640.871 554.843 640.863 Q 555.005 640.855 556.294 640.741 Q 557.583 640.628 558.713 640.347 Q 559.842 640.067 561.385 639.220 Q 561.550 638.925 562.312 637.064 Q 563.073 635.204 563.361 634.153 Q 563.649 633.103 564.837 630.173 Q 565.062 629.979 565.235 629.821 Q 565.408 629.664 565.845 629.441 Q 566.282 629.218 567.067 628.983 Q 567.851 628.748 567.978 628.723 Q 568.104 628.699 568.766 628.570 Q 569.427 628.442 570.061 628.302 Q 570.696 628.163 570.832 628.124 Q 570.968 628.086 571.977 627.689 Q 572.985 627.292 573.546 626.906 Q 574.106 626.520 574.391 626.252 Q 574.676 625.983 574.784 625.862 Q 574.891 625.741 575.101 625.438 Q 575.311 625.135 575.427 624.912 Q 575.544 624.688 575.901 623.304 Q 576.257 621.919 576.387 621.261 Q 576.517 620.603 576.586 620.289 Q 576.656 619.974 576.752 619.590 Q 576.848 619.205 576.985 618.770 L 577.080 618.541 Q 577.266 618.257 577.348 618.115 Q 577.431 617.973 577.854 617.607 Q 578.276 617.241 578.699 617.005 Q 579.122 616.769 579.543 616.612 Q 579.963 616.456 580.718 616.252 Q 581.472 616.048 582.352 615.875 Q 583.231 615.702 583.764 615.603 Q 584.296 615.503 584.708 615.405 Q 585.120 615.308 585.690 615.107 Q 586.260 614.907 586.517 614.804 Q 586.773 614.702 587.307 614.404 L 587.936 613.735 Q 588.109 613.513 588.705 611.976 Q 589.300 610.440 589.422 609.926 Q 589.545 609.413 589.839 608.175 Q 590.134 606.937 590.381 606.279 Q 590.628 605.622 590.896 605.178 Q 591.163 604.734 592.185 603.813 Q 592.439 603.739 593.301 603.526 Q 594.164 603.312 595.797 603.148 Q 597.430 602.984 598.209 602.909 Q 598.988 602.834 599.424 602.786 Q 599.859 602.738 601.589 602.158 Q 603.319 601.578 603.414 601.511 Q 603.508 601.443 604.151 600.784 L 604.421 600.000 Q 604.459 599.938 604.523 599.039 Q 604.587 598.140 604.529 597.570 Q 604.471 597.000 604.435 596.723 Q 604.399 596.445 604.389 596.399 Q 604.379 596.353 604.215 594.935 Q 604.051 593.517 604.055 593.168 Q 604.058 592.820 604.110 592.436 Q 604.161 592.053 604.164 592.024 Q 604.166 591.996 604.310 591.464 Q 604.455 590.933 604.687 590.518 Q 604.918 590.102 605.067 589.927 Q 605.216 589.751 605.269 589.702 Q 605.322 589.652 605.904 589.349 Q 606.486 589.046 607.477 588.883 Q 608.468 588.721 608.965 588.725 Q 609.462 588.730 610.028 588.781 Q 610.594 588.833 610.885 588.869 Q 611.176 588.905 611.260 588.913 Q 611.343 588.921 612.140 588.975 Q 612.937 589.029 613.635 588.980 Q 614.333 588.931 614.678 588.861 Q 615.023 588.791 615.388 588.639 Q 615.754 588.486 615.997 588.335 Q 616.240 588.184 616.444 587.969 Q 616.648 587.754 616.937 587.295 Q 617.226 586.835 617.488 586.165 Q 617.750 585.495 617.880 584.964 Q 618.010 584.432 618.033 584.280 Q 618.056 584.128 618.186 583.193 Q 618.315 582.258 618.424 580.990 Q 618.532 579.722 618.599 578.901 Q 618.666 578.080 618.685 578.025 Q 618.704 577.971 618.791 577.416 Q 618.878 576.861 619.182 575.962 Q 619.795 575.570 620.271 575.371 Q 620.747 575.173 622.505 574.925 Q 624.262 574.677 624.696 574.644 Q 625.129 574.611 625.976 574.506 Q 626.823 574.400 627.582 574.273 Q 628.340 574.147 629.280 573.858 Q 630.219 573.570 630.447 573.452 Q 630.675 573.334 630.901 573.161 Q 631.127 572.988 631.250 572.866 Q 631.373 572.744 631.522 572.545 Q 631.671 572.347 631.873 571.983 Q 632.076 571.620 632.318 570.905 Q 632.561 570.191 632.686 569.380 Q 632.811 568.569 632.840 568.061 Q 632.869 567.552 632.865 566.999 Q 632.860 566.447 632.870 565.933 Q 632.879 565.420 633.067 564.467 Q 633.255 563.514 633.477 562.935 L 633.602 562.700 Q 633.921 562.313 634.440 561.903 Q 634.958 561.492 635.692 561.185 Q 636.426 560.878 636.858 560.789 Q 637.289 560.700 637.684 560.675 Q 638.078 560.650 638.399 560.659 Q 638.719 560.667 639.583 560.754 Q 640.446 560.842 641.442 561.122 Q 642.437 561.401 642.880 561.605 Q 643.324 561.808 643.503 561.939 Q 643.682 562.070 644.156 562.647 Q 644.630 563.224 644.662 563.256 Q 644.695 563.289 645.197 564.363 Q 645.699 565.437 645.946 566.223 Q 646.194 567.009 646.463 568.266 Q 646.731 569.522 646.925 571.394 Q 647.119 573.266 647.190 575.030 Q 647.261 576.793 647.234 579.509 Q 647.206 582.225 647.151 583.618 Q 647.096 585.012 646.903 586.877 Q 646.709 588.743 646.489 590.619 Q 646.268 592.496 646.116 593.509 Q 645.964 594.523 645.849 595.176 Q 645.734 595.830 645.547 597.058 Q 645.360 598.286 645.213 600.224 Q 645.065 602.163 644.936 604.571 Q 644.807 606.979 644.757 608.636 Q 644.707 610.293 644.692 612.057 Q 644.676 613.822 644.678 614.660 Q 644.681 615.498 644.757 617.315 Q 644.833 619.132 644.897 620.190 Q 644.961 621.247 644.982 621.762 Q 645.004 622.276 645.023 624.043 Q 645.042 625.809 645.067 628.999 Q 645.093 632.188 645.125 635.024 Q 645.157 637.860 645.207 640.342 Q 645.258 642.824 645.325 644.608 Q 645.393 646.392 645.500 648.021 Q 645.607 649.651 645.679 650.558 Q 645.751 651.465 645.816 651.945 Q 645.880 652.425 646.006 653.982 Q 646.131 655.538 646.181 656.521 Q 646.230 657.504 646.331 659.055 Q 646.431 660.606 646.594 662.342 Q 646.756 664.079 646.969 666.521 Q 647.181 668.963 647.299 670.904 Q 647.417 672.845 647.547 675.002 Q 647.676 677.160 647.746 678.497 Q 647.816 679.833 647.871 680.534 Q 647.927 681.235 648.147 683.764 Q 648.367 686.293 648.430 687.932 Q 648.494 689.571 648.498 690.243 Q 648.503 690.916 648.489 692.727 Q 648.476 694.538 648.333 696.495 Q 648.191 698.451 648.093 699.513 Q 647.995 700.574 647.997 702.326 Q 648.000 704.078 648.106 705.294 Q 648.212 706.510 648.334 708.097 Q 648.456 709.684 648.477 712.453 Q 648.498 715.222 648.459 716.850 Q 648.420 718.478 648.291 719.881 Q 648.161 721.284 648.087 722.317 Q 648.012 723.350 647.975 724.233 Q 647.938 725.117 647.778 726.882 Q 647.619 728.646 647.444 730.120 Q 647.270 731.595 647.183 732.748 Q 647.096 733.902 647.077 734.408 Q 647.057 734.914 647.006 736.630 Q 646.955 738.347 646.973 739.713 Q 646.991 741.079 647.142 743.219 Q 647.293 745.359 647.380 746.301 Q 647.466 747.242 647.605 748.767 Q 647.744 750.292 647.835 752.180 Q 647.925 754.068 647.984 755.357 Q 648.043 756.647 648.069 757.756 Q 648.094 758.866 648.117 759.488 Q 648.139 760.110 648.223 761.572 Q 648.307 763.034 648.418 765.173 Q 648.529 767.312 648.562 768.432 Q 648.594 769.552 648.631 770.286 Q 648.668 771.020 648.681 773.022 Q 648.695 775.023 648.668 777.093 Q 648.641 779.163 648.614 779.720 Q 648.587 780.276 648.556 780.921 Q 648.525 781.565 648.519 781.875 Q 648.512 782.185 648.487 782.643 Q 648.462 783.100 648.432 783.441 Q 648.402 783.781 648.354 785.353 Q 648.307 786.925 648.359 787.308 Q 648.412 787.691 648.493 787.989 Q 648.575 788.286 648.643 788.482 Q 648.710 788.678 648.836 788.979 Q 648.961 789.279 649.050 789.508 Q 649.140 789.738 649.379 790.424 Q 649.617 791.110 649.656 791.225 Q 649.696 791.341 649.871 791.754 Q 650.045 792.167 650.395 792.913 Q 650.745 793.660 651.109 794.328 Q 651.473 794.996 651.694 795.380 Q 651.915 795.765 652.294 796.345 Q 652.672 796.924 652.953 797.338 Q 653.233 797.752 653.839 798.639 Q 654.446 799.527 654.657 799.808 Q 654.867 800.090 655.403 800.813 Q 655.939 801.536 656.381 802.160 Q 656.823 802.783 657.217 803.366 Q 657.611 803.948 657.873 804.362 Q 658.135 804.775 658.423 805.273 Q 658.712 805.771 658.822 805.979 Q 658.933 806.188 659.157 806.595 Q 659.381 807.003 659.559 807.335 Q 659.737 807.667 660.045 808.305 Q 660.352 808.943 660.685 809.757 Q 661.018 810.572 661.149 811.006 Q 661.281 811.440 661.449 812.166 Q 661.617 812.891 661.923 813.763 Q 659.919 813.830 657.919 813.896 Q 655.918 813.961 653.920 814.026 Q 651.922 814.092 649.924 814.157 Q 647.927 814.222 645.929 814.287 Q 643.931 814.352 641.934 814.417 Q 639.936 814.482 637.939 814.548 Q 635.941 814.613 633.944 814.678 Q 631.946 814.743 629.949 814.808 Q 627.951 814.873 625.954 814.938 Q 623.956 815.003 621.959 815.068 Q 619.961 815.134 617.963 815.199 Q 615.966 815.264 613.968 815.329 Q 611.971 815.394 609.973 815.459 Q 607.976 815.524 605.978 815.589 Q 603.981 815.655 601.983 815.720 Q 599.986 815.785 597.988 815.850 Q 595.990 815.915 593.993 815.980 Q 591.995 816.045 589.998 816.110 Q 588.000 816.176 586.003 816.241 Q 584.005 816.306 582.008 816.371 Q 580.010 816.436 578.013 816.501 Q 576.015 816.566 574.017 816.631 Q 572.020 816.696 570.022 816.762 Q 568.025 816.827 566.027 816.892 Q 564.030 816.957 562.032 817.022 Q 560.035 817.087 558.037 817.152 Q 556.040 817.217 554.042 817.282 Q 552.044 817.348 550.047 817.413 Q 548.049 817.478 546.052 817.543 Q 544.054 817.608 542.057 817.673 Q 540.059 817.738 538.061 817.803 Q 536.063 817.868 534.064 817.934 Z"></path>
  </g>
  <g id="New_Layer_6" opacity="1.000">
    <path id="STROKE_2cbbc1e9-de1b-4dc2-8759-384e82a4f558" opacity="1.000" fill="none" stroke="#000000" stroke-width="5.209" stroke-opacity="1.000" stroke-linecap="round" stroke-linejoin="round" d="M 532.926 653.023 L 547.058 653.023 "></path>
    <path id="STROKE_e8da8923-0735-447b-8050-64ad86d3548a" opacity="1.000" fill="none" stroke="#000000" stroke-width="5.209" stroke-opacity="1.000" stroke-linecap="round" stroke-linejoin="round" d="M 547.890 652.585 L 547.422 640.422 "></path>
    <path id="STROKE_1037d8ef-8ba4-4b0d-816d-e31a89db1e13" opacity="1.000" fill="none" stroke="#000000" stroke-width="5.209" stroke-opacity="1.000" stroke-linecap="round" stroke-linejoin="round" d="M 547.422 640.422 L 562.056 640.130 "></path>
    <path id="STROKE_2765389b-a866-4a7c-bdf9-f34c1620673d" opacity="1.000" fill="none" stroke="#000000" stroke-width="5.209" stroke-opacity="1.000" stroke-linecap="round" stroke-linejoin="round" d="M 562.288 639.858 L 562.221 627.883 "></path>
    <path id="STROKE_ce3217f7-5ba4-4655-8056-38b8ecf45e8d" opacity="1.000" fill="none" stroke="#000000" stroke-width="5.209" stroke-opacity="1.000" stroke-linecap="round" stroke-linejoin="round" d="M 562.221 627.883 L 575.310 628.180 "></path>
    <path id="STROKE_aa0ce68b-3e20-4a0d-98f5-a194890be665" opacity="1.000" fill="none" stroke="#000000" stroke-width="5.209" stroke-opacity="1.000" stroke-linecap="round" stroke-linejoin="round" d="M 575.230 627.741 L 574.936 615.539 "></path>
    <path id="STROKE_ef2d7f11-50ce-4e94-83ab-1ee794ca9d40" opacity="1.000" fill="none" stroke="#000000" stroke-width="nan" stroke-opacity="nan" stroke-linecap="round" stroke-linejoin="round" d="M 574.935 615.831 L 574.935 615.831 "></path>
    <path id="STROKE_b3362d6a-ba70-4416-8d28-d0e0f0c0a6cb" opacity="1.000" fill="none" stroke="#000000" stroke-width="5.209" stroke-opacity="1.000" stroke-linecap="round" stroke-linejoin="round" d="M 574.936 615.539 L 588.983 615.069 "></path>
    <path id="STROKE_25ec6f00-ac59-4c08-9f3c-315119e8f70e" opacity="1.000" fill="none" stroke="#000000" stroke-width="5.209" stroke-opacity="1.000" stroke-linecap="round" stroke-linejoin="round" d="M 589.248 614.788 L 589.117 602.486 "></path>
    <path id="STROKE_24fcaca1-2d96-4cac-95c9-4acf26326cf6" opacity="1.000" fill="none" stroke="#000000" stroke-width="5.209" stroke-opacity="1.000" stroke-linecap="round" stroke-linejoin="round" d="M 589.487 602.314 L 602.918 602.500 "></path>
    <path id="STROKE_13216869-3ab6-417e-952c-6bf9e7dcefb4" opacity="1.000" fill="none" stroke="#000000" stroke-width="5.209" stroke-opacity="1.000" stroke-linecap="round" stroke-linejoin="round" d="M 602.918 602.500 L 602.985 588.577 "></path>
    <path id="STROKE_697e3b2f-065d-4551-be6b-21be1267fff6" opacity="1.000" fill="none" stroke="#000000" stroke-width="5.209" stroke-opacity="1.000" stroke-linecap="round" stroke-linejoin="round" d="M 603.537 588.533 L 616.498 588.443 "></path>
    <path id="STROKE_83b76ee2-61cc-4bf1-96a9-6f19749402a5" opacity="1.000" fill="none" stroke="#000000" stroke-width="5.209" stroke-opacity="1.000" stroke-linecap="round" stroke-linejoin="round" d="M 616.357 587.795 L 615.987 573.039 "></path>
    <path id="STROKE_f4e85bf7-86d3-4cfc-8afa-b03692cf50b2" opacity="1.000" fill="none" stroke="#000000" stroke-width="5.209" stroke-opacity="1.000" stroke-linecap="round" stroke-linejoin="round" d="M 615.987 573.039 L 630.724 573.070 "></path>
    <path id="STROKE_6d81995f-c5d5-4a3a-be49-cee4601e8a27" opacity="1.000" fill="none" stroke="#000000" stroke-width="5.209" stroke-opacity="1.000" stroke-linecap="round" stroke-linejoin="round" d="M 630.724 573.070 L 630.557 559.273 "></path>
    <path id="STROKE_a3510c7f-1f6e-402d-96ee-962fa59b7987" opacity="1.000" fill="none" stroke="#000000" stroke-width="nan" stroke-opacity="nan" stroke-linecap="round" stroke-linejoin="round" d="M 630.557 559.273 L 630.557 559.273 "></path>
    <path id="STROKE_cf782f3b-a7cc-4019-b2c8-4fe20b41c928" opacity="1.000" fill="none" stroke="#000000" stroke-width="5.209" stroke-opacity="1.000" stroke-linecap="round" stroke-linejoin="round" d="M 630.557 559.273 L 647.378 559.906 "></path>
    <path id="STROKE_de0aa65f-f3b9-45c9-afee-07c1bf614a80" opacity="1.000" fill="none" stroke="#000000" stroke-width="5.209" stroke-opacity="1.000" stroke-linecap="round" stroke-linejoin="round" d="M 647.378 559.906 L 648.243 795.054 "></path>
    <path id="STROKE_fb2925f9-9cff-480d-8f02-b03f081c9ac7" opacity="1.000" fill="none" stroke="#000000" stroke-width="5.209" stroke-opacity="1.000" stroke-linecap="round" stroke-linejoin="round" d="M 648.243 795.054 L 662.114 806.898 "></path>
    <path id="STROKE_2fe8d8fe-c4cd-4b46-8185-cb16a8db0365" opacity="1.000" fill="none" stroke="#000000" stroke-width="5.209" stroke-opacity="1.000" stroke-linecap="round" stroke-linejoin="round" d="M 662.114 806.898 L 661.874 816.812 "></path>
    <path id="STROKE_80dc495d-9e83-4264-84e3-db9d53a9afdd" opacity="1.000" fill="none" stroke="#000000" stroke-width="5.209" stroke-opacity="1.000" stroke-linecap="round" stroke-linejoin="round" d="M 532.926 653.023 L 533.947 817.375 "></path>
    <path id="STROKE_aae5d45c-0285-44f3-85b9-f8df2d473bc5" opacity="1.000" fill="none" stroke="#000000" stroke-width="5.209" stroke-opacity="1.000" stroke-linecap="round" stroke-linejoin="round" d="M 533.947 817.375 L 661.874 816.812 "></path>
  </g>
  <g id="New_Layer_3" opacity="1.000">
    <path id="STROKE_35e12377-bd47-4e10-8378-3c39edcc9481" opacity="1.000" fill="none" stroke="#000000" stroke-width="5.209" stroke-opacity="1.000" stroke-linecap="round" stroke-linejoin="round" d="M 250.816 618.973 L 251.817 619.073 L 252.135 619.104 L 252.501 619.140 L 252.892 619.179 L 253.356 619.225 L 253.918 619.281 L 254.529 619.341 L 255.237 619.411 L 256.092 619.496 L 257.167 619.602 L 258.266 619.711 L 259.585 619.842 L 260.978 619.979 L 262.443 620.125 L 264.080 620.287 L 265.937 620.470 L 267.647 620.640 L 269.356 620.809 L 271.140 620.986 L 272.923 621.162 L 274.706 621.339 L 276.734 621.539 L 278.346 621.699 L 279.983 621.861 L 281.619 622.023 L 283.329 622.192 L 285.039 622.362 L 287.116 622.567 L 288.899 622.744 L 290.682 622.920 L 292.563 623.107 L 294.420 623.290 L 296.349 623.481 L 298.597 623.704 L 300.478 623.890 L 302.334 624.074 L 304.264 624.265 L 306.218 624.458 L 308.221 624.657 L 310.713 624.903 L 312.741 625.104 L 314.817 625.310 L 316.845 625.510 L 318.872 625.711 L 321.266 625.948 L 323.122 626.132 L 325.077 626.325 L 327.007 626.516 L 329.034 626.717 L 331.037 626.916 L 333.456 627.155 L 335.556 627.363 L 337.731 627.578 L 340.051 627.808 L 342.372 628.038 L 344.790 628.277 L 347.648 628.560 L 349.969 628.790 L 352.461 629.036 L 354.952 629.283 L 357.517 629.537 L 360.229 629.806 L 363.331 630.113 L 365.896 630.367 L 368.534 630.628 L 371.099 630.882 L 373.737 631.143 L 376.205 631.387 L 379.087 631.673 L 381.408 631.902 L 383.728 632.132 L 386.293 632.386 L 388.858 632.640 L 391.423 632.894 L 394.379 633.187 L 396.700 633.416 L 399.094 633.653 L 401.439 633.885 L 403.759 634.115 L 406.080 634.345 L 408.792 634.613 L 410.965 634.829 L 413.140 635.044 L 415.387 635.266 L 417.561 635.482 L 419.662 635.690 L 422.080 635.929 L 423.937 636.113 L 425.720 636.289 L 427.503 636.466 L 429.287 636.643 L 431.070 636.819 L 433.171 637.027 L 434.807 637.189 L 436.591 637.366 L 438.374 637.542 L 440.157 637.719 L 441.867 637.888 L 443.870 638.086 L 445.360 638.234 L 446.899 638.386 L 448.463 638.541 L 449.928 638.686 L 451.321 638.824 L 452.957 638.986 L 454.276 639.117 L 455.596 639.247 L 456.988 639.385 L 458.478 639.533 L 460.090 639.692 L 461.483 639.830 L 462.973 639.978 L 464.439 640.123 L 465.831 640.260 L 467.248 640.401 L 468.713 640.546 L 469.886 640.662 L 471.034 640.776 L 472.280 640.899 L 473.526 641.022 L 474.772 641.146 L 476.164 641.284 L 477.312 641.397 L 478.558 641.521 L 479.731 641.637 L 480.903 641.753 L 481.978 641.859 L 483.297 641.990 L 484.299 642.089 L 485.325 642.191 L 486.328 642.290 L 487.257 642.382 L 488.259 642.481 L 489.360 642.590 L 490.143 642.668 L 490.902 642.743 L 491.687 642.820 L 492.324 642.884 L 493.012 642.952 L 493.725 643.022 L 494.340 643.083 L 494.883 643.137 L 495.451 643.193 L 496.070 643.255 L 496.616 643.309 L 497.412 643.388 L 497.962 643.443 L 498.614 643.507 L 499.169 643.562 L 499.802 643.625 L 500.465 643.691 L 501.287 643.773 L 501.857 643.830 L 502.510 643.895 L 503.091 643.953 L 503.703 644.014 L 504.296 644.074 L 504.978 644.142 L 505.503 644.195 L 505.950 644.240 L 506.402 644.285 L 506.773 644.322 L 507.147 644.360 L 507.496 644.395 L 507.789 644.425 L 508.055 644.452 L 508.264 644.473 L 508.533 644.500 L 508.744 644.521 L 509.109 644.558 L 509.416 644.589 L 509.695 644.618 L 510.008 644.649 L 510.419 644.691 L 510.803 644.730 L 511.225 644.773 L 511.652 644.817 L 512.051 644.857 L 512.388 644.892 L 512.832 644.937 L 513.247 644.980 L 513.703 645.026 L 514.059 645.063 L 514.383 645.096 L 514.600 645.119 L 514.966 645.156 L 515.337 645.194 L 515.561 645.217 L 515.901 645.252 L 516.168 645.280 L 516.398 645.304 L 516.786 645.344 L 517.138 645.380 L 517.416 645.409 L 517.775 645.446 L 518.017 645.471 L 518.425 645.513 L 518.672 645.539 L 519.086 645.582 L 519.338 645.608 L 519.634 645.639 L 519.889 645.665 L 520.146 645.692 L 520.449 645.723 L 520.841 645.764 L 521.282 645.810 L 521.549 645.838 L 521.999 645.885 L 522.407 645.927 L 522.682 645.956 L 523.283 646.019 L 523.610 646.053 L 524.035 646.097 L 524.319 646.127 L 524.799 646.177 L 525.089 646.208 L 525.576 646.259 L 526.018 646.305 L 526.365 646.341 L 526.514 646.357 L 526.814 646.388 L 527.166 646.425 L 527.622 646.473 L 527.928 646.505 L 528.441 646.559 L 528.958 646.613 L 529.270 646.646 L 529.584 646.679 L 529.952 646.718 L 530.269 646.751 L 530.587 646.785 L 530.960 646.824 L 531.281 646.858 L 531.603 646.892 L 531.980 646.931 L 532.305 646.966 L 532.849 647.023 L 533.176 647.057 L 533.505 647.092 L 533.889 647.132 L 534.219 647.167 L 534.550 647.202 L 534.937 647.243 L 535.270 647.278 L 535.603 647.313 L 535.826 647.336 L 536.160 647.372 L 536.495 647.407 L 536.886 647.448 L 537.222 647.484 L 537.557 647.519 L 537.950 647.560 L 538.286 647.596 L 538.847 647.655 "></path>
    <path id="STROKE_0f74c3e3-1cc3-4c0e-95f2-9115c55e65ef" opacity="1.000" fill="none" stroke="#000000" stroke-width="5.209" stroke-opacity="1.000" stroke-linecap="round" stroke-linejoin="round" d="M 250.854 618.589 L 254.307 589.997 "></path>
    <path id="STROKE_84d2576c-5c82-4809-9e36-d6401a1da807" opacity="1.000" fill="none" stroke="#000000" stroke-width="5.209" stroke-opacity="1.000" stroke-linecap="round" stroke-linejoin="round" d="M 254.307 589.997 L 275.680 573.772 "></path>
    <path id="STROKE_dd189b34-2a18-4f22-b587-19f7cdfe8b14" opacity="1.000" fill="none" stroke="#000000" stroke-width="5.209" stroke-opacity="1.000" stroke-linecap="round" stroke-linejoin="round" d="M 275.680 573.772 L 591.175 603.010 "></path>
    <path id="STROKE_fd120760-5ae1-4602-a4c3-ea0bd253ffbe" opacity="1.000" fill="none" stroke="#000000" stroke-width="5.209" stroke-opacity="1.000" stroke-linecap="round" stroke-linejoin="round" d="M 591.175 603.010 L 590.091 614.612 "></path>
    <path id="STROKE_32f0b31b-34d5-4bc1-809d-e1ea69606b89" opacity="1.000" fill="none" stroke="#000000" stroke-width="5.209" stroke-opacity="1.000" stroke-linecap="round" stroke-linejoin="round" d="M 589.821 615.005 L 575.646 613.840 "></path>
    <path id="STROKE_944852e5-78c2-4ef6-8048-072202eccff2" opacity="1.000" fill="none" stroke="#000000" stroke-width="5.209" stroke-opacity="1.000" stroke-linecap="round" stroke-linejoin="round" d="M 575.351 614.114 L 574.267 625.092 "></path>
    <path id="STROKE_9885455a-1b72-4721-a2a2-c089fc2d5690" opacity="1.000" fill="none" stroke="#000000" stroke-width="5.209" stroke-opacity="1.000" stroke-linecap="round" stroke-linejoin="round" d="M 574.345 625.350 L 558.421 624.161 "></path>
    <path id="STROKE_6d878279-6a79-4ace-a7d0-0a40067bb062" opacity="1.000" fill="none" stroke="#000000" stroke-width="5.209" stroke-opacity="1.000" stroke-linecap="round" stroke-linejoin="round" d="M 558.110 624.412 L 557.192 634.357 "></path>
    <path id="STROKE_8a06e690-416d-40fc-b41e-dd7e7cdc6d5c" opacity="1.000" fill="none" stroke="#000000" stroke-width="5.209" stroke-opacity="1.000" stroke-linecap="round" stroke-linejoin="round" d="M 556.257 635.675 L 539.820 634.623 "></path>
    <path id="STROKE_f5b5a8f6-c6aa-4ccf-b167-8145103412b0" opacity="1.000" fill="none" stroke="#000000" stroke-width="5.209" stroke-opacity="1.000" stroke-linecap="round" stroke-linejoin="round" d="M 540.103 634.520 L 538.730 647.854 "></path>
  </g>
</svg>