<?xml version="1.0" encoding="UTF-8" standalone="yes"?>
<svg xmlns="http://www.w3.org/2000/svg" xmlns:xlink="http://www.w3.org/1999/xlink" width="41.951cm" height="10.473cm" version="1.1" viewBox="-963.544 -107.819 2180.122 544.285">
  <!--
	Exported with Concepts: Smarter Sketching
	Version: 2672 on iOS 17.3
	https://concepts.app/
	-->
  <title>CC0A10F4-21E9-4D5B-A992-CFB2E9D3F458</title>
  <desc>Drawing exported from Concepts: Smarter Sketching</desc>
  <defs></defs>
  <g id="New_Layer_8" opacity="1.000">
    <path id="STROKE_a1d14e6c-bfaf-49b4-92c2-ce31df955651" opacity="1.000" fill="#fac141" stroke="#fac141" stroke-width="0.500" stroke-opacity="1.000" stroke-linecap="round" stroke-linejoin="round" d="M 325.639 -79.687 L 325.974 -78.610 L 326.127 -78.016 Q 326.699 -75.000 326.687 -74.757 Q 326.676 -74.513 326.825 -73.154 Q 326.974 -71.794 326.979 -69.223 Q 326.984 -66.652 326.847 -64.813 Q 326.710 -62.974 326.550 -61.282 Q 326.389 -59.589 326.333 -58.239 Q 326.276 -56.890 326.413 -56.201 L 326.843 -55.513 Q 326.850 -55.359 327.530 -55.224 Q 328.211 -55.090 329.191 -55.024 Q 330.172 -54.959 331.049 -54.972 Q 331.926 -54.985 333.162 -55.078 Q 334.398 -55.171 336.317 -55.409 Q 338.236 -55.646 341.122 -56.087 L 349.005 -55.844 L 350.728 -55.162 Q 352.565 -54.090 354.417 -49.561 Q 354.522 -46.531 354.914 -44.479 Q 355.306 -42.427 355.427 -40.595 Q 355.548 -38.764 355.246 -36.503 Q 354.944 -34.242 354.296 -32.207 Q 354.588 -30.146 354.640 -29.920 Q 354.692 -29.694 354.796 -29.108 Q 354.899 -28.521 355.470 -27.269 Q 356.041 -26.017 357.116 -25.559 Q 358.192 -25.100 358.370 -25.070 Q 358.547 -25.040 359.348 -25.050 Q 360.149 -25.060 362.017 -25.273 Q 363.885 -25.485 365.731 -25.647 Q 367.577 -25.809 369.098 -25.844 Q 372.204 -25.765 373.700 -25.705 Q 375.197 -25.644 377.895 -25.601 Q 380.594 -25.558 382.675 -25.586 Q 384.757 -25.615 386.873 -25.652 Q 388.988 -25.690 390.883 -25.636 Q 392.778 -25.583 394.835 -25.491 Q 396.892 -25.399 399.515 -25.414 Q 402.137 -25.430 403.164 -25.542 Q 404.191 -25.655 405.664 -25.772 Q 407.136 -25.889 409.200 -26.028 Q 411.265 -26.167 413.103 -26.231 Q 414.941 -26.295 417.286 -26.245 Q 422.143 -25.933 424.862 -25.808 Q 427.580 -25.683 428.757 -25.854 Q 429.934 -26.025 430.082 -26.067 Q 430.231 -26.109 431.531 -26.650 Q 432.831 -27.191 433.782 -28.203 Q 434.733 -29.216 434.946 -29.611 Q 435.160 -30.007 435.245 -30.252 Q 435.330 -30.498 436.435 -34.631 L 436.589 -36.905 L 436.965 -43.710 L 437.098 -47.899 L 437.729 -55.425 L 438.623 -56.338 Q 439.169 -56.729 439.932 -57.026 Q 440.695 -57.322 440.889 -57.485 Q 441.082 -57.647 442.167 -57.819 Q 443.252 -57.991 444.203 -58.058 Q 445.155 -58.125 446.055 -58.148 Q 446.955 -58.172 448.368 -58.117 Q 449.782 -58.061 451.605 -57.950 Q 453.428 -57.838 455.181 -57.838 Q 456.933 -57.837 458.329 -57.899 Q 459.724 -57.960 460.613 -58.059 Q 461.503 -58.158 462.655 -58.403 Q 463.807 -58.648 464.887 -59.171 Q 465.502 -60.041 465.850 -60.774 Q 466.198 -61.507 466.740 -64.558 Q 467.281 -67.608 466.996 -71.227 Q 466.711 -74.846 466.503 -76.132 Q 466.294 -77.418 465.634 -80.566 Q 460.563 -81.134 455.557 -81.216 Q 453.054 -81.266 450.595 -81.230 Q 448.135 -81.194 445.719 -81.093 Q 443.307 -81.044 440.934 -81.069 Q 438.560 -81.095 436.226 -81.192 Q 433.895 -81.333 431.583 -81.509 Q 429.271 -81.686 426.973 -81.819 Q 424.674 -81.885 422.379 -81.854 Q 420.084 -81.823 417.794 -81.709 Q 415.510 -81.578 413.236 -81.452 Q 410.962 -81.326 408.702 -81.274 Q 406.453 -81.288 404.214 -81.404 Q 401.974 -81.519 399.733 -81.710 Q 397.493 -81.902 395.230 -82.092 Q 392.967 -82.283 390.671 -82.429 Q 388.375 -82.575 386.033 -82.652 Q 383.691 -82.729 381.301 -82.715 Q 378.910 -82.700 376.480 -82.590 Q 374.050 -82.479 371.604 -82.282 Q 369.158 -82.085 366.711 -81.744 Q 364.264 -81.403 361.822 -81.003 Q 359.394 -80.659 357.002 -80.449 Q 354.611 -80.240 352.264 -80.250 Q 349.917 -80.260 347.663 -80.424 Q 345.410 -80.589 343.289 -80.877 Q 341.169 -81.165 339.261 -81.455 Q 337.354 -81.746 335.728 -81.993 Q 334.102 -82.239 332.711 -82.266 Q 331.320 -82.292 330.149 -82.044 Q 328.978 -81.796 327.891 -81.209 Q 326.805 -80.623 325.639 -79.687 Z"></path>
    <path id="STROKE_688d03bf-99a2-4525-a512-1372f40c28a5" opacity="1.000" fill="#55575d" stroke="#55575d" stroke-width="0.500" stroke-opacity="1.000" stroke-linecap="round" stroke-linejoin="round" d="M 374.990 -25.425 L 375.021 -25.066 Q 375.041 -25.016 375.093 -22.376 Q 375.146 -19.736 375.283 -14.184 Q 375.419 -8.632 375.596 -4.176 Q 375.772 0.281 375.853 3.778 Q 375.934 7.275 375.944 9.383 Q 375.953 11.491 375.912 12.718 Q 375.870 13.945 375.782 16.367 Q 375.695 18.788 375.441 22.639 Q 375.187 26.489 375.062 28.754 Q 374.936 31.020 374.590 36.577 Q 374.245 42.134 374.062 44.952 Q 373.880 47.769 373.828 49.202 Q 373.777 50.634 373.631 53.167 Q 373.486 55.701 373.424 56.950 Q 373.362 58.199 373.332 59.450 Q 373.303 60.700 373.279 61.657 Q 373.255 62.614 373.145 67.509 Q 373.035 72.403 373.059 75.989 Q 373.083 79.575 373.160 82.219 Q 373.237 84.863 373.349 87.933 Q 373.462 91.003 373.471 92.556 Q 373.480 94.109 373.482 97.309 Q 373.485 100.509 373.506 103.278 Q 373.527 106.046 373.540 110.077 Q 373.553 114.108 373.515 115.300 Q 373.476 116.492 373.387 121.084 Q 373.298 125.676 373.263 128.187 Q 373.228 130.699 373.221 131.858 Q 373.215 133.017 373.201 136.337 Q 373.186 139.656 373.182 143.952 Q 373.178 148.248 373.180 151.165 Q 373.183 154.082 373.401 159.722 Q 373.618 165.361 373.766 168.456 Q 373.914 171.551 374.061 173.573 Q 374.208 175.595 374.253 176.848 Q 374.298 178.101 374.329 179.648 Q 374.360 181.195 374.373 182.531 Q 374.387 183.866 374.302 189.452 Q 374.217 195.039 374.106 198.539 Q 373.994 202.039 373.910 203.687 Q 373.826 205.334 373.823 205.661 Q 373.821 205.989 373.744 207.841 Q 373.666 209.694 373.571 211.099 Q 373.475 212.504 373.371 214.298 Q 373.267 216.092 373.262 216.892 Q 373.257 217.691 373.287 218.594 Q 373.317 219.497 373.426 220.404 Q 373.535 221.311 373.688 221.892 Q 373.841 222.474 374.136 223.091 Q 374.432 223.708 374.820 224.184 L 375.666 224.714 Q 375.768 224.751 376.823 225.154 Q 377.878 225.557 378.640 225.753 Q 379.402 225.949 380.363 226.118 Q 381.323 226.287 381.718 226.354 Q 382.113 226.420 385.045 226.756 Q 387.976 227.091 388.674 227.159 Q 389.371 227.228 390.845 227.423 Q 392.320 227.617 392.803 227.682 Q 393.287 227.747 394.715 227.885 Q 396.144 228.023 398.120 228.083 Q 400.097 228.143 400.905 228.120 Q 401.714 228.098 402.811 227.951 Q 403.908 227.804 404.704 227.596 Q 405.500 227.388 405.671 227.341 Q 405.841 227.294 406.471 227.017 Q 407.102 226.739 407.556 226.460 Q 408.011 226.182 408.172 226.045 Q 408.333 225.908 408.863 225.293 L 409.288 224.407 Q 409.580 223.442 409.826 219.993 Q 410.072 216.544 409.980 213.881 Q 409.888 211.218 409.871 208.703 Q 409.854 206.188 409.796 204.174 Q 409.738 202.160 409.758 201.200 Q 409.778 200.240 409.781 198.961 Q 409.783 197.683 409.771 196.482 Q 409.759 195.281 409.736 194.222 Q 409.712 193.162 409.702 192.983 Q 409.692 192.803 409.645 190.523 Q 409.599 188.243 409.547 185.939 Q 409.495 183.634 409.464 181.971 Q 409.433 180.308 409.491 178.128 Q 409.550 175.949 409.668 174.582 Q 409.785 173.216 409.945 171.949 Q 410.105 170.683 410.444 168.112 Q 410.783 165.540 410.982 163.167 Q 411.181 160.793 411.224 159.037 Q 411.267 157.281 411.226 154.510 Q 411.185 151.740 411.065 150.110 Q 410.945 148.481 410.622 144.492 Q 410.298 140.503 410.167 138.182 Q 410.036 135.862 409.965 134.138 Q 409.895 132.413 409.854 127.189 Q 409.814 121.965 409.823 120.681 Q 409.832 119.396 410.013 116.157 Q 410.194 112.917 410.593 109.342 Q 410.993 105.767 411.239 102.256 Q 411.485 98.745 411.578 96.511 Q 411.670 94.277 411.763 92.794 Q 411.856 91.311 412.467 84.930 Q 413.079 78.548 413.178 74.408 Q 413.277 70.267 413.211 68.090 Q 413.145 65.913 413.034 64.371 Q 412.922 62.829 412.831 61.706 Q 412.740 60.583 412.668 59.419 Q 412.596 58.255 412.549 57.153 Q 412.503 56.050 412.463 53.780 Q 412.423 51.510 412.538 48.001 Q 412.652 44.491 412.851 42.179 Q 413.049 39.867 413.217 38.384 Q 413.384 36.901 413.645 34.109 Q 413.907 31.317 414.040 28.841 Q 414.174 26.366 414.221 24.788 Q 414.269 23.209 414.238 19.812 Q 414.207 16.414 414.140 14.837 Q 414.073 13.260 413.903 11.360 Q 413.733 9.461 413.570 7.830 Q 413.408 6.199 413.120 3.747 Q 412.832 1.296 412.703 -0.407 Q 412.573 -2.109 412.483 -3.441 Q 412.393 -4.773 412.286 -7.421 Q 412.179 -10.068 412.191 -11.489 Q 412.203 -12.910 412.219 -14.019 Q 412.234 -15.127 412.286 -16.338 Q 412.337 -17.548 412.396 -18.184 Q 412.455 -18.821 412.524 -19.225 Q 412.594 -19.629 412.720 -20.628 Q 412.846 -21.627 413.282 -25.085 L 413.488 -26.482 Q 408.721 -26.061 403.939 -25.741 Q 399.156 -25.421 394.341 -25.308 Q 389.526 -25.195 384.681 -25.270 Q 379.836 -25.344 374.990 -25.425 Z"></path>
  </g>
  <g id="New_Layer_7" opacity="1.000">
    <path id="STROKE_b31b9a07-be10-497b-a5f3-502045da4c85" opacity="1.000" fill="none" stroke="#000000" stroke-width="5.209" stroke-opacity="1.000" stroke-linecap="round" stroke-linejoin="round" d="M 375.034 -26.520 L 373.175 224.803 "></path>
    <path id="STROKE_ad10f0d6-c271-46de-9eaa-528c0d60e35f" opacity="1.000" fill="none" stroke="#000000" stroke-width="5.209" stroke-opacity="1.000" stroke-linecap="round" stroke-linejoin="round" d="M 413.985 -27.140 L 409.511 223.278 "></path>
    <path id="STROKE_561925d9-4855-4c8c-9651-49f9e77e75e4" opacity="1.000" fill="none" stroke="#000000" stroke-width="5.209" stroke-opacity="1.000" stroke-linecap="round" stroke-linejoin="round" d="M 354.027 -26.262 L 437.010 -27.797 "></path>
    <path id="STROKE_5c0fe580-f69e-4f30-aac9-5ac75e20a4a9" opacity="1.000" fill="none" stroke="#000000" stroke-width="5.209" stroke-opacity="1.000" stroke-linecap="round" stroke-linejoin="round" d="M 436.862 -27.881 L 437.075 -56.377 "></path>
    <path id="STROKE_386f69f6-c163-4a32-9032-2ce8b98b3712" opacity="1.000" fill="none" stroke="#000000" stroke-width="5.209" stroke-opacity="1.000" stroke-linecap="round" stroke-linejoin="round" d="M 466.216 -56.724 L 466.371 -82.313 "></path>
    <path id="STROKE_077b9833-1f24-4c65-a4d8-f8211bcfa027" opacity="1.000" fill="none" stroke="#000000" stroke-width="5.209" stroke-opacity="1.000" stroke-linecap="round" stroke-linejoin="round" d="M 353.998 -26.117 L 353.731 -55.698 "></path>
    <path id="STROKE_474c9558-dab8-497b-b86e-e06a60dc360c" opacity="1.000" fill="none" stroke="#000000" stroke-width="5.209" stroke-opacity="1.000" stroke-linecap="round" stroke-linejoin="round" d="M 465.906 -56.458 L 325.189 -55.971 "></path>
    <path id="STROKE_be940cb3-9b47-4d83-a8f6-e12f1cda8693" opacity="1.000" fill="none" stroke="#000000" stroke-width="5.209" stroke-opacity="1.000" stroke-linecap="round" stroke-linejoin="round" d="M 324.553 -56.324 L 324.764 -82.486 "></path>
    <path id="STROKE_06b66d71-da19-4d59-b1c4-ac0aa8fcfe94" opacity="1.000" fill="none" stroke="#000000" stroke-width="5.209" stroke-opacity="1.000" stroke-linecap="round" stroke-linejoin="round" d="M 325.138 -82.315 L 466.492 -82.630 "></path>
  </g>
  <g id="New_Layer_5" opacity="1.000">
    <path id="STROKE_3b626e88-1ed2-4f2d-9aa6-1d3d8db953d4" opacity="1.000" fill="#d4a36e" stroke="#d4a36e" stroke-width="0.500" stroke-opacity="1.000" stroke-linecap="round" stroke-linejoin="round" d="M -871.154 227.644 L -871.282 229.097 L -870.961 230.263 L -870.777 230.743 Q -870.450 234.731 -869.276 242.947 Q -868.102 251.163 -866.560 259.624 Q -865.018 268.085 -860.758 279.584 Q -856.499 291.082 -852.170 298.594 Q -847.842 306.106 -843.055 311.335 Q -838.267 316.564 -834.929 319.054 Q -831.592 321.544 -828.938 323.078 Q -826.284 324.613 -809.924 329.337 Q -793.563 334.061 -776.139 337.522 Q -758.714 340.984 -748.201 343.032 Q -737.688 345.079 -731.826 346.248 Q -725.963 347.417 -709.462 351.186 Q -692.961 354.955 -666.691 361.500 Q -640.422 368.044 -626.505 371.340 Q -612.587 374.635 -588.411 378.470 Q -564.235 382.305 -538.415 385.284 Q -512.596 388.264 -480.815 392.136 Q -449.034 396.008 -430.861 398.620 Q -412.689 401.233 -397.834 403.869 Q -382.979 406.505 -358.630 408.963 Q -334.281 411.420 -321.497 412.021 Q -308.714 412.622 -302.515 412.790 Q -296.315 412.958 -280.721 413.193 Q -265.126 413.428 -246.423 413.710 Q -227.720 413.993 -217.850 413.829 Q -207.980 413.664 -203.080 413.399 Q -198.181 413.133 -175.299 410.367 Q -152.417 407.601 -126.232 404.026 Q -100.047 400.450 -83.256 397.973 Q -66.464 395.496 -46.898 393.343 Q -27.331 391.190 -17.052 390.613 Q -6.772 390.035 -0.405 389.840 Q 5.962 389.645 39.051 386.922 Q 72.141 384.198 107.013 381.426 Q 141.886 378.654 158.251 377.703 Q 174.616 376.753 192.996 375.631 Q 211.376 374.510 220.558 373.802 Q 229.741 373.095 243.577 371.761 Q 257.414 370.428 266.623 369.384 Q 275.832 368.341 294.287 365.989 Q 312.742 363.637 323.762 362.240 Q 334.783 360.844 366.127 357.672 Q 397.470 354.499 426.577 352.201 Q 455.683 349.904 469.737 349.026 Q 483.791 348.148 509.023 346.231 Q 534.254 344.315 562.614 342.682 Q 590.975 341.048 604.848 340.486 Q 618.722 339.924 626.509 339.826 Q 634.296 339.728 643.695 339.456 Q 653.093 339.185 668.369 338.445 Q 683.644 337.705 697.229 337.291 Q 710.813 336.876 732.836 336.492 Q 754.858 336.108 788.135 335.408 Q 821.412 334.707 845.084 333.734 Q 868.756 332.762 879.843 332.143 Q 890.929 331.524 898.910 331.046 Q 906.891 330.568 934.771 328.057 Q 962.650 325.546 978.171 324.009 Q 993.693 322.471 1005.000 321.056 Q 1016.307 319.641 1023.468 318.388 Q 1030.630 317.135 1040.261 315.030 Q 1049.891 312.926 1058.792 311.176 Q 1067.692 309.426 1073.893 308.133 Q 1080.094 306.840 1084.083 305.635 Q 1088.072 304.430 1093.431 302.660 Q 1098.791 300.891 1105.132 298.065 Q 1111.474 295.239 1115.996 292.935 Q 1120.519 290.632 1126.794 287.213 Q 1133.070 283.795 1135.352 282.348 Q 1137.634 280.901 1141.858 278.314 Q 1146.081 275.726 1149.524 273.423 Q 1152.968 271.121 1154.187 270.177 Q 1155.406 269.233 1159.613 265.983 Q 1163.819 262.732 1166.069 260.704 Q 1168.319 258.676 1169.223 257.709 Q 1170.126 256.742 1171.894 254.515 Q 1173.662 252.287 1175.342 249.854 Q 1177.022 247.422 1178.951 244.562 Q 1180.880 241.703 1182.624 238.851 Q 1184.369 236.000 1185.772 234.417 Q 1187.573 232.773 1191.575 227.645 "></path>
  </g>
  <g id="New_Layer_4" opacity="1.000">
    <path id="STROKE_990118cb-9d79-48ca-8557-350e84b7aa10" opacity="1.000" fill="none" stroke="#000000" stroke-width="5.209" stroke-opacity="1.000" stroke-linecap="round" stroke-linejoin="round" d="M -938.542 227.645 L -928.937 227.645 L -926.934 227.645 L -924.520 227.645 L -921.746 227.645 L -918.972 227.645 L -915.839 227.645 L -912.603 227.645 L -909.316 227.645 L -905.772 227.645 L -901.817 227.645 L -898.427 227.645 L -894.986 227.645 L -891.545 227.645 L -888.103 227.645 L -884.200 227.645 L -881.118 227.645 L -877.831 227.645 L -874.595 227.645 L -871.154 227.645 L -867.712 227.645 L -863.501 227.645 L -859.751 227.645 L -856.002 227.645 L -851.893 227.645 L -847.681 227.645 L -843.110 227.645 L -837.562 227.645 L -832.786 227.645 L -827.444 227.645 L -821.897 227.645 L -815.682 227.645 L -809.159 227.645 L -801.300 227.645 L -794.777 227.645 L -788.100 227.645 L -781.423 227.645 L -775.054 227.645 L -768.531 227.645 L -761.186 227.645 L -754.971 227.645 L -748.756 227.645 L -742.901 227.645 L -737.354 227.645 L -731.652 227.645 L -725.592 227.645 L -720.712 227.645 L -715.679 227.645 L -710.286 227.645 L -704.584 227.645 L -698.523 227.645 L -691.487 227.645 L -685.940 227.645 L -680.084 227.645 L -674.383 227.645 L -668.528 227.645 L -662.467 227.645 L -655.430 227.645 L -649.421 227.645 L -643.360 227.645 L -636.991 227.645 L -630.981 227.645 L -624.767 227.645 L -617.935 227.645 L -612.388 227.645 L -606.841 227.645 L -600.626 227.645 L -594.257 227.645 L -587.734 227.645 L -580.235 227.645 L -574.020 227.645 L -567.805 227.645 L -561.128 227.645 L -554.143 227.645 L -546.592 227.645 L -538.272 227.645 L -531.595 227.645 L -524.917 227.645 L -518.548 227.645 L -512.334 227.645 L -505.348 227.645 L -499.955 227.645 L -494.254 227.645 L -488.347 227.645 L -482.338 227.645 L -476.431 227.645 L -469.600 227.645 L -464.053 227.645 L -458.351 227.645 L -452.650 227.645 L -446.589 227.645 L -440.374 227.645 L -433.389 227.645 L -427.482 227.645 L -421.473 227.645 L -415.258 227.645 L -409.248 227.645 L -403.033 227.645 L -395.843 227.645 L -389.628 227.645 L -382.951 227.645 L -376.119 227.645 L -369.083 227.645 L -361.892 227.645 L -354.085 227.645 L -347.716 227.645 L -340.884 227.645 L -333.848 227.645 L -326.657 227.645 L -319.466 227.645 L -311.351 227.645 L -304.828 227.645 L -297.945 227.645 L -290.960 227.645 L -283.410 227.645 L -275.602 227.645 L -267.128 227.645 L -260.245 227.645 L -253.260 227.645 L -246.377 227.645 L -239.392 227.645 L -232.201 227.645 L -223.880 227.645 L -216.997 227.645 L -210.166 227.645 L -203.335 227.645 L -196.453 227.645 L -189.467 227.645 L -181.301 227.645 L -174.110 227.645 L -165.943 227.645 L -157.622 227.645 L -149.302 227.645 L -140.981 227.645 L -131.376 227.645 L -122.696 227.645 L -113.399 227.645 L -104.256 227.645 L -95.319 227.645 L -86.331 227.645 L -76.058 227.645 L -67.070 227.645 L -57.465 227.645 L -47.346 227.645 L -37.382 227.645 L -27.572 227.645 L -16.477 227.645 L -7.335 227.645 L 1.962 227.645 L 11.413 227.645 L 20.709 227.645 L 31.341 227.645 L 40.278 227.645 L 49.781 227.645 L 59.385 227.645 L 68.682 227.645 L 78.133 227.645 L 88.919 227.645 L 97.908 227.645 L 106.690 227.645 L 115.525 227.645 L 124.154 227.645 L 132.783 227.645 L 142.747 227.645 L 150.606 227.645 L 158.413 227.645 L 165.912 227.645 L 173.103 227.645 L 179.985 227.645 L 187.638 227.645 L 194.007 227.645 L 200.376 227.645 L 206.540 227.645 L 212.754 227.645 L 218.816 227.645 L 225.184 227.645 L 230.218 227.645 L 235.252 227.645 L 240.490 227.645 L 245.730 227.645 L 251.123 227.645 L 256.978 227.645 L 261.549 227.645 L 266.275 227.645 L 271.154 227.645 L 275.880 227.645 L 280.656 227.645 L 286.357 227.645 L 291.083 227.645 L 296.117 227.645 L 301.509 227.645 L 307.211 227.645 L 312.758 227.645 L 318.819 227.645 L 323.852 227.645 L 328.629 227.645 L 333.508 227.645 L 338.388 227.645 L 343.473 227.645 L 349.328 227.645 L 354.567 227.645 L 360.423 227.645 L 366.483 227.645 L 372.493 227.645 L 378.348 227.645 L 384.717 227.645 L 389.802 227.645 L 395.349 227.645 L 401.051 227.645 L 406.906 227.645 L 412.813 227.645 L 419.644 227.645 L 425.345 227.645 L 431.406 227.645 L 437.621 227.645 L 443.990 227.645 L 450.667 227.645 L 458.320 227.645 L 464.843 227.645 L 471.366 227.645 L 477.889 227.645 L 484.412 227.645 L 491.911 227.645 L 497.972 227.645 L 504.495 227.645 L 511.378 227.645 L 518.363 227.644 L 525.400 227.643 L 533.207 227.634 L 539.577 227.607 L 546.106 227.503 L 552.660 227.252 L 559.273 227.046 L 565.901 227.204 L 573.150 226.845 L 578.474 226.707 L 583.659 226.467 L 588.619 226.221 L 593.751 226.430 L 599.991 227.061 L 606.570 227.921 L 610.812 227.819 L 614.679 227.711 L 618.355 227.678 L 622.146 227.716 L 625.988 227.673 L 630.536 227.465 L 634.197 227.266 L 637.639 227.172 L 640.950 227.137 L 644.189 227.177 L 647.316 227.257 L 650.696 227.359 L 653.463 227.437 L 656.232 227.501 L 658.847 227.547 L 661.465 227.580 L 664.236 227.604 L 667.317 227.621 L 669.782 227.630 L 672.401 227.636 L 674.866 227.639 L 677.280 227.641 L 679.745 227.643 L 682.364 227.644 L 684.470 227.644 L 686.782 227.644 L 689.042 227.644 L 691.301 227.644 L 693.767 227.645 L 696.386 227.645 L 698.646 227.645 L 700.803 227.645 L 703.064 227.645 L 705.529 227.645 L 707.789 227.645 L 710.562 227.645 L 712.874 227.645 L 715.134 227.645 L 717.445 227.645 L 719.859 227.645 L 722.324 227.645 L 725.098 227.645 L 727.410 227.645 L 729.669 227.645 L 732.135 227.645 L 734.394 227.645 L 736.706 227.645 L 739.274 227.645 L 741.432 227.645 L 743.537 227.645 L 745.849 227.645 L 748.109 227.645 L 750.728 227.645 L 752.834 227.645 L 754.940 227.645 L 757.097 227.645 L 759.203 227.645 L 761.155 227.645 L 763.466 227.645 L 765.264 227.645 L 766.856 227.645 L 768.499 227.645 L 770.143 227.645 L 771.581 227.645 L 773.379 227.645 L 774.715 227.645 L 775.998 227.645 L 777.334 227.645 L 778.464 227.645 L 779.748 227.645 L 781.238 227.645 L 782.368 227.645 L 783.703 227.645 L 784.833 227.645 L 786.117 227.645 L 787.453 227.645 L 788.891 227.645 L 790.226 227.645 L 791.356 227.645 L 792.640 227.645 L 793.975 227.645 L 795.259 227.645 L 796.749 227.645 L 798.033 227.645 L 799.317 227.645 L 800.653 227.645 L 801.937 227.645 L 803.272 227.645 L 805.070 227.645 L 806.354 227.645 L 807.844 227.645 L 809.282 227.645 L 810.771 227.645 L 812.415 227.645 L 814.007 227.645 L 815.342 227.645 L 816.627 227.645 L 817.962 227.645 L 819.092 227.645 L 820.376 227.645 L 821.712 227.645 L 822.842 227.645 L 823.971 227.645 L 825.101 227.645 L 826.283 227.645 L 827.567 227.645 L 829.057 227.645 L 830.341 227.645 L 831.830 227.645 L 833.114 227.645 L 834.603 227.645 L 835.887 227.645 L 837.685 227.645 L 839.175 227.645 L 840.613 227.645 L 842.103 227.645 L 843.746 227.645 L 845.698 227.645 L 847.496 227.645 L 849.447 227.645 L 851.245 227.645 L 853.197 227.645 L 855.149 227.645 L 857.409 227.645 L 859.206 227.645 L 861.004 227.645 L 862.802 227.645 L 864.445 227.645 L 866.243 227.645 L 868.195 227.645 L 869.685 227.645 L 871.123 227.645 L 872.612 227.645 L 874.050 227.645 L 875.540 227.645 L 877.338 227.645 L 878.827 227.645 L 880.265 227.645 L 881.601 227.645 L 883.039 227.645 L 884.528 227.645 L 886.172 227.645 L 887.456 227.645 L 888.740 227.645 L 889.921 227.645 L 890.897 227.645 L 891.873 227.645 L 893.003 227.645 L 893.825 227.645 L 894.492 227.645 L 895.109 227.645 L 895.622 227.645 L 896.239 227.645 L 897.266 227.645 L 897.883 227.645 L 898.550 227.645 L 899.372 227.645 L 900.194 227.645 L 901.170 227.645 L 902.300 227.645 L 903.430 227.645 L 904.405 227.645 L 905.587 227.645 L 906.717 227.645 L 907.847 227.645 L 909.337 227.645 L 910.466 227.645 L 911.597 227.645 L 912.726 227.645 L 913.908 227.645 L 914.883 227.645 L 916.322 227.645 L 917.298 227.645 L 918.274 227.645 L 919.455 227.645 L 920.431 227.645 L 921.560 227.645 L 922.845 227.645 L 923.821 227.645 L 925.002 227.645 L 926.132 227.645 L 927.416 227.645 L 928.546 227.645 L 930.190 227.645 L 931.525 227.645 L 932.809 227.645 L 934.299 227.645 L 935.737 227.645 L 937.381 227.645 L 938.870 227.645 L 940.154 227.645 L 941.438 227.645 L 942.620 227.645 L 943.904 227.645 L 945.393 227.645 L 946.523 227.645 L 947.653 227.645 L 948.783 227.645 L 949.965 227.645 L 950.940 227.645 L 952.378 227.645 L 953.354 227.645 L 954.330 227.645 L 955.306 227.645 L 956.333 227.645 L 957.309 227.645 L 958.439 227.645 L 959.261 227.645 L 960.083 227.645 L 960.699 227.645 L 961.367 227.645 L 961.880 227.645 L 962.651 227.645 L 963.165 227.645 L 963.832 227.645 L 964.295 227.645 L 964.808 227.645 L 965.270 227.645 L 966.092 227.645 L 966.606 227.645 L 967.068 227.645 L 967.582 227.645 L 968.198 227.645 L 968.712 227.645 L 969.379 227.645 L 969.841 227.645 L 970.201 227.645 L 970.663 227.645 L 971.177 227.645 L 971.485 227.645 L 971.948 227.645 L 972.307 227.645 L 972.769 227.645 L 973.129 227.645 L 973.437 227.645 L 973.951 227.645 L 974.413 227.645 L 974.927 227.645 L 975.389 227.645 L 975.903 227.645 L 976.519 227.645 L 977.032 227.645 L 977.700 227.645 L 978.316 227.645 L 978.830 227.645 L 979.498 227.645 L 980.114 227.645 L 980.782 227.645 L 981.604 227.645 L 982.271 227.645 L 982.888 227.645 L 983.710 227.645 L 984.378 227.645 L 985.199 227.645 L 985.867 227.645 L 986.637 227.645 L 987.305 227.645 L 987.973 227.645 L 988.435 227.645 L 989.103 227.645 L 989.616 227.645 L 990.079 227.645 L 990.387 227.645 L 990.746 227.645 L 991.054 227.645 L 991.414 227.645 L 991.568 227.645 L 991.876 227.645 L 992.030 227.645 L 992.185 227.645 L 992.390 227.645 L 992.544 227.645 L 992.698 227.645 L 992.852 227.645 L 993.007 227.645 L 993.161 227.645 L 993.366 227.645 L 993.674 227.645 L 993.828 227.645 L 993.982 227.645 L 994.188 227.645 L 994.341 227.645 L 994.496 227.645 L 994.650 227.645 L 994.804 227.645 L 994.958 227.645 L 995.164 227.645 L 995.317 227.645 L 995.472 227.645 L 995.626 227.645 L 995.780 227.645 L 996.140 227.645 L 996.294 227.645 L 996.602 227.645 L 996.961 227.645 L 997.116 227.645 L 997.423 227.645 L 997.732 227.645 L 998.091 227.645 L 998.399 227.645 L 998.707 227.645 L 999.067 227.645 L 999.529 227.645 L 1000.043 227.645 L 1000.505 227.645 L 1001.018 227.645 L 1001.687 227.645 L 1002.303 227.645 L 1002.971 227.645 L 1003.793 227.645 L 1004.614 227.645 L 1005.436 227.645 L 1006.412 227.645 L 1007.234 227.645 L 1008.210 227.645 L 1009.031 227.645 L 1010.008 227.645 L 1010.983 227.645 L 1011.959 227.645 L 1012.781 227.645 L 1013.602 227.645 L 1014.373 227.645 L 1015.041 227.645 L 1015.862 227.645 L 1016.530 227.645 L 1017.147 227.645 L 1017.660 227.645 L 1018.174 227.645 L 1018.636 227.645 L 1019.304 227.645 L 1019.766 227.645 L 1020.126 227.645 L 1020.588 227.645 L 1021.102 227.645 L 1021.564 227.645 L 1022.078 227.645 L 1022.540 227.645 L 1023.054 227.645 L 1023.721 227.645 L 1024.184 227.645 L 1024.697 227.645 L 1025.313 227.645 L 1025.981 227.645 L 1026.495 227.645 L 1027.111 227.645 L 1027.625 227.645 L 1028.087 227.645 L 1028.755 227.645 L 1029.268 227.645 L 1029.731 227.645 L 1030.244 227.645 L 1030.707 227.645 L 1031.220 227.645 L 1031.682 227.645 L 1032.196 227.645 L 1032.658 227.645 L 1033.326 227.645 L 1033.788 227.645 L 1034.302 227.645 L 1035.124 227.645 L 1035.586 227.645 L 1036.254 227.645 L 1036.921 227.645 L 1037.743 227.645 L 1038.360 227.645 L 1039.336 227.645 L 1040.003 227.645 L 1040.825 227.645 L 1041.647 227.645 L 1042.469 227.645 L 1043.291 227.645 L 1044.266 227.645 L 1045.088 227.645 L 1046.064 227.645 L 1046.886 227.645 L 1047.656 227.645 L 1048.683 227.645 L 1049.814 227.645 L 1050.635 227.645 L 1051.611 227.645 L 1052.433 227.645 L 1053.255 227.645 L 1054.231 227.645 L 1055.206 227.645 L 1056.028 227.645 L 1056.799 227.645 L 1057.621 227.645 L 1058.442 227.645 L 1059.418 227.645 L 1060.086 227.645 L 1060.908 227.645 L 1061.729 227.645 L 1062.552 227.645 L 1063.168 227.645 L 1064.144 227.645 L 1064.965 227.645 L 1065.787 227.645 L 1066.609 227.645 L 1067.585 227.645 L 1068.406 227.645 L 1069.383 227.645 L 1070.359 227.645 L 1071.181 227.645 L 1072.156 227.645 L 1072.978 227.645 L 1073.954 227.645 L 1075.084 227.645 L 1075.906 227.645 L 1076.882 227.645 L 1077.858 227.645 L 1078.988 227.645 L 1079.964 227.645 L 1081.299 227.645 L 1082.429 227.645 L 1083.405 227.645 L 1084.535 227.645 L 1085.511 227.645 L 1086.692 227.645 L 1087.822 227.645 L 1088.797 227.645 L 1089.773 227.645 L 1090.750 227.645 L 1091.572 227.645 L 1092.547 227.645 L 1093.678 227.645 L 1094.499 227.645 L 1095.321 227.645 L 1096.143 227.645 L 1096.965 227.645 L 1097.786 227.645 L 1098.762 227.645 L 1099.584 227.645 L 1100.406 227.645 L 1101.022 227.645 L 1101.690 227.645 L 1102.203 227.645 L 1102.820 227.645 L 1103.333 227.645 L 1103.796 227.645 L 1104.155 227.645 L 1104.463 227.645 L 1104.617 227.645 L 1105.131 227.645 L 1105.439 227.645 L 1105.594 227.645 L 1105.953 227.645 L 1106.261 227.645 L 1106.569 227.645 L 1107.083 227.645 L 1107.545 227.645 L 1107.904 227.645 L 1108.213 227.645 L 1108.727 227.645 L 1109.189 227.645 L 1109.703 227.645 L 1110.010 227.645 L 1110.525 227.645 L 1110.986 227.645 L 1111.500 227.645 L 1112.116 227.645 L 1112.630 227.645 L 1113.298 227.645 L 1113.914 227.645 L 1114.582 227.645 L 1115.250 227.645 L 1116.071 227.645 L 1116.688 227.645 L 1117.356 227.645 L 1118.023 227.645 L 1118.845 227.645 L 1119.462 227.645 L 1120.437 227.645 L 1121.259 227.645 L 1122.081 227.645 L 1123.057 227.645 L 1124.033 227.645 L 1125.008 227.645 L 1126.190 227.645 L 1127.320 227.645 L 1128.296 227.645 L 1129.272 227.645 L 1130.401 227.645 L 1131.378 227.645 L 1132.507 227.645 L 1133.484 227.645 L 1134.511 227.645 L 1135.486 227.645 L 1136.463 227.645 L 1137.438 227.645 L 1138.568 227.645 L 1139.390 227.645 L 1140.366 227.645 L 1141.188 227.645 L 1142.009 227.645 L 1142.831 227.645 L 1143.962 227.645 L 1144.783 227.645 L 1145.759 227.645 L 1146.581 227.645 L 1147.557 227.645 L 1148.532 227.645 L 1149.663 227.645 L 1150.638 227.645 L 1151.460 227.645 L 1152.436 227.645 L 1153.258 227.645 L 1154.080 227.645 L 1155.056 227.645 L 1155.878 227.645 L 1156.494 227.645 L 1157.161 227.645 L 1157.675 227.645 L 1158.138 227.645 L 1158.805 227.645 L 1159.267 227.645 L 1159.781 227.645 L 1160.089 227.645 L 1160.603 227.645 L 1161.066 227.645 L 1161.579 227.645 L 1161.887 227.645 L 1162.401 227.645 L 1162.709 227.645 L 1163.222 227.645 L 1163.685 227.645 L 1164.044 227.645 L 1164.506 227.645 L 1164.815 227.645 L 1165.174 227.645 L 1165.483 227.645 L 1165.996 227.645 L 1166.304 227.645 L 1166.612 227.645 L 1166.972 227.645 L 1167.280 227.645 L 1167.589 227.645 L 1168.102 227.645 L 1168.564 227.645 L 1169.078 227.645 L 1169.591 227.645 L 1170.054 227.645 L 1170.567 227.645 L 1171.338 227.645 L 1172.005 227.645 L 1172.673 227.645 L 1173.341 227.645 L 1173.957 227.645 L 1174.625 227.645 L 1175.447 227.645 L 1176.269 227.645 L 1176.885 227.645 L 1177.399 227.645 L 1178.067 227.645 L 1178.683 227.645 L 1179.350 227.645 L 1179.864 227.645 L 1180.326 227.645 L 1180.840 227.645 L 1181.302 227.645 L 1181.816 227.645 L 1182.432 227.645 L 1182.946 227.645 L 1183.459 227.645 L 1183.921 227.645 L 1184.435 227.645 L 1184.898 227.645 L 1185.411 227.645 L 1185.874 227.645 L 1186.387 227.645 L 1186.849 227.645 L 1187.209 227.645 L 1187.671 227.645 L 1188.185 227.645 L 1188.493 227.645 L 1188.647 227.645 L 1189.006 227.645 L 1189.161 227.645 L 1189.315 227.645 L 1189.623 227.645 L 1189.777 227.645 L 1189.983 227.645 L 1190.136 227.645 L 1190.291 227.645 L 1190.444 227.645 L 1190.599 227.645 L 1190.753 227.645 L 1190.958 227.645 L 1191.575 227.645 "></path>
  </g>
  <g id="Pen" opacity="1.000">
    <path id="STROKE_4ec6dd4e-552a-4e2a-bdf2-837cc3c3c560" opacity="1.000" fill="none" stroke="#000000" stroke-width="5.209" stroke-opacity="1.000" stroke-linecap="round" stroke-linejoin="round" d="M 317.467 220.053 L 315.111 220.120 L 314.735 220.130 L 314.386 220.139 L 314.004 220.148 L 313.441 220.161 L 312.870 220.174 L 312.199 220.187 L 311.392 220.202 L 310.507 220.217 L 309.473 220.231 L 308.318 220.244 L 307.141 220.255 L 305.944 220.264 L 304.626 220.271 L 303.294 220.276 L 301.807 220.281 L 300.239 220.284 L 298.880 220.285 L 297.516 220.287 L 296.150 220.287 L 294.746 220.288 L 293.521 220.288 L 292.008 220.288 L 290.747 220.288 L 289.485 220.289 L 288.223 220.289 L 286.962 220.289 L 285.736 220.289 L 284.222 220.289 L 282.960 220.289 L 281.698 220.289 L 280.328 220.289 L 278.958 220.289 L 277.372 220.289 L 275.533 220.289 L 273.911 220.289 L 272.216 220.289 L 270.378 220.289 L 268.323 220.289 L 266.232 220.289 L 263.744 220.289 L 261.545 220.289 L 259.274 220.289 L 256.858 220.289 L 254.335 220.289 L 251.703 220.289 L 248.494 220.289 L 245.754 220.289 L 242.762 220.289 L 239.553 220.289 L 236.128 220.289 L 232.595 220.289 L 228.341 220.289 L 224.772 220.289 L 221.131 220.289 L 217.345 220.289 L 213.560 220.289 L 209.666 220.289 L 205.088 220.289 L 201.302 220.289 L 197.409 220.289 L 193.515 220.289 L 189.730 220.289 L 185.836 220.289 L 181.618 220.289 L 178.193 220.289 L 174.624 220.289 L 170.947 220.289 L 167.053 220.289 L 163.051 220.289 L 158.364 220.289 L 154.363 220.289 L 150.361 220.289 L 146.467 220.289 L 142.430 220.289 L 137.851 220.289 L 134.210 220.289 L 130.424 220.289 L 126.531 220.289 L 122.529 220.289 L 118.635 220.289 L 114.165 220.289 L 110.596 220.289 L 107.171 220.289 L 103.638 220.289 L 100.177 220.289 L 96.644 220.289 L 92.498 220.289 L 89.181 220.289 L 85.648 220.289 L 82.079 220.289 L 78.437 220.289 L 74.868 220.289 L 70.866 220.289 L 67.550 220.289 L 64.233 220.289 L 60.664 220.289 L 57.131 220.289 L 53.345 220.289 L 48.983 220.289 L 45.342 220.289 L 41.556 220.289 L 37.879 220.289 L 34.094 220.289 L 30.200 220.289 L 25.729 220.289 L 22.196 220.289 L 18.411 220.289 L 14.625 220.289 L 10.732 220.289 L 6.730 220.289 L 2.260 220.289 L -1.273 220.289 L -4.951 220.289 L -8.844 220.289 L -12.846 220.289 L -16.992 220.289 L -22.003 220.289 L -26.366 220.289 L -30.728 220.289 L -35.198 220.289 L -39.416 220.289 L -43.779 220.289 L -48.718 220.289 L -52.719 220.289 L -56.829 220.289 L -61.300 220.289 L -65.770 220.289 L -70.241 220.289 L -75.144 220.289 L -79.037 220.289 L -82.931 220.289 L -87.077 220.289 L -91.295 220.289 L -95.549 220.289 L -100.452 220.289 L -104.598 220.289 L -108.600 220.289 L -112.602 220.289 L -116.387 220.289 L -120.281 220.289 L -124.643 220.289 L -128.176 220.289 L -131.853 220.289 L -135.747 220.289 L -139.532 220.289 L -143.751 220.289 L -147.212 220.289 L -150.528 220.289 L -153.845 220.289 L -157.054 220.289 L -160.154 220.289 L -163.687 220.289 L -166.680 220.289 L -169.744 220.289 L -172.736 220.289 L -175.729 220.289 L -178.685 220.289 L -181.893 220.289 L -184.417 220.289 L -186.941 220.289 L -189.212 220.289 L -191.519 220.289 L -193.827 220.289 L -196.567 220.289 L -198.513 220.289 L -200.568 220.289 L -202.623 220.289 L -204.678 220.289 L -206.625 220.289 L -209.041 220.289 L -210.879 220.289 L -212.826 220.289 L -214.773 220.289 L -216.720 220.289 L -218.775 220.289 L -221.190 220.289 L -223.137 220.289 L -225.084 220.289 L -227.139 220.289 L -229.194 220.289 L -231.249 220.289 L -233.772 220.289 L -235.827 220.289 L -238.026 220.289 L -240.298 220.289 L -242.605 220.289 L -244.876 220.289 L -247.760 220.289 L -250.032 220.289 L -252.339 220.289 L -254.754 220.289 L -257.134 220.289 L -259.657 220.289 L -262.397 220.289 L -264.597 220.289 L -266.976 220.289 L -269.391 220.289 L -271.915 220.289 L -274.547 220.289 L -277.539 220.289 L -280.171 220.289 L -282.803 220.289 L -285.543 220.289 L -288.283 220.289 L -291.059 220.289 L -294.267 220.289 L -296.647 220.289 L -299.062 220.289 L -301.225 220.289 L -303.533 220.289 L -306.056 220.289 L -308.003 220.289 L -309.950 220.289 L -311.789 220.289 L -313.591 220.289 L -315.322 220.289 L -317.485 220.289 L -319.215 220.289 L -320.838 220.289 L -322.532 220.289 L -324.262 220.289 L -325.957 220.289 L -327.904 220.289 L -329.418 220.289 L -330.896 220.289 L -332.518 220.289 L -333.997 220.289 L -335.475 220.289 L -337.313 220.289 L -338.791 220.289 L -340.414 220.289 L -341.892 220.289 L -343.622 220.289 L -345.209 220.289 L -347.155 220.289 L -348.778 220.289 L -350.364 220.289 L -352.095 220.289 L -354.041 220.289 L -355.988 220.289 L -358.368 220.289 L -360.314 220.289 L -362.261 220.289 L -364.244 220.289 L -366.299 220.289 L -368.138 220.289 L -370.301 220.289 L -372.031 220.289 L -373.726 220.289 L -375.348 220.289 L -377.042 220.289 L -378.557 220.289 L -380.359 220.289 L -381.765 220.289 L -382.991 220.289 L -384.145 220.289 L -385.298 220.289 L -386.452 220.289 L -387.822 220.289 L -388.867 220.289 L -389.769 220.289 L -390.922 220.289 L -391.932 220.289 L -393.086 220.289 L -394.456 220.289 L -395.609 220.289 L -396.763 220.289 L -397.772 220.289 L -398.926 220.289 L -399.971 220.289 L -401.089 220.289 L -401.918 220.289 L -402.603 220.289 L -403.288 220.289 L -403.865 220.289 L -404.298 220.289 L -404.766 220.289 L -405.127 220.289 L -405.343 220.289 L -405.560 220.289 L -405.668 220.289 L -406.028 220.289 L -406.245 220.289 L -406.389 220.289 L -406.605 220.289 L -406.821 220.289 L -407.182 220.289 L -407.506 220.289 L -407.867 220.289 L -408.191 220.289 L -408.660 220.289 L -409.021 220.289 L -409.453 220.289 L -409.922 220.289 L -410.391 220.289 L -410.715 220.289 L -410.967 220.289 L -411.292 220.289 L -411.508 220.289 L -411.760 220.289 L -411.869 220.289 L -411.977 220.289 L -412.085 220.289 L -412.229 220.289 L -412.337 220.289 L -412.445 220.289 L -412.554 220.289 L -412.662 220.289 L -412.770 220.289 L -412.914 220.289 L -413.022 220.289 L -413.130 220.289 L -413.347 220.289 L -413.599 220.289 L -413.924 220.289 L -414.392 220.289 L -414.861 220.289 L -415.438 220.289 L -416.123 220.289 L -416.808 220.289 L -417.493 220.289 L -418.286 220.289 L -419.079 220.289 L -420.016 220.289 L -420.810 220.289 L -421.711 220.289 L -422.396 220.289 L -423.225 220.289 L -423.910 220.289 L -424.703 220.289 L -425.280 220.289 L -425.857 220.289 L -426.289 220.289 L -426.758 220.289 L -427.227 220.289 L -427.804 220.289 L -428.128 220.289 L -428.489 220.289 L -428.813 220.289 L -429.174 220.289 L -429.498 220.289 L -429.859 220.289 L -430.183 220.289 L -430.435 220.289 L -430.760 220.289 L -431.012 220.289 L -431.337 220.289 L -431.697 220.289 L -432.022 220.289 L -432.382 220.289 L -432.707 220.289 L -432.959 220.289 L -433.283 220.289 L -433.752 220.289 L -433.968 220.289 L -434.329 220.289 L -434.545 220.289 L -434.906 220.289 L -435.122 220.289 L -435.591 220.289 L -435.807 220.289 L -436.023 220.289 L -436.276 220.289 L -436.600 220.289 L -436.853 220.289 L -437.177 220.289 L -437.393 220.289 L -437.646 220.289 L -437.862 220.289 L -438.114 220.289 L -438.331 220.289 L -438.655 220.289 L -438.908 220.289 L -439.232 220.289 L -439.484 220.289 L -439.701 220.289 L -440.061 220.289 L -440.278 220.289 L -440.602 220.289 L -440.854 220.289 L -441.179 220.289 L -441.539 220.289 L -441.864 220.289 L -442.116 220.289 L -442.441 220.289 L -442.693 220.289 L -442.909 220.289 L -443.234 220.289 L -443.486 220.289 L -443.702 220.289 L -443.955 220.289 L -444.171 220.289 L -444.387 220.289 L -444.640 220.289 L -444.856 220.289 L -444.964 220.289 L -445.072 220.289 L -445.181 220.289 L -445.325 220.289 L -445.433 220.289 L -445.541 220.289 L -445.649 220.289 L -445.757 220.289 L -446.118 220.289 "></path>
    <path id="STROKE_43f1950f-3223-44cd-82d7-82d03e5ee4b1" opacity="1.000" fill="none" stroke="#000000" stroke-width="5.209" stroke-opacity="1.000" stroke-linecap="round" stroke-linejoin="round" d="M -446.118 220.289 L -446.118 219.937 L -446.118 219.829 L -446.118 219.721 L -446.118 219.586 L -446.118 219.478 L -446.118 219.370 L -446.118 219.262 L -446.118 219.127 L -446.118 219.018 L -446.118 218.910 L -446.118 218.802 L -446.118 218.559 L -446.118 218.343 L -446.118 217.991 L -446.118 217.748 L -446.118 217.289 L -446.118 216.829 L -446.118 216.370 L -446.118 215.802 L -446.118 215.127 L -446.118 214.316 L -446.118 213.397 L -446.118 212.262 L -446.118 210.992 L -446.118 209.613 L -446.118 208.127 L -446.118 206.397 L -446.118 204.560 L -446.118 202.506 L -446.118 199.965 L -446.118 197.452 L -446.118 194.803 L -446.118 192.047 L -446.118 189.182 L -446.118 186.209 L -446.118 182.750 L -446.118 179.885 L -446.118 176.912 L -446.118 174.021 L -446.118 171.156 L -446.118 168.534 L -446.118 165.643 L -446.118 163.481 L -446.118 161.291 L -446.118 159.237 L -446.118 157.156 L -446.118 155.211 L -446.118 152.805 L -446.118 150.968 L -446.118 149.130 L -446.118 147.292 L -446.118 145.238 L -446.118 142.806 L -446.118 140.860 L -446.118 138.806 L -446.118 136.725 L -446.118 134.671 L -446.118 132.725 L -446.118 130.428 L -446.118 128.698 L -446.118 127.104 L -446.118 125.482 L -446.118 123.888 L -446.118 122.401 L -446.118 120.780 L -446.118 119.753 L -446.118 118.726 L -446.118 117.807 L -446.118 116.888 L -446.118 115.969 L -446.118 114.699 L -446.118 113.672 L -446.118 112.510 L -446.118 111.267 L -446.118 109.997 L -446.118 108.618 L -446.118 107.024 L -446.118 105.510 L -446.118 103.916 L -446.118 102.078 L -446.118 100.132 L -446.118 98.051 L -446.118 95.646 L -446.118 93.592 L -446.118 91.403 L -446.118 89.349 L -446.118 87.268 L -446.118 85.214 L -446.118 82.917 L -446.118 81.187 L -446.118 79.458 L -446.118 77.863 L -446.118 76.241 L -446.118 74.755 L -446.118 73.052 L -446.118 71.674 L -446.118 70.296 L -446.118 68.917 L -446.118 67.539 L -446.118 66.269 L -446.118 64.674 L -446.118 63.512 L -446.118 62.134 L -446.118 60.756 L -446.118 59.377 L -446.118 57.891 L -446.118 56.161 L -446.118 54.918 L -446.118 53.405 L -446.118 52.026 L -446.118 50.648 L -446.118 49.297 L -446.118 47.675 L -446.118 46.297 L -446.118 45.162 L -446.118 43.892 L -446.118 42.730 L -446.118 41.594 L -446.118 40.216 L -446.118 39.297 L -446.118 38.486 L -446.118 38.027 "></path>
    <path id="STROKE_053eff80-3002-4e67-a233-ae3e65c51aec" opacity="1.000" fill="none" stroke="#000000" stroke-width="5.209" stroke-opacity="1.000" stroke-linecap="round" stroke-linejoin="round" d="M -445.689 35.482 L -439.164 35.482 L -436.856 35.482 L -434.477 35.482 L -431.701 35.482 L -428.961 35.482 L -425.969 35.482 L -423.012 35.482 L -419.587 35.482 L -416.595 35.482 L -413.603 35.482 L -410.647 35.482 L -407.654 35.482 L -404.554 35.482 L -401.021 35.482 L -397.920 35.482 L -394.603 35.482 L -390.926 35.482 L -387.033 35.482 L -382.346 35.482 L -378.236 35.482 L -373.874 35.482 L -369.187 35.482 L -364.248 35.482 L -359.200 35.482 L -353.252 35.482 L -348.349 35.482 L -343.410 35.482 L -338.254 35.482 L -333.315 35.482 L -328.412 35.482 L -322.572 35.482 L -317.633 35.482 L -312.477 35.482 L -307.105 35.482 L -301.626 35.482 L -296.110 35.482 L -289.801 35.482 L -284.321 35.482 L -278.588 35.482 L -272.640 35.482 L -266.691 35.482 L -260.959 35.482 L -254.650 35.482 L -249.494 35.482 L -244.231 35.482 L -238.715 35.482 L -233.451 35.482 L -228.188 35.482 L -222.600 35.482 L -218.237 35.482 L -213.875 35.482 L -209.297 35.482 L -204.502 35.482 L -199.779 35.482 L -194.515 35.482 L -190.297 35.482 L -185.935 35.482 L -181.573 35.482 L -177.102 35.482 L -172.415 35.482 L -166.936 35.482 L -162.357 35.482 L -157.778 35.482 L -153.056 35.482 L -148.369 35.482 L -143.574 35.482 L -137.950 35.482 L -133.155 35.482 L -128.000 35.482 L -122.700 35.482 L -117.436 35.482 L -112.065 35.482 L -106.116 35.482 L -100.852 35.482 L -94.904 35.482 L -88.342 35.482 L -81.709 35.482 L -75.075 35.482 L -67.396 35.482 L -60.763 35.482 L -53.769 35.482 L -46.666 35.482 L -39.564 35.482 L -32.714 35.482 L -24.927 35.482 L -18.366 35.482 L -11.732 35.482 L -5.099 35.482 L 1.319 35.482 L 8.529 35.482 L 14.586 35.482 L 21.003 35.482 L 27.312 35.482 L 33.621 35.482 L 39.678 35.482 L 46.203 35.482 L 51.719 35.482 L 57.451 35.482 L 63.292 35.482 L 69.132 35.482 L 74.720 35.482 L 80.921 35.482 L 86.185 35.482 L 91.809 35.482 L 97.397 35.482 L 102.913 35.482 L 108.285 35.482 L 113.909 35.482 L 118.379 35.482 L 122.958 35.482 L 127.536 35.482 L 132.115 35.482 L 136.225 35.482 L 140.587 35.482 L 144.012 35.482 L 147.221 35.482 L 150.213 35.482 L 153.169 35.482 L 156.162 35.482 L 159.478 35.482 L 162.218 35.482 L 164.994 35.482 L 167.842 35.482 L 170.835 35.482 L 173.575 35.482 L 176.675 35.482 L 179.055 35.482 L 181.362 35.482 L 183.525 35.482 L 185.472 35.482 L 187.310 35.482 L 189.257 35.482 L 190.519 35.482 L 191.673 35.482 L 192.574 35.482 L 193.511 35.482 L 194.305 35.482 L 195.098 35.482 L 195.675 35.482 L 196.360 35.482 L 197.044 35.482 L 197.838 35.482 L 198.631 35.482 L 199.893 35.482 L 200.938 35.482 L 202.092 35.482 L 203.354 35.482 L 204.615 35.482 L 205.733 35.482 L 207.139 35.482 L 208.257 35.482 L 209.518 35.482 L 210.672 35.482 L 211.934 35.482 L 213.412 35.482 L 214.782 35.482 L 216.044 35.482 L 217.414 35.482 L 218.820 35.482 L 220.190 35.482 L 221.776 35.482 L 223.146 35.482 L 224.660 35.482 L 226.138 35.482 L 227.725 35.482 L 229.347 35.482 L 231.294 35.482 L 232.880 35.482 L 234.719 35.482 L 236.449 35.482 L 238.288 35.482 L 240.235 35.482 L 242.398 35.482 L 244.128 35.482 L 245.931 35.482 L 247.769 35.482 L 249.608 35.482 L 251.555 35.482 L 253.862 35.482 L 255.701 35.482 L 257.504 35.482 L 259.450 35.482 L 261.397 35.482 L 263.344 35.482 L 265.651 35.482 L 267.490 35.482 L 269.437 35.482 L 271.275 35.482 L 273.078 35.482 L 274.917 35.482 L 276.863 35.482 L 278.378 35.482 L 279.748 35.482 L 281.009 35.482 L 282.271 35.482 L 283.281 35.482 L 284.651 35.482 L 285.588 35.482 L 286.381 35.482 L 287.282 35.482 L 288.112 35.482 L 288.905 35.482 L 290.058 35.482 L 290.852 35.482 L 291.645 35.482 L 292.438 35.482 L 293.123 35.482 L 293.808 35.482 L 294.493 35.482 L 294.961 35.482 L 295.430 35.482 L 295.755 35.482 L 296.007 35.482 L 296.331 35.482 L 296.692 35.482 L 296.800 35.482 L 296.908 35.482 L 297.125 35.482 L 297.269 35.482 L 297.377 35.482 L 297.593 35.482 L 297.846 35.482 L 298.170 35.482 L 298.531 35.482 L 298.855 35.482 L 299.432 35.482 L 299.901 35.482 L 300.477 35.482 L 301.054 35.482 L 301.595 35.482 L 302.280 35.482 L 303.109 35.482 L 303.686 35.482 L 304.371 35.482 L 304.948 35.482 L 305.489 35.482 L 306.065 35.482 L 306.534 35.482 L 307.003 35.482 L 307.219 35.482 L 307.435 35.482 L 307.580 35.482 L 307.688 35.482 L 307.796 35.482 L 307.904 35.482 L 308.012 35.482 L 308.120 35.482 L 308.373 35.482 L 308.589 35.482 L 308.950 35.482 L 309.166 35.482 L 309.526 35.482 L 309.851 35.482 L 310.067 35.482 L 310.428 35.482 L 310.788 35.482 L 311.005 35.482 L 311.329 35.482 L 311.690 35.482 L 312.014 35.482 L 312.266 35.482 L 312.591 35.482 L 312.735 35.482 L 312.843 35.482 L 312.951 35.482 L 313.060 35.482 L 313.168 35.482 L 313.276 35.482 L 313.420 35.482 L 313.528 35.482 L 313.636 35.482 L 313.745 35.482 L 313.853 35.482 L 313.961 35.482 L 314.105 35.482 L 314.213 35.482 L 314.321 35.482 L 314.430 35.482 L 314.538 35.482 L 314.682 35.482 L 314.790 35.482 L 314.898 35.482 L 315.006 35.482 L 315.114 35.482 L 315.223 35.482 L 315.367 35.482 L 315.475 35.482 L 315.583 35.482 L 315.691 35.482 L 315.799 35.482 L 315.908 35.482 L 316.052 35.482 L 316.160 35.482 L 316.268 35.482 L 316.376 35.482 L 316.485 35.482 L 316.953 35.482 "></path>
    <path id="STROKE_e44bbc87-eee2-4aba-88e9-b1516b7f4cd5" opacity="1.000" fill="none" stroke="#000000" stroke-width="5.209" stroke-opacity="1.000" stroke-linecap="round" stroke-linejoin="round" d="M 316.953 35.482 L 316.953 41.563 L 316.953 42.482 L 316.953 43.536 L 316.953 44.671 L 316.953 45.941 L 316.953 47.212 L 316.953 48.563 L 316.953 50.184 L 316.953 51.779 L 316.953 53.400 L 316.953 55.130 L 316.953 56.941 L 316.953 58.914 L 316.953 60.968 L 316.953 62.805 L 316.953 64.643 L 316.953 66.481 L 316.953 68.319 L 316.953 70.048 L 316.953 72.102 L 316.953 73.697 L 316.953 75.318 L 316.953 76.913 L 316.953 78.534 L 316.953 80.021 L 316.953 81.967 L 316.953 83.345 L 316.953 84.831 L 316.953 86.210 L 316.953 87.588 L 316.953 89.318 L 316.953 90.588 L 316.953 91.831 L 316.953 93.101 L 316.953 94.263 L 316.953 95.507 L 316.953 96.993 L 316.953 98.155 L 316.953 99.182 L 316.953 100.344 L 316.953 101.479 L 316.953 102.749 L 316.953 104.128 L 316.953 105.263 L 316.953 106.425 L 316.953 107.452 L 316.953 108.587 L 316.953 109.641 L 316.953 110.884 L 316.953 111.938 L 316.953 112.965 L 316.953 113.884 L 316.953 114.803 L 316.953 115.722 L 316.953 116.857 L 316.953 117.776 L 316.953 118.695 L 316.953 119.505 L 316.953 120.424 L 316.953 121.343 L 316.953 122.478 L 316.953 123.397 L 316.953 124.316 L 316.953 125.343 L 316.953 126.397 L 316.953 127.424 L 316.953 128.694 L 316.953 129.829 L 316.953 130.856 L 316.953 132.018 L 316.953 133.261 L 316.953 134.424 L 316.953 135.910 L 316.953 137.045 L 316.953 138.315 L 316.953 139.477 L 316.953 140.612 L 316.953 141.639 L 316.953 143.018 L 316.953 144.072 L 316.953 144.991 L 316.953 146.018 L 316.953 146.937 L 316.953 147.855 L 316.953 148.990 L 316.953 149.801 L 316.953 150.720 L 316.953 151.531 L 316.953 152.450 L 316.953 153.234 L 316.953 154.260 L 316.953 155.179 L 316.953 156.098 L 316.953 157.017 L 316.953 157.936 L 316.953 158.855 L 316.953 160.017 L 316.953 160.936 L 316.953 161.855 L 316.953 162.774 L 316.953 163.692 L 316.953 164.719 L 316.953 165.530 L 316.953 166.449 L 316.953 167.233 L 316.953 168.044 L 316.953 168.962 L 316.953 169.989 L 316.953 170.800 L 316.953 171.611 L 316.953 172.530 L 316.953 173.314 L 316.953 174.124 L 316.953 175.151 L 316.953 175.962 L 316.953 176.773 L 316.953 177.449 L 316.953 178.259 L 316.953 178.935 L 316.953 179.746 L 316.953 180.313 L 316.953 180.773 L 316.953 181.367 L 316.953 181.827 L 316.953 182.151 L 316.953 182.746 L 316.953 182.962 L 316.953 183.421 L 316.953 183.773 L 316.953 184.232 L 316.953 184.691 L 316.953 185.259 L 316.953 185.718 L 316.953 186.178 L 316.953 186.745 L 316.953 187.313 L 316.953 188.016 L 316.953 188.826 L 316.953 189.394 L 316.953 190.070 L 316.953 190.772 L 316.953 191.340 L 316.953 192.042 L 316.953 192.718 L 316.953 193.286 L 316.953 193.745 L 316.953 194.205 L 316.953 194.664 L 316.953 195.123 L 316.953 195.583 L 316.953 195.934 L 316.953 196.286 L 316.953 196.610 L 316.953 196.961 L 316.953 197.312 L 316.953 197.772 L 316.953 197.988 L 316.953 198.339 L 316.953 198.691 L 316.953 199.042 L 316.953 199.258 L 316.953 199.718 L 316.953 199.961 L 316.953 200.285 L 316.953 200.529 L 316.953 200.880 L 316.953 201.096 L 316.953 201.447 L 316.953 201.664 L 316.953 201.907 L 316.953 202.231 L 316.953 202.583 L 316.953 203.042 L 316.953 203.393 L 316.953 203.745 L 316.953 204.204 L 316.953 204.528 L 316.953 204.880 L 316.953 205.339 L 316.953 205.690 L 316.953 206.042 L 316.953 206.366 L 316.953 206.717 L 316.953 206.961 L 316.953 207.420 L 316.953 207.636 L 316.953 207.880 L 316.953 208.204 L 316.953 208.447 L 316.953 208.663 L 316.953 209.015 L 316.953 209.366 L 316.953 209.717 L 316.953 210.042 L 316.953 210.393 L 316.953 210.744 L 316.953 211.204 L 316.953 211.528 L 316.953 211.771 L 316.953 212.123 L 316.953 212.447 L 316.953 212.690 L 316.953 213.041 L 316.953 213.258 L 316.953 213.501 L 316.953 213.825 L 316.953 213.960 L 316.953 214.177 L 316.953 214.528 L 316.953 214.636 L 316.953 214.744 L 316.953 214.987 L 316.953 215.095 L 316.953 215.204 L 316.953 215.339 L 316.953 215.447 L 316.953 215.555 L 316.953 215.663 L 316.953 215.798 L 316.953 215.906 L 316.953 216.014 L 316.953 216.122 L 316.953 216.258 L 316.953 216.366 L 316.953 216.474 L 316.953 216.582 L 316.953 216.717 L 316.953 216.825 L 316.953 216.933 L 316.953 217.041 L 316.953 217.176 L 316.953 217.285 L 316.953 217.393 L 316.953 217.501 L 316.953 217.636 L 316.953 217.744 "></path>
  </g>
  <g id="New_Layer_2" opacity="1.000">
    <path id="STROKE_944e8668-41b0-4de9-bb90-e474863405a8" opacity="1.000" fill="#d3dbdc" stroke="#d3dbdc" stroke-width="0.500" stroke-opacity="1.000" stroke-linecap="round" stroke-linejoin="round" d="M 253.392 33.864 L 253.467 33.637 Q 253.520 33.426 253.699 30.533 Q 253.878 27.640 253.871 26.080 Q 253.864 24.519 253.853 24.054 Q 253.841 23.589 253.816 22.299 Q 253.790 21.010 253.771 20.302 Q 253.753 19.594 253.730 18.371 Q 253.707 17.148 253.690 16.477 Q 253.672 15.806 253.656 14.859 Q 253.640 13.912 253.644 13.583 Q 253.647 13.254 253.641 12.429 Q 253.635 11.604 253.630 10.903 Q 253.625 10.203 253.666 9.200 Q 253.706 8.196 253.749 7.709 Q 253.792 7.223 253.839 6.889 Q 253.885 6.555 253.998 6.084 Q 254.111 5.613 254.608 4.299 Q 255.106 2.985 255.401 2.455 Q 255.697 1.925 256.134 1.306 Q 256.571 0.687 257.381 -0.283 Q 258.191 -1.253 258.802 -1.902 Q 259.413 -2.550 259.745 -2.874 Q 260.078 -3.198 260.176 -3.296 Q 260.275 -3.394 260.800 -3.887 Q 261.326 -4.380 261.658 -4.680 Q 261.990 -4.979 262.723 -5.600 Q 263.456 -6.221 263.879 -6.580 Q 264.301 -6.939 264.667 -7.248 Q 265.033 -7.558 265.459 -7.908 Q 265.885 -8.259 266.233 -8.541 Q 266.581 -8.823 267.227 -9.305 Q 267.872 -9.787 268.512 -10.247 Q 269.152 -10.707 269.801 -11.126 Q 270.450 -11.545 270.784 -11.751 Q 271.118 -11.957 271.764 -12.305 Q 272.410 -12.654 272.795 -12.829 Q 273.180 -13.004 274.056 -13.326 Q 274.931 -13.649 275.244 -13.745 Q 275.558 -13.842 276.015 -13.965 Q 276.473 -14.089 277.478 -14.307 Q 278.483 -14.526 279.983 -14.829 Q 281.483 -15.131 282.928 -15.348 Q 284.373 -15.564 285.057 -15.635 Q 285.742 -15.705 287.472 -15.892 Q 289.202 -16.078 291.934 -16.260 Q 294.665 -16.442 297.183 -16.459 Q 299.701 -16.476 301.902 -16.378 Q 304.103 -16.280 305.172 -16.223 Q 306.241 -16.165 307.137 -16.111 Q 308.033 -16.058 309.406 -15.982 Q 310.778 -15.906 311.971 -15.865 Q 313.163 -15.824 314.332 -15.825 Q 315.500 -15.826 317.326 -15.889 Q 319.152 -15.953 322.665 -16.109 Q 326.178 -16.266 327.918 -16.311 Q 329.659 -16.356 330.774 -16.341 Q 331.890 -16.325 334.201 -16.272 Q 336.512 -16.220 338.080 -16.243 Q 339.648 -16.265 341.644 -16.319 Q 343.641 -16.372 344.815 -16.415 Q 345.989 -16.459 348.252 -16.633 Q 350.516 -16.808 351.647 -16.940 Q 352.777 -17.073 354.216 -17.204 Q 355.654 -17.336 357.525 -17.424 Q 359.396 -17.513 361.584 -17.454 Q 363.772 -17.396 364.720 -17.353 Q 365.667 -17.311 366.733 -17.284 Q 367.799 -17.257 368.904 -17.228 Q 370.008 -17.199 371.436 -17.204 Q 372.864 -17.210 375.000 -17.310 Q 377.136 -17.410 378.386 -17.516 Q 379.635 -17.622 381.258 -17.820 Q 382.880 -18.018 385.556 -18.192 Q 388.233 -18.366 389.784 -18.381 Q 391.334 -18.396 392.472 -18.405 Q 393.609 -18.414 394.228 -18.432 Q 394.847 -18.451 395.401 -18.465 Q 395.955 -18.479 397.966 -18.584 Q 399.978 -18.688 403.450 -18.962 Q 406.921 -19.236 408.677 -19.360 Q 410.432 -19.483 411.604 -19.560 Q 412.776 -19.637 413.596 -19.702 Q 414.417 -19.767 415.257 -19.851 Q 416.097 -19.936 417.936 -20.091 Q 419.775 -20.245 421.599 -20.327 Q 423.423 -20.409 424.799 -20.425 Q 426.174 -20.440 428.140 -20.424 Q 430.107 -20.407 433.977 -20.575 Q 437.847 -20.743 439.929 -20.904 Q 442.011 -21.064 443.238 -21.225 Q 444.465 -21.385 446.219 -21.640 Q 447.973 -21.894 450.644 -22.203 Q 453.316 -22.511 454.741 -22.643 Q 456.166 -22.776 456.938 -22.842 Q 457.711 -22.908 458.948 -22.963 Q 460.185 -23.018 461.408 -23.037 Q 462.631 -23.056 463.986 -23.021 Q 465.341 -22.986 466.251 -22.914 Q 467.161 -22.842 469.823 -22.694 Q 472.485 -22.546 475.069 -22.581 Q 477.653 -22.616 478.876 -22.678 Q 480.099 -22.740 480.630 -22.776 Q 481.162 -22.812 487.712 -23.323 Q 494.263 -23.834 495.258 -23.935 Q 496.254 -24.036 497.093 -24.132 Q 497.932 -24.228 498.687 -24.306 Q 499.442 -24.384 501.430 -24.581 Q 503.417 -24.779 506.565 -25.001 Q 509.712 -25.223 511.297 -25.325 Q 512.881 -25.426 513.875 -25.510 Q 514.869 -25.593 516.139 -25.692 Q 517.410 -25.790 519.648 -25.951 Q 521.887 -26.112 523.101 -26.223 Q 524.316 -26.334 525.828 -26.463 Q 527.340 -26.593 528.941 -26.686 Q 530.543 -26.780 531.923 -26.845 Q 533.303 -26.911 534.370 -26.960 Q 535.437 -27.009 537.918 -27.109 Q 540.399 -27.208 542.683 -27.370 Q 544.967 -27.531 546.221 -27.647 Q 547.476 -27.763 550.897 -28.023 Q 554.318 -28.282 556.157 -28.418 Q 557.995 -28.553 558.990 -28.609 Q 559.985 -28.665 561.223 -28.758 Q 562.461 -28.852 563.180 -28.897 Q 563.899 -28.941 565.463 -29.001 Q 567.026 -29.061 567.442 -29.069 Q 567.857 -29.076 568.077 -29.068 Q 568.296 -29.060 571.376 -29.146 Q 574.456 -29.232 576.078 -29.282 Q 577.701 -29.332 579.096 -29.284 Q 580.492 -29.236 580.514 -29.236 Q 580.537 -29.236 581.225 -29.101 Q 581.914 -28.965 582.281 -28.846 Q 582.649 -28.727 583.200 -28.454 Q 584.093 -27.727 584.278 -27.501 Q 584.464 -27.276 584.577 -27.088 Q 584.690 -26.899 585.208 -24.453 Q 585.727 -22.007 585.757 -21.181 Q 585.788 -20.355 585.779 -20.234 Q 585.771 -20.112 585.699 -19.457 Q 585.628 -18.802 585.596 -18.629 Q 585.564 -18.455 585.401 -18.032 Q 585.239 -17.610 585.092 -17.438 Q 584.945 -17.267 584.718 -17.088 Q 584.490 -16.910 584.356 -16.829 Q 584.222 -16.749 583.681 -16.492 Q 583.140 -16.235 582.847 -16.138 Q 582.554 -16.041 582.155 -15.957 Q 581.757 -15.873 581.464 -15.841 Q 581.172 -15.809 581.121 -15.804 Q 581.070 -15.799 580.120 -15.719 Q 579.169 -15.638 577.412 -15.305 Q 575.655 -14.972 575.380 -14.837 Q 575.106 -14.702 574.878 -14.532 Q 574.650 -14.362 574.355 -13.988 L 573.925 -13.031 Q 573.299 -9.183 573.114 -8.147 Q 573.067 -8.024 572.940 -7.677 Q 572.813 -7.331 572.670 -7.072 Q 572.527 -6.813 572.386 -6.626 Q 572.245 -6.439 572.070 -6.287 Q 571.895 -6.136 571.713 -6.014 Q 571.531 -5.892 570.908 -5.619 Q 570.285 -5.345 569.201 -5.016 Q 568.117 -4.687 567.943 -4.641 Q 567.770 -4.595 566.622 -4.404 Q 565.475 -4.214 563.973 -4.004 Q 562.471 -3.795 562.149 -3.733 Q 561.827 -3.672 560.859 -3.412 Q 559.891 -3.151 559.852 -3.141 Q 559.812 -3.132 558.944 -2.685 Q 558.076 -2.238 557.359 -1.579 Q 557.306 -1.532 557.148 -1.188 Q 556.989 -0.844 556.826 -0.155 Q 556.664 0.533 556.623 0.815 Q 556.583 1.096 556.566 1.484 Q 556.549 1.872 556.496 2.577 Q 556.443 3.281 556.388 3.700 Q 556.333 4.119 556.251 4.526 Q 556.169 4.933 555.997 5.400 Q 555.826 5.867 555.557 6.309 L 555.231 6.636 L 554.043 7.284 Q 553.934 7.322 553.377 7.521 Q 552.820 7.721 552.118 7.906 Q 551.416 8.092 551.270 8.129 Q 551.124 8.166 549.615 8.447 Q 548.106 8.727 547.101 8.917 Q 546.096 9.106 545.283 9.294 Q 544.471 9.483 543.899 9.694 Q 543.328 9.905 543.221 9.959 Q 543.114 10.013 542.683 10.328 Q 542.252 10.644 541.925 10.980 Q 541.413 11.738 541.382 11.804 Q 541.352 11.870 541.133 12.433 Q 540.915 12.996 540.718 13.763 Q 540.520 14.529 540.510 14.551 Q 540.500 14.574 540.402 15.321 Q 540.304 16.069 540.249 16.848 Q 540.195 17.627 540.161 18.390 Q 540.127 19.153 540.058 20.028 Q 539.990 20.904 539.953 21.418 Q 539.917 21.933 539.904 22.268 Q 539.891 22.604 539.895 22.756 "></path>
  </g>
  <g id="New_Layer_9" opacity="1.000">
    <path id="STROKE_ef86cbec-7ad0-42d5-968a-4113f05ef4a3" opacity="1.000" fill="#a2afb8" stroke="#a2afb8" stroke-width="0.500" stroke-opacity="1.000" stroke-linecap="round" stroke-linejoin="round" d="M 489.155 224.599 Q 489.173 224.181 489.216 223.798 Q 489.258 223.416 489.389 222.397 Q 489.519 221.379 489.542 221.179 Q 489.565 220.979 489.686 220.069 Q 489.806 219.160 489.882 218.112 Q 489.957 217.064 489.956 216.205 Q 489.955 215.345 489.959 214.650 Q 489.962 213.954 489.993 212.209 Q 490.025 210.464 490.025 209.806 Q 490.026 209.148 489.908 208.038 Q 489.791 206.929 489.708 205.973 Q 489.624 205.017 489.550 203.055 Q 489.476 201.092 489.452 199.584 Q 489.428 198.075 489.388 196.529 Q 489.348 194.983 489.407 192.425 Q 489.466 189.866 489.578 188.472 Q 489.690 187.078 489.618 184.797 Q 489.547 182.515 489.463 181.465 Q 489.378 180.415 489.326 178.543 Q 489.273 176.671 489.366 174.942 Q 489.460 173.213 489.615 171.419 Q 489.771 169.626 489.877 167.191 Q 489.983 164.756 489.951 162.831 Q 489.919 160.906 489.923 158.784 Q 489.927 156.662 489.822 154.934 Q 489.718 153.207 489.625 152.321 Q 489.532 151.435 489.424 150.701 Q 489.316 149.968 489.309 149.911 Q 489.303 149.854 489.232 149.434 Q 489.160 149.015 489.009 147.803 Q 488.858 146.591 488.814 145.486 Q 488.770 144.382 488.814 143.144 Q 488.857 141.906 488.934 140.835 Q 489.012 139.764 489.084 137.135 Q 489.157 134.505 489.085 132.697 Q 489.013 130.888 488.777 129.209 Q 488.541 127.530 488.332 125.636 Q 488.124 123.741 488.081 122.794 Q 488.038 121.847 488.033 118.522 Q 488.028 115.196 488.075 112.670 Q 488.123 110.143 488.173 108.939 Q 488.224 107.735 488.585 104.773 Q 488.947 101.811 489.132 100.192 Q 489.316 98.574 489.391 97.658 Q 489.465 96.742 489.341 94.295 Q 489.218 91.847 489.091 90.346 Q 488.963 88.846 488.983 87.293 Q 489.002 85.740 489.071 84.410 Q 489.140 83.081 489.164 82.395 Q 489.187 81.709 489.246 80.598 Q 489.305 79.487 489.333 78.405 Q 489.362 77.323 489.354 75.786 Q 489.345 74.248 489.303 73.156 Q 489.261 72.063 489.227 71.524 Q 489.193 70.984 489.055 69.506 Q 488.916 68.027 488.906 66.950 Q 488.896 65.873 488.977 65.267 Q 489.058 64.660 489.200 64.191 Q 489.342 63.721 489.488 63.393 Q 489.634 63.064 489.753 62.893 Q 489.872 62.721 490.089 62.468 Q 490.305 62.215 490.633 61.898 Q 490.961 61.581 491.160 61.436 Q 491.358 61.292 492.820 60.647 Q 494.282 60.003 495.558 59.745 Q 496.835 59.488 497.441 59.401 Q 498.047 59.314 498.841 59.156 Q 499.636 58.999 500.444 58.730 Q 501.251 58.461 501.646 58.230 Q 502.042 57.998 502.403 57.602 Q 502.765 57.207 502.982 56.595 L 502.992 56.440 L 503.040 56.154 L 503.110 55.578 Q 503.108 54.960 503.106 54.679 Q 503.105 54.399 503.062 53.883 Q 503.019 53.367 503.040 52.798 Q 503.060 52.230 503.141 51.726 Q 503.222 51.223 503.374 50.747 Q 503.526 50.272 503.563 50.170 Q 503.601 50.068 503.969 49.544 Q 504.337 49.020 504.628 48.767 Q 504.920 48.514 505.143 48.395 Q 505.365 48.276 505.585 48.207 Q 505.805 48.139 505.864 48.095 Q 505.922 48.052 507.847 47.794 Q 509.772 47.536 509.934 47.528 Q 510.096 47.520 511.385 47.406 Q 512.674 47.293 513.804 47.013 Q 514.933 46.732 516.476 45.885 Q 516.641 45.590 517.402 43.729 Q 518.164 41.869 518.452 40.819 Q 518.740 39.768 519.928 36.838 Q 520.153 36.644 520.326 36.486 Q 520.499 36.329 520.936 36.106 Q 521.373 35.884 522.157 35.648 Q 522.942 35.413 523.069 35.388 Q 523.195 35.364 523.856 35.235 Q 524.518 35.107 525.152 34.968 Q 525.787 34.828 525.923 34.789 Q 526.059 34.751 527.068 34.354 Q 528.076 33.957 528.637 33.571 Q 529.197 33.185 529.482 32.917 Q 529.767 32.649 529.875 32.528 Q 529.982 32.406 530.192 32.104 Q 530.401 31.801 530.518 31.577 Q 530.635 31.353 530.992 29.969 Q 531.348 28.585 531.478 27.926 Q 531.608 27.268 531.677 26.954 Q 531.747 26.640 531.843 26.255 Q 531.939 25.870 532.076 25.435 L 532.171 25.206 Q 532.356 24.922 532.439 24.780 Q 532.522 24.639 532.945 24.272 Q 533.367 23.906 533.790 23.670 Q 534.213 23.434 534.633 23.277 Q 535.054 23.121 535.808 22.917 Q 536.563 22.713 537.442 22.540 Q 538.322 22.367 538.854 22.268 Q 539.387 22.168 539.799 22.071 Q 540.211 21.973 540.781 21.773 Q 541.351 21.572 541.608 21.470 Q 541.864 21.367 542.398 21.069 L 543.027 20.400 Q 543.200 20.178 543.795 18.642 Q 544.390 17.105 544.513 16.591 Q 544.636 16.078 544.930 14.840 Q 545.225 13.602 545.472 12.944 Q 545.719 12.287 545.986 11.843 Q 546.254 11.400 547.276 10.478 Q 547.530 10.404 548.392 10.191 Q 549.254 9.977 550.888 9.813 Q 552.521 9.649 553.300 9.574 Q 554.078 9.499 554.514 9.451 Q 554.950 9.403 556.680 8.823 Q 558.410 8.243 558.505 8.176 Q 558.599 8.109 559.242 7.449 L 559.512 6.665 Q 559.550 6.603 559.614 5.704 Q 559.677 4.805 559.620 4.235 Q 559.561 3.665 559.526 3.388 Q 559.490 3.110 559.480 3.064 Q 559.469 3.018 559.306 1.600 Q 559.142 0.182 559.145 -0.167 Q 559.149 -0.515 559.201 -0.899 Q 559.252 -1.282 559.255 -1.311 Q 559.257 -1.339 559.401 -1.870 Q 559.546 -2.402 559.777 -2.817 Q 560.009 -3.232 560.158 -3.408 Q 560.307 -3.583 560.360 -3.633 Q 560.413 -3.683 560.995 -3.986 Q 561.577 -4.289 562.568 -4.452 Q 563.559 -4.614 564.056 -4.610 Q 564.553 -4.605 565.119 -4.554 Q 565.685 -4.502 565.976 -4.466 Q 566.267 -4.430 566.351 -4.422 Q 566.434 -4.414 567.231 -4.360 Q 568.028 -4.306 568.726 -4.355 Q 569.424 -4.404 569.769 -4.474 Q 570.113 -4.544 570.479 -4.696 Q 570.845 -4.849 571.088 -5.000 Q 571.330 -5.151 571.535 -5.366 Q 571.739 -5.581 572.028 -6.040 Q 572.316 -6.500 572.579 -7.170 Q 572.841 -7.840 572.971 -8.371 Q 573.101 -8.903 573.124 -9.055 Q 573.147 -9.207 573.276 -10.142 Q 573.406 -11.076 573.515 -12.345 Q 573.623 -13.613 573.690 -14.434 Q 573.757 -15.255 573.776 -15.310 Q 573.794 -15.364 573.882 -15.919 Q 573.969 -16.473 574.273 -17.373 Q 574.886 -17.765 575.362 -17.964 Q 575.838 -18.162 577.596 -18.410 Q 579.353 -18.658 579.787 -18.691 Q 580.220 -18.723 581.067 -18.829 Q 581.914 -18.935 582.672 -19.061 Q 583.431 -19.188 584.370 -19.476 Q 585.310 -19.765 585.538 -19.883 Q 585.766 -20.000 585.992 -20.173 Q 586.218 -20.346 586.341 -20.469 Q 586.463 -20.591 586.612 -20.790 Q 586.761 -20.988 586.964 -21.352 Q 587.167 -21.715 587.409 -22.429 Q 587.651 -23.144 587.777 -23.955 Q 587.902 -24.766 587.931 -25.274 Q 587.960 -25.783 587.956 -26.336 Q 587.951 -26.888 587.960 -27.402 Q 587.970 -27.915 588.158 -28.868 Q 588.346 -29.821 588.568 -30.400 L 588.692 -30.635 Q 589.012 -31.022 589.531 -31.432 Q 590.049 -31.843 590.783 -32.150 Q 591.516 -32.457 591.948 -32.546 Q 592.380 -32.635 592.775 -32.660 Q 593.169 -32.685 593.490 -32.676 Q 593.810 -32.668 594.673 -32.580 Q 595.537 -32.493 596.532 -32.213 Q 597.528 -31.933 597.971 -31.730 Q 598.414 -31.527 598.593 -31.396 Q 598.772 -31.265 599.246 -30.688 Q 599.720 -30.111 599.753 -30.079 Q 599.786 -30.046 600.288 -28.972 Q 600.789 -27.898 601.037 -27.112 Q 601.285 -26.326 601.553 -25.069 Q 601.822 -23.813 602.016 -21.941 Q 602.210 -20.069 602.281 -18.305 Q 602.352 -16.542 602.324 -13.826 Q 602.297 -11.110 602.242 -9.717 Q 602.187 -8.323 601.994 -6.458 Q 601.800 -4.592 601.579 -2.715 Q 601.359 -0.838 601.207 0.175 Q 601.055 1.188 600.940 1.842 Q 600.824 2.495 600.638 3.723 Q 600.451 4.951 600.303 6.889 Q 600.156 8.828 600.027 11.236 Q 599.898 13.644 599.848 15.301 Q 599.798 16.958 599.782 18.722 Q 599.767 20.487 599.769 21.325 Q 599.772 22.163 599.848 23.980 Q 599.923 25.797 599.988 26.855 Q 600.052 27.912 600.073 28.427 Q 600.095 28.942 600.114 30.708 Q 600.133 32.474 600.158 35.664 Q 600.184 38.853 600.216 41.689 Q 600.248 44.525 600.298 47.007 Q 600.348 49.489 600.416 51.273 Q 600.484 53.058 600.591 54.687 Q 600.698 56.316 600.770 57.223 Q 600.842 58.130 600.906 58.610 Q 600.971 59.090 601.096 60.647 Q 601.222 62.204 601.271 63.187 Q 601.321 64.170 601.421 65.720 Q 601.522 67.271 601.684 69.007 Q 601.847 70.744 602.059 73.186 Q 602.272 75.628 602.390 77.569 Q 602.508 79.510 602.637 81.668 Q 602.766 83.825 602.836 85.162 Q 602.906 86.499 602.962 87.199 Q 603.018 87.900 603.238 90.429 Q 603.458 92.959 603.521 94.597 Q 603.584 96.236 603.589 96.908 Q 603.594 97.581 603.580 99.392 Q 603.567 101.203 603.424 103.160 Q 603.282 105.116 603.184 106.178 Q 603.086 107.239 603.088 108.991 Q 603.091 110.743 603.197 111.959 Q 603.303 113.176 603.425 114.762 Q 603.546 116.349 603.568 119.118 Q 603.589 121.887 603.550 123.515 Q 603.511 125.143 603.381 126.546 Q 603.252 127.949 603.177 128.982 Q 603.103 130.015 603.066 130.899 Q 603.028 131.783 602.869 133.547 Q 602.710 135.311 602.535 136.785 Q 602.361 138.260 602.274 139.413 Q 602.187 140.567 602.167 141.073 Q 602.148 141.579 602.097 143.296 Q 602.046 145.012 602.064 146.378 Q 602.082 147.745 602.233 149.885 Q 602.384 152.025 602.470 152.966 Q 602.557 153.907 602.696 155.432 Q 602.835 156.957 602.925 158.845 Q 603.016 160.733 603.075 162.022 Q 603.134 163.312 603.160 164.421 Q 603.185 165.531 603.208 166.153 Q 603.230 166.775 603.314 168.238 Q 603.398 169.700 603.509 171.838 Q 603.620 173.977 603.652 175.097 Q 603.685 176.218 603.722 176.951 Q 603.759 177.685 603.772 179.687 Q 603.786 181.688 603.759 183.758 Q 603.732 185.828 603.705 186.385 Q 603.677 186.942 603.647 187.586 Q 603.616 188.230 603.609 188.540 Q 603.603 188.850 603.578 189.308 Q 603.553 189.765 603.523 190.106 Q 603.493 190.447 603.445 192.018 Q 603.397 193.590 603.450 193.973 Q 603.502 194.356 603.584 194.654 Q 603.666 194.951 603.734 195.147 Q 603.801 195.344 603.926 195.644 Q 604.051 195.944 604.141 196.173 Q 604.231 196.403 604.469 197.089 Q 604.708 197.775 604.747 197.891 Q 604.787 198.006 604.961 198.419 Q 605.136 198.832 605.486 199.579 Q 605.835 200.325 606.200 200.993 Q 606.564 201.661 606.785 202.045 Q 607.006 202.430 607.385 203.010 Q 607.763 203.589 608.043 204.003 Q 608.324 204.417 608.930 205.304 Q 609.537 206.192 609.748 206.473 Q 609.958 206.755 610.494 207.478 Q 611.030 208.201 611.472 208.825 Q 611.914 209.448 612.308 210.031 Q 612.702 210.613 612.964 211.027 Q 613.226 211.440 613.514 211.938 Q 613.802 212.436 613.913 212.644 Q 614.024 212.853 614.248 213.260 Q 614.471 213.668 614.650 214.000 Q 614.828 214.332 615.135 214.970 Q 615.443 215.608 615.776 216.422 Q 616.108 217.237 616.240 217.671 Q 616.372 218.105 616.540 218.831 Q 616.708 219.556 617.014 220.429 Q 615.010 220.495 613.010 220.561 Q 611.009 220.626 609.011 220.692 Q 607.013 220.757 605.015 220.822 Q 603.017 220.887 601.020 220.952 Q 599.022 221.017 597.025 221.082 Q 595.027 221.148 593.030 221.213 Q 591.032 221.278 589.035 221.343 Q 587.037 221.408 585.040 221.473 Q 583.042 221.538 581.044 221.603 Q 579.047 221.669 577.049 221.734 Q 575.052 221.799 573.054 221.864 Q 571.057 221.929 569.059 221.994 Q 567.062 222.059 565.064 222.124 Q 563.067 222.189 561.069 222.255 Q 559.071 222.320 557.074 222.385 Q 555.076 222.450 553.079 222.515 Q 551.081 222.580 549.084 222.645 Q 547.086 222.710 545.089 222.776 Q 543.091 222.841 541.094 222.906 Q 539.096 222.971 537.098 223.036 Q 535.101 223.101 533.103 223.166 Q 531.106 223.231 529.108 223.296 Q 527.111 223.362 525.113 223.427 Q 523.116 223.492 521.118 223.557 Q 519.121 223.622 517.123 223.687 Q 515.125 223.752 513.128 223.817 Q 511.130 223.883 509.133 223.948 Q 507.135 224.013 505.138 224.078 Q 503.140 224.143 501.143 224.208 Q 499.145 224.273 497.147 224.338 Q 495.150 224.403 493.152 224.469 Q 491.154 224.534 489.155 224.599 Z"></path>
  </g>
  <g id="New_Layer_6" opacity="1.000">
    <path id="STROKE_9d44a159-5057-4912-ba16-f7562b4be70d" opacity="1.000" fill="none" stroke="#000000" stroke-width="5.209" stroke-opacity="1.000" stroke-linecap="round" stroke-linejoin="round" d="M 488.017 59.688 L 502.149 59.688 "></path>
    <path id="STROKE_af9d514e-9973-4b7d-8b7b-bb45e514ad7d" opacity="1.000" fill="none" stroke="#000000" stroke-width="5.209" stroke-opacity="1.000" stroke-linecap="round" stroke-linejoin="round" d="M 502.981 59.250 L 502.513 47.087 "></path>
    <path id="STROKE_989a1291-24f4-4873-9c9a-2cd09b5c605e" opacity="1.000" fill="none" stroke="#000000" stroke-width="5.209" stroke-opacity="1.000" stroke-linecap="round" stroke-linejoin="round" d="M 502.513 47.087 L 517.146 46.795 "></path>
    <path id="STROKE_99f6e545-2b29-488c-9cd6-7c01c6347ce0" opacity="1.000" fill="none" stroke="#000000" stroke-width="5.209" stroke-opacity="1.000" stroke-linecap="round" stroke-linejoin="round" d="M 517.379 46.523 L 517.312 34.548 "></path>
    <path id="STROKE_9d05924d-204b-48ce-9a62-21b9e52a16b0" opacity="1.000" fill="none" stroke="#000000" stroke-width="5.209" stroke-opacity="1.000" stroke-linecap="round" stroke-linejoin="round" d="M 517.312 34.548 L 530.401 34.845 "></path>
    <path id="STROKE_72e0ec8e-46ab-4d61-b939-59585880d2e4" opacity="1.000" fill="none" stroke="#000000" stroke-width="5.209" stroke-opacity="1.000" stroke-linecap="round" stroke-linejoin="round" d="M 530.320 34.406 L 530.027 22.204 "></path>
    <path id="STROKE_1d60d49e-94ff-49ff-9aa8-975aa2be9694" opacity="1.000" fill="none" stroke="#000000" stroke-width="nan" stroke-opacity="nan" stroke-linecap="round" stroke-linejoin="round" d="M 530.026 22.496 L 530.026 22.496 "></path>
    <path id="STROKE_ad3e8f58-eae1-46f4-9716-7dfa1e4fd1eb" opacity="1.000" fill="none" stroke="#000000" stroke-width="5.209" stroke-opacity="1.000" stroke-linecap="round" stroke-linejoin="round" d="M 530.027 22.204 L 544.074 21.734 "></path>
    <path id="STROKE_cc248117-b712-4d7d-bff5-30a5ff7c933d" opacity="1.000" fill="none" stroke="#000000" stroke-width="5.209" stroke-opacity="1.000" stroke-linecap="round" stroke-linejoin="round" d="M 544.339 21.453 L 544.207 9.151 "></path>
    <path id="STROKE_d8cd9c95-0fa4-4f72-88f3-ceaf12317621" opacity="1.000" fill="none" stroke="#000000" stroke-width="5.209" stroke-opacity="1.000" stroke-linecap="round" stroke-linejoin="round" d="M 544.578 8.979 L 558.009 9.165 "></path>
    <path id="STROKE_49eba41d-8b31-4caa-8985-1261b38c0446" opacity="1.000" fill="none" stroke="#000000" stroke-width="5.209" stroke-opacity="1.000" stroke-linecap="round" stroke-linejoin="round" d="M 558.009 9.165 L 558.076 -4.758 "></path>
    <path id="STROKE_c5194d26-7ba5-418b-9e54-bc6b26864a79" opacity="1.000" fill="none" stroke="#000000" stroke-width="5.209" stroke-opacity="1.000" stroke-linecap="round" stroke-linejoin="round" d="M 558.628 -4.802 L 571.589 -4.892 "></path>
    <path id="STROKE_6661b617-7f3e-4998-a45d-ab41174e28fd" opacity="1.000" fill="none" stroke="#000000" stroke-width="5.209" stroke-opacity="1.000" stroke-linecap="round" stroke-linejoin="round" d="M 571.448 -5.540 L 571.078 -20.296 "></path>
    <path id="STROKE_b8a78987-00a0-40b6-8721-ef3e6c4fe8c6" opacity="1.000" fill="none" stroke="#000000" stroke-width="5.209" stroke-opacity="1.000" stroke-linecap="round" stroke-linejoin="round" d="M 571.078 -20.296 L 585.814 -20.265 "></path>
    <path id="STROKE_ca6c8fb8-2213-4231-b8c9-17b4cd1fd855" opacity="1.000" fill="none" stroke="#000000" stroke-width="5.209" stroke-opacity="1.000" stroke-linecap="round" stroke-linejoin="round" d="M 585.814 -20.265 L 585.648 -34.062 "></path>
    <path id="STROKE_d1a6b921-429e-400f-bdd8-553e599f9a15" opacity="1.000" fill="none" stroke="#000000" stroke-width="nan" stroke-opacity="nan" stroke-linecap="round" stroke-linejoin="round" d="M 585.648 -34.062 L 585.648 -34.062 "></path>
    <path id="STROKE_6b2ad6fb-5865-4e92-b880-030867b488e6" opacity="1.000" fill="none" stroke="#000000" stroke-width="5.209" stroke-opacity="1.000" stroke-linecap="round" stroke-linejoin="round" d="M 585.648 -34.062 L 602.468 -33.429 "></path>
    <path id="STROKE_7a96bff1-77f2-444a-a4a0-d917f2451ee9" opacity="1.000" fill="none" stroke="#000000" stroke-width="5.209" stroke-opacity="1.000" stroke-linecap="round" stroke-linejoin="round" d="M 602.468 -33.429 L 603.333 201.720 "></path>
    <path id="STROKE_9cb142c8-84ea-490f-aab7-85612cfd3f4a" opacity="1.000" fill="none" stroke="#000000" stroke-width="5.209" stroke-opacity="1.000" stroke-linecap="round" stroke-linejoin="round" d="M 603.333 201.720 L 617.205 213.563 "></path>
    <path id="STROKE_8677e92c-6cdf-408a-ae0a-3b69f5dbd411" opacity="1.000" fill="none" stroke="#000000" stroke-width="5.209" stroke-opacity="1.000" stroke-linecap="round" stroke-linejoin="round" d="M 617.205 213.563 L 616.965 223.477 "></path>
    <path id="STROKE_78043f7e-d5c2-47bb-9fbd-3a72a4ec2f1b" opacity="1.000" fill="none" stroke="#000000" stroke-width="5.209" stroke-opacity="1.000" stroke-linecap="round" stroke-linejoin="round" d="M 488.017 59.688 L 489.038 224.040 "></path>
    <path id="STROKE_e0cd647c-3327-4fa0-9f26-da63ff462d65" opacity="1.000" fill="none" stroke="#000000" stroke-width="5.209" stroke-opacity="1.000" stroke-linecap="round" stroke-linejoin="round" d="M 489.038 224.040 L 616.965 223.477 "></path>
  </g>
  <g id="New_Layer_3" opacity="1.000">
    <path id="STROKE_19a0a7d4-3c29-4dbe-a09c-5070fa52a826" opacity="1.000" fill="none" stroke="#000000" stroke-width="5.209" stroke-opacity="1.000" stroke-linecap="round" stroke-linejoin="round" d="M 252.386 33.904 L 253.392 33.864 L 253.711 33.851 L 254.079 33.836 L 254.471 33.820 L 254.937 33.802 L 255.501 33.779 L 256.115 33.754 L 256.826 33.726 L 257.684 33.691 L 258.764 33.648 L 259.867 33.603 L 261.192 33.550 L 262.590 33.494 L 264.062 33.435 L 265.705 33.368 L 267.569 33.293 L 269.286 33.224 L 271.003 33.155 L 272.793 33.083 L 274.584 33.011 L 276.375 32.939 L 278.410 32.857 L 280.029 32.792 L 281.672 32.726 L 283.316 32.660 L 285.033 32.591 L 286.750 32.522 L 288.835 32.438 L 290.625 32.366 L 292.415 32.294 L 294.304 32.218 L 296.168 32.143 L 298.106 32.065 L 300.362 31.975 L 302.251 31.899 L 304.115 31.824 L 306.053 31.746 L 308.015 31.667 L 310.026 31.586 L 312.528 31.485 L 314.564 31.403 L 316.649 31.320 L 318.685 31.238 L 320.720 31.156 L 323.124 31.059 L 324.988 30.984 L 326.950 30.905 L 328.888 30.827 L 330.924 30.745 L 332.935 30.665 L 335.363 30.567 L 337.473 30.482 L 339.656 30.394 L 341.986 30.301 L 344.316 30.207 L 346.744 30.109 L 349.614 29.994 L 351.944 29.900 L 354.446 29.799 L 356.948 29.699 L 359.523 29.595 L 362.246 29.486 L 365.361 29.361 L 367.936 29.257 L 370.585 29.150 L 373.160 29.047 L 375.809 28.940 L 378.287 28.841 L 381.181 28.724 L 383.511 28.631 L 385.841 28.537 L 388.417 28.433 L 390.992 28.330 L 393.567 28.226 L 396.535 28.107 L 398.865 28.013 L 401.269 27.916 L 403.624 27.822 L 405.954 27.728 L 408.284 27.634 L 411.006 27.525 L 413.189 27.437 L 415.372 27.349 L 417.629 27.258 L 419.812 27.171 L 421.921 27.086 L 424.350 26.988 L 426.214 26.913 L 428.004 26.841 L 429.795 26.769 L 431.585 26.697 L 433.376 26.625 L 435.485 26.540 L 437.128 26.474 L 438.919 26.402 L 440.709 26.330 L 442.500 26.258 L 444.217 26.189 L 446.228 26.108 L 447.724 26.048 L 449.270 25.986 L 450.839 25.923 L 452.311 25.864 L 453.709 25.807 L 455.352 25.741 L 456.677 25.688 L 458.001 25.635 L 459.399 25.578 L 460.896 25.518 L 462.515 25.453 L 463.912 25.397 L 465.409 25.337 L 466.880 25.278 L 468.279 25.221 L 469.701 25.164 L 471.173 25.105 L 472.350 25.058 L 473.503 25.011 L 474.754 24.961 L 476.005 24.911 L 477.256 24.860 L 478.654 24.804 L 479.806 24.758 L 481.057 24.707 L 482.235 24.660 L 483.412 24.613 L 484.491 24.569 L 485.816 24.516 L 486.822 24.476 L 487.852 24.434 L 488.859 24.394 L 489.791 24.356 L 490.798 24.316 L 491.903 24.271 L 492.690 24.240 L 493.452 24.209 L 494.240 24.177 L 494.880 24.152 L 495.570 24.124 L 496.286 24.095 L 496.904 24.070 L 497.449 24.049 L 498.020 24.026 L 498.641 24.001 L 499.189 23.979 L 499.989 23.947 L 500.541 23.925 L 501.196 23.899 L 501.753 23.876 L 502.388 23.851 L 503.054 23.825 L 503.879 23.792 L 504.452 23.769 L 505.108 23.743 L 505.690 23.720 L 506.306 23.696 L 506.901 23.673 L 507.586 23.646 L 508.113 23.626 L 508.562 23.608 L 509.016 23.591 L 509.389 23.576 L 509.765 23.562 L 510.115 23.548 L 510.409 23.537 L 510.677 23.527 L 510.886 23.519 L 511.156 23.509 L 511.368 23.501 L 511.735 23.487 L 512.043 23.475 L 512.324 23.464 L 512.638 23.453 L 513.050 23.437 L 513.436 23.423 L 513.860 23.407 L 514.289 23.391 L 514.690 23.376 L 515.029 23.363 L 515.474 23.347 L 515.891 23.331 L 516.349 23.314 L 516.707 23.301 L 517.032 23.289 L 517.250 23.281 L 517.618 23.268 L 517.990 23.255 L 518.216 23.246 L 518.557 23.234 L 518.825 23.224 L 519.056 23.216 L 519.446 23.202 L 519.800 23.189 L 520.079 23.179 L 520.441 23.166 L 520.684 23.158 L 521.093 23.143 L 521.341 23.134 L 521.758 23.119 L 522.011 23.110 L 522.308 23.100 L 522.565 23.091 L 522.823 23.082 L 523.127 23.071 L 523.521 23.057 L 523.964 23.041 L 524.232 23.032 L 524.684 23.016 L 525.094 23.002 L 525.370 22.992 L 525.974 22.971 L 526.303 22.960 L 526.730 22.945 L 527.016 22.935 L 527.498 22.918 L 527.789 22.908 L 528.279 22.891 L 528.723 22.876 L 529.072 22.864 L 529.222 22.859 L 529.523 22.848 L 529.877 22.836 L 530.334 22.820 L 530.642 22.810 L 531.158 22.792 L 531.677 22.774 L 531.991 22.764 L 532.307 22.753 L 532.676 22.740 L 532.995 22.729 L 533.314 22.718 L 533.689 22.706 L 534.012 22.695 L 534.335 22.684 L 534.714 22.671 L 535.041 22.660 L 535.587 22.641 L 535.916 22.630 L 536.246 22.619 L 536.632 22.606 L 536.964 22.594 L 537.297 22.583 L 537.686 22.570 L 538.021 22.559 L 538.355 22.547 L 538.579 22.540 L 538.915 22.528 L 539.251 22.517 L 539.644 22.504 L 539.982 22.492 L 540.319 22.481 L 540.714 22.467 L 541.052 22.456 L 541.615 22.437 "></path>
    <path id="STROKE_4b5b8b8d-c0ad-4267-81fd-a9d5b6784171" opacity="1.000" fill="none" stroke="#000000" stroke-width="5.209" stroke-opacity="1.000" stroke-linecap="round" stroke-linejoin="round" d="M 252.371 33.518 L 251.833 4.723 "></path>
    <path id="STROKE_ff139d36-ae59-4b27-ae4e-1de9bf89d750" opacity="1.000" fill="none" stroke="#000000" stroke-width="5.209" stroke-opacity="1.000" stroke-linecap="round" stroke-linejoin="round" d="M 251.833 4.723 L 270.754 -14.304 "></path>
    <path id="STROKE_84cb5f10-12f3-4750-99cd-87f31c8d0599" opacity="1.000" fill="none" stroke="#000000" stroke-width="5.209" stroke-opacity="1.000" stroke-linecap="round" stroke-linejoin="round" d="M 270.754 -14.304 L 587.259 -29.022 "></path>
    <path id="STROKE_e927b6a5-20d6-4ed1-a18d-e33a4b9e5e7e" opacity="1.000" fill="none" stroke="#000000" stroke-width="5.209" stroke-opacity="1.000" stroke-linecap="round" stroke-linejoin="round" d="M 587.259 -29.022 L 587.791 -17.382 "></path>
    <path id="STROKE_59a8ed81-09f4-451e-890b-d1f10880bb6f" opacity="1.000" fill="none" stroke="#000000" stroke-width="5.209" stroke-opacity="1.000" stroke-linecap="round" stroke-linejoin="round" d="M 587.579 -16.955 L 573.379 -16.146 "></path>
    <path id="STROKE_7c321112-03aa-48d8-b690-7ccd275b08f3" opacity="1.000" fill="none" stroke="#000000" stroke-width="5.209" stroke-opacity="1.000" stroke-linecap="round" stroke-linejoin="round" d="M 573.125 -15.834 L 573.571 -4.812 "></path>
    <path id="STROKE_ec0954a9-c042-4d56-a198-36263fd989e5" opacity="1.000" fill="none" stroke="#000000" stroke-width="5.209" stroke-opacity="1.000" stroke-linecap="round" stroke-linejoin="round" d="M 573.684 -4.567 L 557.749 -3.541 "></path>
    <path id="STROKE_c86c10d8-aec9-4e84-9581-22435c66791a" opacity="1.000" fill="none" stroke="#000000" stroke-width="5.209" stroke-opacity="1.000" stroke-linecap="round" stroke-linejoin="round" d="M 557.475 -3.249 L 557.943 6.728 "></path>
    <path id="STROKE_2fce7308-7dfa-4291-bcbd-1874e4a0974f" opacity="1.000" fill="none" stroke="#000000" stroke-width="5.209" stroke-opacity="1.000" stroke-linecap="round" stroke-linejoin="round" d="M 557.200 8.163 L 540.774 9.396 "></path>
    <path id="STROKE_1227ba17-d385-401f-8206-450acb259169" opacity="1.000" fill="none" stroke="#000000" stroke-width="5.209" stroke-opacity="1.000" stroke-linecap="round" stroke-linejoin="round" d="M 541.040 9.255 L 541.527 22.650 "></path>
  </g>
</svg>